<svg width="205" height="94" viewBox="0 0 205 94" fill="none" xmlns="http://www.w3.org/2000/svg">
<path d="M37.283 38.1552L22.6859 12.8717L47.6208 13.0106L54.9917 0.000411987H0L29.3757 47.4931L37.283 60.2776V38.1552Z" fill="#625F5F"/>
<path d="M100.236 83.6345H89.7241V92.2919H101.237L101.002 93.7644H88.1338V73.1515H100.767V74.624H89.7241V82.162H100.236V83.6345Z" fill="#fff"/>
<path d="M105.303 93.7644V73.1515H107.659C110.868 78.0983 118.407 89.6122 119.703 91.8505H119.732C119.555 88.8767 119.585 85.8431 119.585 82.4864V73.1515H121.205V93.7644H119.026C115.963 88.994 108.307 77.0091 106.834 74.742H106.805C106.952 77.4505 106.922 80.4544 106.922 84.1939V93.7644H105.303Z" fill="#fff"/>
<path d="M139.374 83.6345H128.862V92.2919H140.376L140.14 93.7644H127.272V73.1515H139.905V74.624H128.862V82.162H139.374V83.6345Z" fill="#fff"/>
<path d="M146.061 82.663H151.037C154.659 82.663 156.338 81.3085 156.338 78.5994C156.338 76.067 154.689 74.624 151.479 74.624H146.061V82.663ZM146.061 84.1351V93.7644H144.441V73.1515H151.833C155.896 73.1515 158.046 75.3309 158.046 78.5699C158.046 81.1905 156.485 82.8984 154.188 83.3994C156.309 83.8997 157.723 85.2839 157.723 88.7877V89.5827C157.723 91.0258 157.605 92.9692 157.987 93.7644H156.367C155.985 92.8815 156.073 91.2321 156.073 89.4654V88.9349C156.073 85.5491 155.072 84.1351 151.126 84.1351H146.061Z" fill="#fff"/>
<path d="M178.837 93.7642H177.512C177.394 93.5291 177.335 92.4686 177.305 90.4661C176.57 91.8797 174.95 94 170.65 94C164.732 94 161.698 89.4942 161.698 83.6343C161.698 77.4798 164.938 72.8566 170.975 72.8566C175.421 72.8566 178.366 75.1833 179.014 78.9817H177.423C176.54 76.0668 174.508 74.3291 170.916 74.3291C165.762 74.3291 163.406 78.3339 163.406 83.546C163.406 88.2575 165.674 92.5275 170.71 92.5275C175.863 92.5275 177.305 89.1705 177.305 84.6065V84.3707H170.65V82.8982H178.837V93.7642Z" fill="#fff"/>
<path d="M184.168 93.7644H185.758V73.1515H184.168V93.7644Z" fill="#fff"/>
<path d="M203.928 83.6345H193.415V92.2919H204.929L204.694 93.7644H191.825V73.1515H204.458V74.624H193.415V82.162H203.928V83.6345Z" fill="#fff"/>
<path d="M0 65.4049H52.8918L52.0121 68.1697H0V65.4049Z" fill="#fff"/>
<path d="M63.8552 65.4049H68.9674L67.3657 68.1697H62.1826L63.8552 65.4049Z" fill="#fff"/>
<path d="M88.1344 65.4048H204.451V68.2087H86.3774L88.1344 65.4048Z" fill="#fff"/>
<path d="M98.9613 54.823H95.9648V39.4585H99.0549C99.6653 39.4585 100.215 39.5257 100.72 39.6427C103.749 40.3429 104.947 43.0581 104.947 46.8463C104.947 51.8466 103.208 54.823 98.9613 54.823ZM103.999 34.3408C102.665 33.9831 101.196 33.7933 99.6018 33.7933H88.1338V60.488H99.4799C108.226 60.488 113.026 54.544 113.026 46.8463C113.026 40.6094 109.774 35.892 103.999 34.3408Z" fill="#fff"/>
<path d="M124.952 55.2326H128.951C131.523 55.2326 132.617 54.1148 132.617 52.2048C132.617 50.5275 131.582 49.3415 129.095 49.3415H124.952V55.2326ZM129.319 44.086C131.472 44.086 132.342 42.9775 132.342 41.5307C132.342 39.8745 131.139 39.0626 129.26 39.0626H124.952V44.086H129.319ZM117.36 33.7933H130.644C137.082 33.7933 139.921 36.9842 139.921 40.7357C139.921 43.5841 138.425 45.6174 136.286 46.4974C138.287 47.2088 140.657 49.0809 140.657 52.5326C140.657 56.9089 137.389 60.488 130.73 60.488H117.36V33.7933Z" fill="#fff"/>
<path d="M150.126 39.5902H142.496V33.7933H165.522V39.5902H157.957V60.488H150.126V39.5902Z" fill="#fff"/>
<path d="M84.521 44.1056L62.5864 82.0969L74.4132 82.1724L86.3766 62.2006V40.8917L84.521 44.1056Z" fill="#F9B12E"/>
<path d="M104.948 32.8096L125.24 0.00104523H67.075L53.9287 22.9597L45.8843 36.8932L65.1588 36.4812L50.49 82.343L84.2617 25.4371H65.8349L73.6064 12.8724H102.555L91.4512 32.104L99.8847 32.108C101.479 32.108 103.613 32.4514 104.948 32.8096Z" fill="#F9B12E"/>
<path d="M97.6763 41.1715L99.1606 41.199L99.7342 41.2094L97.6763 44.5618V41.1715Z" fill="#F9B12E"/>
</svg>


