<svg width="356" height="46" viewBox="0 0 356 46" fill="none" xmlns="http://www.w3.org/2000/svg">
<path d="M106.311 28.3757C109.477 28.3757 112.044 25.8091 112.044 22.643C112.044 19.477 109.477 16.9104 106.311 16.9104C103.145 16.9104 100.579 19.477 100.579 22.643C100.579 25.8091 103.145 28.3757 106.311 28.3757Z" fill="#375768"/>
<path d="M3.63686 26.2799C5.64544 26.2799 7.27372 24.6516 7.27372 22.643C7.27372 20.6345 5.64544 19.0062 3.63686 19.0062C1.62828 19.0062 0 20.6345 0 22.643C0 24.6516 1.62828 26.2799 3.63686 26.2799Z" fill="#375768"/>
<path d="M16.9926 30.3483C21.18 30.3483 24.5745 26.8985 24.5745 22.643C24.5745 18.3876 21.18 14.9378 16.9926 14.9378C12.8052 14.9378 9.41064 18.3876 9.41064 22.643C9.41064 26.8985 12.8052 30.3483 16.9926 30.3483Z" fill="#375768"/>
<path d="M45.4505 16.7871L45.3888 16.8898C44.6491 18.6158 44.2793 20.5883 44.2793 22.6636C44.2793 24.7389 44.6697 26.7114 45.3888 28.4374L45.5327 28.7045C46.5189 27.1429 47.0121 25.1498 47.0121 22.7663C47.0326 20.3829 46.4984 18.3692 45.4505 16.7871Z" fill="#375768"/>
<path d="M84.9011 7.93123V35.2796H82.3122V23.9786H67.9702V35.6083C64.5183 37.5809 60.7376 38.3 56.8747 38.3C51.8612 38.3 47.6901 36.307 44.9778 32.9783C41.9574 35.1358 38.3822 35.3412 37.2521 35.3412C37.0877 35.3412 36.9644 35.3412 36.9028 35.3412H28.0058V15.7803H30.5742V32.7728H37.0055C37.0261 32.7728 37.0877 32.7728 37.211 32.7728C38.1356 32.7728 41.1355 32.629 43.5395 30.8619L43.4163 30.6565C42.1834 28.3552 41.5054 25.6635 41.5054 22.6636C41.5054 19.6637 42.1834 16.972 43.4163 14.6707L43.4368 14.6296C40.5396 12.4516 36.8206 12.39 36.3686 12.39H27.9853V9.84212H36.2864C36.3069 9.84212 36.3275 9.84212 36.3891 9.84212C36.9233 9.84212 41.2794 9.92431 44.834 12.5133C47.5668 9.10242 51.779 7.0477 56.8541 7.0477C59.7308 7.0477 62.2581 7.62302 64.4361 8.79421V7.68466H67.21V15.0611H64.4361V12.1845C62.4635 10.6024 59.5253 9.57501 56.8541 9.57501C52.4365 9.57501 48.9846 11.4243 46.8066 14.3625C48.6353 16.5405 49.5599 19.3555 49.5599 22.7869C49.5599 26.2183 48.6763 29.0332 46.9298 31.1496C49.1078 34.0057 52.5187 35.7933 56.8541 35.7933C60.039 35.7933 62.895 35.3823 65.1758 34.0262V23.9992H61.2718V21.4102H82.2711V7.91068C79.867 8.09561 77.6274 8.8764 75.6754 10.0681C71.6071 3.98616 64.7032 0 56.8336 0C51.1831 0 46.0052 2.07527 42.0396 5.50666C39.8821 4.62313 37.5192 4.12999 35.0535 4.12999C24.8416 4.12999 16.561 12.4105 16.561 22.6225C16.561 32.8345 24.8416 41.115 35.0535 41.115C37.5192 41.115 39.8821 40.6219 42.0396 39.7383C46.0052 43.1697 51.1831 45.245 56.8336 45.245C64.6826 45.245 71.6071 41.2383 75.6754 35.1769C77.9356 36.5741 80.5862 37.396 83.4423 37.396C91.5995 37.396 98.2157 30.7797 98.2157 22.6225C98.2568 14.9584 92.4009 8.65038 84.9011 7.93123Z" fill="#375768"/>
<path d="M75.7167 10.0681C71.8333 12.4722 69.1621 16.6022 68.7717 21.4102H79.4974C79.2508 17.2186 77.9152 13.3557 75.7167 10.0681Z" fill="#10272F"/>
<path d="M75.7167 35.1974C77.8947 31.9509 79.2303 28.1086 79.4768 23.9786H68.7717C69.2032 28.725 71.8744 32.8139 75.7167 35.1974Z" fill="#10272F"/>
<path d="M18.2255 15.0406C17.1776 17.3624 16.6023 19.9308 16.6023 22.643C16.6023 25.3553 17.1776 27.9237 18.2255 30.2455C21.8213 29.6497 24.5541 26.4648 24.5541 22.643C24.5541 18.8213 21.8213 15.6364 18.2255 15.0406Z" fill="#10272F"/>
<path d="M46.8477 14.342C48.6764 16.52 49.601 19.3349 49.601 22.7663C49.601 26.1977 48.7175 29.0127 46.9709 31.1291C47.7723 32.177 48.738 33.081 49.8476 33.8002C52.2105 30.6976 53.6077 26.8347 53.6077 22.6431C53.6077 18.472 52.2105 14.6091 49.8886 11.5065C48.6764 12.2667 47.6695 13.2324 46.8477 14.342Z" fill="#10272F"/>
<path d="M44.2793 22.6636C44.2793 24.7594 44.6697 26.7114 45.3888 28.4374L45.5327 28.7045C46.5189 27.1429 47.0121 25.1498 47.0121 22.7663C47.0121 20.3829 46.4778 18.3692 45.4505 16.7665L45.3888 16.8693C44.6697 18.6158 44.2793 20.5678 44.2793 22.6636Z" fill="#10272F"/>
<path d="M48.1215 9.53392C46.3955 7.8285 44.3613 6.45183 42.0806 5.52721C40.5807 6.82168 39.2451 8.32163 38.115 9.98595C39.841 10.212 42.5121 10.8284 44.8545 12.5338C45.7791 11.3421 46.8887 10.3558 48.1215 9.53392Z" fill="#10272F"/>
<path d="M44.9778 32.9783C42.5121 34.7454 39.6971 35.1974 38.115 35.3001C39.2451 36.9645 40.5601 38.4644 42.0806 39.7589C44.3408 38.8343 46.375 37.4781 48.1009 35.7727C46.9092 35.0125 45.8613 34.0673 44.9778 32.9783Z" fill="#10272F"/>
<path d="M43.4163 30.6565C42.1835 28.3552 41.5054 25.6635 41.5054 22.6636C41.5054 19.6637 42.1835 16.972 43.4163 14.6707L43.4368 14.6296C40.889 12.7393 37.7247 12.4516 36.6768 12.4105C35.1152 15.4926 34.2317 18.9651 34.2317 22.643C34.2317 26.2799 35.0947 29.7113 36.6152 32.7728H36.985C37.0056 32.7728 37.0672 32.7728 37.1905 32.7728C38.1151 32.7728 41.115 32.629 43.519 30.8619L43.4163 30.6565Z" fill="#10272F"/>
<path d="M122.51 16.2215H127.298C131.168 16.2215 133.837 18.8722 133.837 22.3358V22.3711C133.837 25.8347 131.168 28.5207 127.298 28.5207H122.51V16.2215ZM125.213 18.6602V26.0644H127.298C129.507 26.0644 131.009 24.58 131.009 22.3888V22.3535C131.009 20.1799 129.525 18.6425 127.298 18.6425H125.213V18.6602Z" fill="#375768"/>
<path d="M137.99 16.221H147.267V18.6243H140.676V21.1159H146.472V23.5192H140.676V26.0992H147.355V28.5025H137.99V16.221Z" fill="#375768"/>
<path d="M157.993 22.4059V22.3706C157.993 18.8717 160.715 16.0089 164.443 16.0089C166.652 16.0089 167.995 16.6098 169.268 17.6877L167.554 19.7552C166.599 18.96 165.769 18.5006 164.337 18.5006C162.376 18.5006 160.803 20.2324 160.803 22.3352V22.3706C160.803 24.6148 162.341 26.2759 164.532 26.2759C165.521 26.2759 166.387 26.0285 167.076 25.5337V23.7843H164.373V21.4517H169.709V26.7884C168.437 27.8664 166.705 28.7322 164.461 28.7322C160.626 28.7146 157.993 26.0285 157.993 22.4059Z" fill="#375768"/>
<path d="M174.057 16.221H179.676C181.231 16.221 182.45 16.6628 183.263 17.4757C183.953 18.1648 184.324 19.1191 184.324 20.2854V20.3207C184.324 22.2999 183.246 23.5546 181.691 24.1377L184.695 28.5202H181.514L178.881 24.5795H176.76V28.5202H174.057V16.221V16.221ZM179.499 22.1939C180.825 22.1939 181.567 21.487 181.567 20.4621V20.4268C181.567 19.2605 180.754 18.6773 179.446 18.6773H176.76V22.2116H179.499V22.1939Z" fill="#375768"/>
<path d="M187.964 22.4059V22.3706C187.964 18.8717 190.721 16.0089 194.52 16.0089C198.319 16.0089 201.041 18.8363 201.041 22.3352V22.3706C201.041 25.8695 198.284 28.7322 194.485 28.7322C190.685 28.7322 187.964 25.8872 187.964 22.4059ZM198.196 22.4059V22.3706C198.196 20.2677 196.658 18.5006 194.467 18.5006C192.293 18.5006 190.774 20.2147 190.774 22.3352V22.3706C190.774 24.4735 192.311 26.2406 194.502 26.2406C196.693 26.2229 198.196 24.5088 198.196 22.4059Z" fill="#375768"/>
<path d="M207.526 18.7126H203.78V16.221H213.958V18.7126H210.212V28.5025H207.508V18.7126H207.526Z" fill="#375768"/>
<path d="M217.793 16.221H227.07V18.6243H220.479V21.1159H226.275V23.5192H220.479V26.0992H227.159V28.5025H217.793V16.221Z" fill="#375768"/>
<path d="M238.344 16.221H241.048V21.0806H246.031V16.221H248.735V28.5025H246.031V23.5722H241.048V28.5025H238.344V16.221Z" fill="#375768"/>
<path d="M257.659 16.1326H260.151L265.417 28.5025H262.589L261.459 25.7458H256.263L255.132 28.5025H252.375L257.659 16.1326ZM260.504 23.3602L258.879 19.3665L257.253 23.3602H260.504V23.3602Z" fill="#375768"/>
<path d="M269.075 16.221H271.991L275.225 21.4163L278.458 16.221H281.374V28.5025H278.688V20.4798L275.225 25.7281H275.154L271.726 20.5328V28.5025H269.075V16.221V16.221Z" fill="#375768"/>
<path d="M286.075 16.221H295.352V18.6243H288.761V21.1159H294.557V23.5192H288.761V26.0992H295.44V28.5025H286.075V16.221Z" fill="#375768"/>
<path d="M299.593 16.221H305.213C306.768 16.221 307.987 16.6628 308.8 17.4757C309.489 18.1648 309.86 19.1191 309.86 20.2854V20.3207C309.86 22.2999 308.782 23.5546 307.227 24.1377L310.231 28.5202H307.068L304.435 24.5795H302.315V28.5202H299.611V16.221H299.593ZM305.036 22.1939C306.361 22.1939 307.104 21.487 307.104 20.4621V20.4268C307.104 19.2605 306.291 18.6773 304.983 18.6773H302.297V22.2116H305.036V22.1939Z" fill="#375768"/>
<path d="M313.2 26.7177L314.791 24.8092C315.904 25.7281 317.053 26.2936 318.466 26.2936C319.58 26.2936 320.233 25.8518 320.233 25.1273V25.092C320.233 24.4028 319.809 24.0494 317.759 23.5369C315.285 22.9007 313.695 22.2115 313.695 19.7729V19.7376C313.695 17.511 315.48 16.0266 317.989 16.0266C319.774 16.0266 321.311 16.5921 322.548 17.5817L321.152 19.6139C320.057 18.854 318.996 18.3946 317.954 18.3946C316.911 18.3946 316.381 18.8717 316.381 19.4725V19.5078C316.381 20.3207 316.911 20.5858 319.032 21.1159C321.523 21.7698 322.937 22.6533 322.937 24.8092V24.8446C322.937 27.2832 321.082 28.6616 318.431 28.6616C316.54 28.6792 314.667 28.0431 313.2 26.7177Z" fill="#375768"/>
<path d="M327.037 16.221H329.952L333.186 21.4163L336.42 16.221H339.336V28.5025H336.65V20.4798L333.186 25.7281H333.116L329.687 20.5328V28.5025H327.037V16.221V16.221Z" fill="#375768"/>
<path d="M348.242 16.1326H350.734L356 28.5025H353.173L352.042 25.7458H346.846L345.715 28.5025H342.959L348.242 16.1326ZM351.088 23.3602L349.462 19.3665L347.836 23.3602H351.088V23.3602Z" fill="#375768"/>
</svg>
