<svg width="1062" height="321" viewBox="0 0 2124 643" fill="none" xmlns="http://www.w3.org/2000/svg">
<path d="M1732.65 594.509C1733.44 533.519 1732.35 528.737 1728.45 521.522C1721.87 509.861 1708.78 504.198 1658.86 507.638L1591.75 507.932C1591.98 504.076 1591.98 500.21 1591.75 496.354C1589.95 457.05 1589.19 438.216 1589.32 413.258C1591.52 413.253 1593.71 413.365 1595.9 413.594C1603.63 414.368 1611.41 414.368 1619.14 413.594C1620.71 413.413 1622.3 413.315 1623.88 413.3C1626.94 413.3 1629.92 413.3 1632.52 413.006C1635.12 412.713 1637.85 412.755 1639.27 413.006C1643.28 413.357 1647.32 412.901 1651.15 411.664H1651.86C1660.48 412.994 1669.3 411.209 1676.73 406.63C1684.22 401.105 1690.03 393.613 1693.51 384.986C1696.5 377.138 1697.82 368.75 1697.37 360.363C1697.37 358.434 1697.37 356.546 1697.37 354.617C1697.37 351.764 1697.37 348.912 1697.37 346.227C1697.37 343.543 1697.08 341.236 1696.87 338.719C1696.66 336.202 1696.49 333.979 1696.41 331.504C1696.25 328.042 1695.85 324.595 1695.23 321.185C1695.02 319.801 1694.77 318.459 1694.64 316.991V316.026C1694.48 312.668 1693.9 309.343 1692.92 306.126C1692.92 305.791 1692.92 305.455 1692.71 305.078C1692.09 300.662 1690.53 296.429 1688.15 292.655C1685.77 288.882 1682.63 285.654 1678.91 283.182C1671.87 279.26 1663.9 277.304 1655.84 277.519L1648.71 276.848C1643.59 276.596 1638.48 276.386 1633.36 276.302H1632.48L1606.77 276.931C1605.8 276.932 1604.83 277.016 1603.87 277.183C1601.86 277.183 1597.83 277.183 1594.48 276.931L1586.76 276.848C1586.76 271.73 1586.38 261.285 1586.76 246.52L1587.09 222.862C1587.09 216.654 1587.09 210.782 1587.09 205.329H1588.48C1590.37 205.348 1592.26 205.264 1594.14 205.077C1595.9 205.077 1595.9 205.077 1596.78 205.077C1604.36 207.371 1612.37 207.802 1620.15 206.335H1621.15H1621.53C1629.12 206.68 1636.72 206.414 1644.27 205.538C1653.12 204.49 1661.04 204.825 1682.94 205.538L1691.33 205.916C1695.39 206.629 1699.56 206.491 1703.57 205.509C1707.58 204.527 1711.34 202.723 1714.61 200.211C1718.68 196.853 1721.93 192.609 1724.11 187.804C1726.29 182.999 1727.35 177.759 1727.19 172.484C1727.19 162.962 1726.9 151.092 1725.94 137.207L1723.67 103.65C1723.34 99.1963 1721.74 94.9312 1719.06 91.3596C1716.47 87.7876 1713.51 84.5101 1710.21 81.586C1706.59 78.4629 1702.09 76.5553 1697.33 76.1329C1695.86 76.1329 1694.06 75.8812 1692 75.8393C1685.65 75.7331 1679.34 74.8455 1673.21 73.1967C1658.02 69.002 1636.67 71.351 1614.11 73.9098C1598.33 75.7135 1572.62 75.4618 1558.78 75.3779H1550.98C1539.27 75.3779 1517.42 75.3779 1500.64 74.6648C1491.62 73.937 1482.57 75.677 1474.47 79.6984L1474.05 79.4048C1461.76 65.0171 1445.44 59.6898 1429.5 64.9332C1426.09 65.0663 1422.68 64.8696 1419.31 64.3459C1411.08 63.3836 1402.76 64.8414 1395.35 68.5406L1390.91 69.002C1384.26 70.0238 1377.51 70.1929 1370.82 69.5054C1367.12 69.0515 1363.37 69.3688 1359.8 70.4373C1356.24 71.5059 1352.93 73.3024 1350.09 75.7135C1343.34 81.4182 1336.25 91.6112 1334.41 124.078C1333.73 126.091 1332.35 129.531 1331.43 131.754C1329.41 136.329 1327.75 141.055 1326.48 145.89C1321.07 169.464 1317.25 193.332 1313.56 216.402C1311.96 226.428 1310.37 236.453 1308.65 246.436C1306.49 260.588 1303.48 274.596 1299.63 288.383C1298.63 291.739 1296.95 296.059 1295.19 300.631C1291.2 309.971 1288.14 319.68 1286.04 329.616C1285.08 322.737 1284.15 316.613 1283.32 311.957C1280.63 296.814 1277.99 284.901 1275.68 274.205C1271.64 257.093 1268.54 239.771 1266.41 222.317C1266.16 219.926 1265.87 217.493 1265.57 215.102C1265.54 214.201 1265.44 213.304 1265.28 212.418C1263.47 196.352 1261.88 180.035 1260.45 163.759C1260.45 162.543 1260.45 161.327 1260.24 160.11C1260.25 151.248 1258.05 142.525 1253.83 134.732C1253.24 131.712 1252.61 125.63 1252.19 121.813C1250.72 108.222 1249.8 100.839 1245.77 94.2958C1231.22 70.7218 1208.57 72.0641 1200.01 72.5675H1199.67C1197.56 72.0222 1195.39 71.7682 1193.21 71.8124C1188.81 71.8124 1184.49 71.8124 1179.87 71.4768C1167.82 70.4782 1155.68 71.227 1143.84 73.7L1141.41 74.0356C1130.92 75.4618 1106.55 78.8175 1098.75 94.6314C1079.87 78.1044 1060.33 69.7151 1040.7 69.7151C1016.85 69.2288 993.008 70.6314 969.387 73.9098C916.072 82.9702 891.156 126.972 879.579 162.333C870.617 192.165 865.832 223.094 865.359 254.238C864.688 279.406 864.31 308.769 864.31 342.033C864.31 405.54 866.995 454.03 872.448 488.846C867.742 488.988 863.055 489.521 858.438 490.44C851.506 488.453 844.283 487.673 837.087 488.133C835.535 488.133 833.899 488.133 832.221 488.133C821.618 488.069 811.019 488.559 800.467 489.601C789.773 490.791 778.999 491.114 768.252 490.566C768.252 487.126 768.252 483.393 768.672 479.366C769.091 475.339 769.217 470.138 769.175 465.02V458.854C768.837 449.65 769.033 440.434 769.762 431.253C771.634 408.311 771.817 385.262 770.308 362.293C769.553 345.514 767.833 329.239 766.323 315.187C764.758 294.243 764.758 273.211 766.323 252.267C766.952 238.173 767.623 223.575 767.413 209.23C767.162 188.969 767.707 168.374 768.294 148.407C768.756 131.628 769.259 114.556 769.259 97.316C769.259 53.0203 740.316 44.0857 723.118 42.7853C708.478 41.6108 685.03 45.8894 678.151 47.1897L674.628 47.9867C672.146 47.0869 669.571 46.4678 666.951 46.1411C646.733 41.9464 629.787 59.564 625.34 73.8259C623.994 78.5897 623.302 83.5148 623.285 88.4652C623.206 104.743 624.158 121.009 626.137 137.165C626.766 143.457 627.396 149.749 627.899 155.957C631.793 205.788 631.681 255.852 627.563 305.665C626.198 319.189 626.692 332.837 629.032 346.227C629.798 352.053 629.995 357.939 629.619 363.803C629.619 367.452 629.619 371.144 629.619 374.961C629.954 398.912 630.667 424.458 631.674 450.926C632.178 484.106 632.261 509.19 631.926 525.549C631.422 549.375 631.017 569.076 630.709 584.652C630.18 592.421 631.685 600.194 635.077 607.204C638.468 614.214 643.627 620.219 650.047 624.627C654.177 627.526 659.14 628.998 664.183 628.822C688.134 628.109 712.463 626.389 735.995 624.627C770.979 622.152 807.305 619.594 841.617 620.432C863.555 620.978 882.809 620.432 896.483 606.422C903.973 598.372 908.512 588.022 909.361 577.06C920.682 590.18 934.536 600.88 950.091 608.52C951.937 609.401 953.866 610.239 955.712 610.911C962.39 613.223 969.294 614.826 976.308 615.692C979.915 616.196 983.732 616.573 987.927 616.909C989.898 616.909 992.122 617.119 993.883 617.119C995.645 617.119 996.778 617.119 997.491 617.119C999.813 617.426 1002.16 617.497 1004.5 617.328L1011 616.867C1016.7 616.448 1031.51 615.399 1039.94 615.147C1043.81 617.482 1048.27 618.641 1052.78 618.485C1057.29 618.329 1061.67 616.863 1065.36 614.266C1072.24 613.284 1078.99 611.554 1085.49 609.107C1125.01 593.293 1149.46 553.821 1158.1 491.866C1160.95 470.637 1162.65 449.268 1163.18 427.855C1167.96 459.022 1173.04 490.062 1180.29 529.157C1184.11 550.13 1188.68 570.768 1193.13 590.902V591.28C1194.38 597.842 1196.32 604.254 1198.92 610.407C1199.36 611.953 1199.91 613.467 1200.55 614.937C1210.75 636.582 1234.45 636.288 1245.86 636.12C1247.49 636.12 1249.04 636.12 1250.43 636.12L1316.37 638.428C1321.58 638.797 1326.82 638.258 1331.85 636.834C1337.58 636.092 1342.85 633.339 1346.74 629.068C1350.63 624.796 1352.87 619.283 1353.07 613.511C1353.43 611.247 1353.98 609.016 1354.71 606.842L1355.97 602.27C1370.65 544.635 1380.65 505.303 1385.96 484.274C1385.96 484.022 1385.96 483.728 1386.17 483.477C1395.4 440.649 1401.31 412.167 1404.25 395.976C1410.29 367.332 1418.79 339.263 1429.67 312.083C1430.04 311.125 1430.35 310.144 1430.59 309.146L1440.36 271.395C1440.34 271.227 1440.34 271.058 1440.36 270.891C1441.58 266.99 1446.91 250.925 1448.12 247.485C1449.69 243.633 1450.18 239.43 1449.55 235.32L1448.67 229.532C1451.7 223.366 1454.12 216.917 1455.88 210.278L1456.76 207.468C1460.33 324.918 1460.96 347.528 1460.75 350.422C1460.33 381.001 1461.08 411.958 1461.84 441.908C1462.34 461.035 1462.85 480.834 1463.01 500.213C1463.01 517.579 1463.01 534.777 1462.76 550.927C1462.76 557.806 1462.55 564.727 1462.47 571.607V577.521C1462.47 581.967 1462.47 586.414 1462.47 590.902C1462.48 593.145 1462.62 595.386 1462.89 597.613V599.04C1461.76 607.457 1463.09 616.021 1466.71 623.704C1468.47 627.189 1470.95 630.265 1473.98 632.735C1477 635.206 1480.51 637.016 1484.28 638.05C1488.9 641.119 1494.3 642.794 1499.84 642.874C1501.23 643.132 1502.63 643.258 1504.04 643.251C1507.49 643.219 1510.9 642.428 1514.02 640.935C1517.13 639.442 1519.88 637.283 1522.08 634.61C1524.25 632.056 1525.83 629.046 1526.69 625.802L1526.94 624.795C1527.37 622.839 1527.58 620.841 1527.57 618.838L1536.8 618.461V618.797C1537.15 624.895 1539.89 630.61 1544.43 634.695C1548.97 638.781 1554.94 640.906 1561.04 640.609L1579.16 639.644C1599.73 640.539 1620.32 640.385 1640.87 639.183C1644.14 639.183 1648.04 638.805 1652.36 638.511C1669.62 636.861 1686.98 636.553 1704.29 637.589C1707.94 637.982 1711.62 637.59 1715.1 636.44C1718.58 635.289 1721.78 633.407 1724.47 630.919C1733.32 622.53 1732.86 612.169 1732.86 603.822C1732.69 601.431 1732.4 598.285 1732.65 594.509ZM994.387 353.862C994.009 346.898 993.128 332.007 991.702 308.853C990.36 291.445 989.689 277.267 989.689 266.906C989.303 250.5 991.7 234.147 996.778 218.542C1000.97 206.923 1005.46 201.05 1010.62 201.05C1010.62 201.05 1014.56 201.05 1022.99 208.013C1030.38 214.012 1031.09 217.367 1031.13 217.367C1035.33 259.314 1037.8 324.541 1037.8 411.245C1037.8 445.767 1035.58 462.629 1033.61 470.767C1028.28 493.838 1020.18 493.838 1016.28 493.838C1012.39 493.766 1008.54 493.057 1004.87 491.74C996.484 471.774 993.003 453.988 994.261 438.426C995.861 410.263 995.959 382.035 994.555 353.862H994.387ZM1439.82 257.678C1440.11 258.475 1440.32 259.314 1440.53 260.111C1440.32 259.314 1440.11 258.475 1439.82 257.678ZM1440.74 269.717C1441.12 267.699 1441.24 265.64 1441.08 263.592C1441.24 265.64 1441.13 267.7 1440.74 269.717ZM1440.74 260.614C1440.91 261.474 1441.04 262.342 1441.12 263.215C1441.01 262.341 1440.85 261.473 1440.66 260.614H1440.74ZM1626.4 394.843C1627.8 396.855 1629.41 398.724 1631.18 400.422C1629.29 398.85 1627.64 396.997 1626.31 394.927L1626.4 394.843Z" fill="#fff"></path>
<path d="M1783.07 639.812H1780.05C1777.82 639.812 1772.62 639.812 1758.28 629.199C1753.81 626.044 1749.6 622.537 1745.69 618.712C1742.37 615.122 1739.55 611.101 1737.3 606.758L1735.79 604.157C1735.28 603.372 1734.72 602.616 1734.12 601.892C1731.02 598.33 1728.61 594.218 1727.03 589.769C1725.27 584.328 1724.19 578.694 1723.8 572.991C1723.52 566.907 1724.29 560.821 1726.06 554.995C1727.9 547.093 1732.33 540.034 1738.65 534.945C1743.27 531.369 1748.81 529.173 1754.63 528.611C1754.42 517.118 1754.29 505.582 1754.17 494.047V474.038C1754.17 468.435 1754.45 462.835 1755.01 457.26C1755.3 453.065 1755.59 449.542 1755.68 445.934C1755.68 443.375 1755.93 440.859 1756.05 438.426C1756.18 435.993 1756.26 434.944 1756.31 433.35C1756.44 431.661 1756.44 429.964 1756.31 428.275C1756.08 425.764 1756.01 423.243 1756.1 420.724C1756.27 415.937 1756.88 411.176 1757.94 406.504C1757.99 405.694 1757.99 404.882 1757.94 404.071C1757.94 404.071 1757.94 403.694 1757.94 403.484L1750.94 409.441H1747.33L1745.06 409.734L1741.83 409.189C1738.32 408.475 1735.08 406.756 1732.52 404.239L1729.08 401.303C1726.38 398.892 1724.08 396.059 1722.29 392.914L1722.04 392.494C1721.83 392.117 1721.57 391.823 1721.36 391.487C1719.94 389.466 1718.73 387.301 1717.76 385.028C1717 383.215 1716.48 381.312 1716.21 379.365H1715.79C1713.43 379.326 1711.1 378.815 1708.94 377.865C1706.77 376.914 1704.83 375.542 1703.2 373.828L1695.94 367.62C1692.08 364.165 1688.84 360.08 1686.34 355.539L1685.84 354.784C1685.37 354.029 1684.87 353.274 1684.33 352.477C1682.14 349.497 1680.31 346.274 1678.87 342.871C1677.77 340.198 1677.11 337.366 1676.9 334.482C1676.45 329.367 1677.25 324.22 1679.22 319.48C1681.19 314.74 1684.28 310.547 1688.23 307.259C1691.34 304.746 1694.97 302.969 1698.87 302.061C1702.76 301.153 1706.81 301.137 1710.71 302.015C1712.26 302.439 1713.77 302.972 1715.24 303.609C1716.71 302.942 1718.24 302.409 1719.81 302.015C1723.73 300.989 1727.83 300.882 1731.8 301.705C1735.76 302.527 1739.49 304.256 1742.67 306.755L1743.51 307.426C1742.8 303.445 1742.8 299.369 1743.51 295.388C1743.8 293.423 1744.45 291.53 1745.44 289.809L1745.99 287.166C1746.41 284.901 1746.83 282.594 1748.08 277.98C1748.78 275.322 1749.62 272.704 1750.6 270.136C1751.29 268.341 1751.8 266.488 1752.15 264.599V263.718C1752.86 258.786 1755.39 254.297 1759.24 251.134C1759.24 250.379 1759.58 249.75 1759.75 249.204C1759.88 248.854 1759.96 248.487 1760 248.114L1760.25 235.53C1760.29 231.855 1760.88 228.206 1762.01 224.708C1762.11 224.46 1762.19 224.208 1762.26 223.953V223.575C1758.09 220.434 1754.88 216.192 1752.99 211.327C1752.45 210.109 1751.85 208.919 1751.19 207.761C1748.66 203.598 1746.76 199.091 1745.53 194.38L1744.85 192.367C1743.22 187.207 1738.9 173.742 1747.96 163.969L1749.34 162.543C1748.85 159.061 1749.1 155.514 1750.1 152.14C1751.11 148.869 1752.86 145.876 1755.22 143.394C1757.57 140.913 1760.47 139.011 1763.69 137.836C1763.69 137.836 1763.69 137.501 1763.69 137.333C1761.38 133.196 1760.49 128.42 1761.14 123.73C1761.8 119.039 1763.96 114.69 1767.31 111.341C1770.66 107.993 1775.01 105.827 1779.7 105.173C1784.39 104.52 1789.17 105.413 1793.3 107.718C1798.13 105.675 1803.56 105.54 1808.49 107.341C1809 101.643 1811.51 96.31 1815.58 92.2821C1802.99 85.0672 1802.36 74.8323 1802.99 70.3859C1803.62 65.1006 1806.73 56.0821 1820.44 51.3841C1811.8 39.5551 1815.53 30.6205 1818.97 25.9644C1825.64 17.5751 1836.76 16.3586 1843.76 16.6942C1844.56 12.1829 1846.92 8.09718 1850.43 5.15888C1859.12 -2.34956 1870.11 0.293074 1876.02 1.71926C1880.53 2.75056 1884.95 4.15357 1889.24 5.91392C1892.93 7.46595 1896.79 9.14382 1900.9 11.2831C1903.87 12.7932 1906.64 14.513 1909.29 16.1489L1911.55 17.4912C1912.36 17.8988 1913.18 18.2629 1914.03 18.5818C1917.09 19.7434 1920.01 21.2343 1922.75 23.0282C1925.68 25.1144 1928.37 27.5202 1930.76 30.201C1935.15 27.6062 1940.23 26.393 1945.32 26.7195C1947.43 26.8486 1949.51 27.2432 1951.53 27.894C1954.15 24.557 1957.5 21.8679 1961.32 20.0349C1965.15 18.2018 1969.35 17.274 1973.59 17.3234C1977.66 17.3515 1981.7 18.0458 1985.54 19.3788C1986.84 19.8035 1988.15 20.1536 1989.49 20.4275C1990.88 20.509 1992.29 20.509 1993.68 20.4275C1996.36 20.2817 1999.05 20.2817 2001.74 20.4275C2003.46 20.4275 2005.51 20.763 2007.82 21.0567C2010.13 21.3503 2012.01 21.56 2014.4 21.7278C2015.62 21.7278 2017.05 21.7278 2018.6 21.7278C2021.12 21.7278 2024.01 21.7278 2026.99 21.9795L2031.73 22.2731C2034.37 22.2731 2037.14 22.6087 2039.87 22.9023L2042.93 23.154C2046.2 23.4896 2049.51 23.7832 2052.74 24.1607C2056.36 24.6593 2059.89 25.6033 2063.27 26.9711C2064.08 27.2942 2064.91 27.5743 2065.75 27.8101C2066.99 27.8864 2068.24 27.8864 2069.48 27.8101C2072.78 27.7142 2076.09 27.9815 2079.34 28.6071C2084.19 29.7539 2088.84 31.6203 2093.14 34.144C2093.72 34.4376 2094.23 34.7313 2094.73 34.941L2095.61 35.3605C2101.43 37.6395 2106.58 41.347 2110.59 46.1408C2114.32 50.7778 2117.24 56.0106 2119.23 61.6191C2120.45 65.6957 2120.93 69.957 2120.65 74.203C2120.61 74.9575 2120.61 75.7137 2120.65 76.4682C2120.65 77.7685 2121.07 79.1108 2121.33 80.4112C2121.93 83.4005 2122.34 86.4275 2122.54 89.4716C2122.54 90.1428 2122.54 90.9398 2122.54 91.8626C2122.54 94.4213 2123 97.9868 2123.05 102.727C2123.03 105.442 2122.78 108.151 2122.29 110.822C2121.98 112.398 2121.81 113.998 2121.79 115.604C2121.79 117.114 2121.79 118.625 2122 120.219C2122 122.735 2122.29 125.462 2122.29 128.356C2122.29 129.992 2122.29 131.712 2122.29 133.474C2122.29 135.907 2122.29 138.423 2122.29 141.108C2122.29 141.695 2122.54 143.247 2122.71 144.464C2123.26 147.552 2123.56 150.681 2123.59 153.818C2123.53 157.194 2123.03 160.549 2122.12 163.801C2121.88 164.74 2121.68 165.693 2121.54 166.653C2121.63 167.682 2121.79 168.704 2122 169.716C2122.6 172.87 2122.94 176.069 2123 179.279C2123 181.251 2123 183.264 2123 185.278C2123 187.291 2123 189.472 2123 191.989C2122.97 194.918 2122.67 197.838 2122.12 200.714C2121.88 202.031 2121.73 203.362 2121.66 204.699C2121.66 206.629 2121.66 208.516 2121.66 210.488C2121.66 212.459 2121.66 215.06 2121.66 217.409C2121.77 218.438 2121.94 219.46 2122.16 220.471C2122.83 223.66 2123.19 226.904 2123.26 230.161C2123.16 233.684 2122.61 237.181 2121.62 240.563C2121.62 241.277 2121.2 242.199 2121.07 242.787C2120.95 243.374 2121.41 244.045 2121.58 244.674C2122.67 248.21 2123.26 251.881 2123.34 255.58C2123.3 258.231 2123.12 260.878 2122.79 263.508C2122.79 265.27 2122.46 266.948 2122.46 268.29C2122.46 271.059 2122.25 273.617 2122.04 275.882C2121.83 278.148 2122.5 279.406 2122.5 281.042C2122.5 282.678 2122.5 284.943 2122.5 286.956C2122.5 288.97 2122.5 291.487 2122.5 293.794C2122.5 296.101 2122.5 297.359 2122.5 299.163C2122.5 300.967 2122.75 304.029 2122.75 306.504C2122.75 308.978 2122.75 311.16 2122.75 313.509C2122.75 315.858 2122.54 317.284 2122.54 319.213C2122.5 322.122 2122.25 325.024 2121.79 327.896C2121.54 329.282 2121.38 330.684 2121.33 332.091C2121.33 334.272 2121.33 336.286 2121.33 338.551C2121.33 340.816 2121.33 342.745 2121.33 344.885C2121.33 344.885 2121.7 346.101 2121.95 346.982C2123.06 350.458 2123.67 354.073 2123.76 357.72C2123.69 361.065 2123.3 364.394 2122.58 367.662C2122.37 368.668 2122.12 370.053 2122.08 370.556C2122.08 372.402 2122.08 374.247 2122.37 376.051C2122.37 378.568 2122.71 380.959 2122.71 383.308C2122.71 385.657 2122.71 387.209 2123 389.055C2123.3 390.9 2123.3 393.836 2123.3 396.102C2123.3 398.367 2123.3 400.548 2123.3 402.603C2123.3 404.659 2123.3 406.798 2123.3 408.937C2123.26 412.261 2122.92 415.574 2122.29 418.837C2122.29 419.885 2121.87 421.311 2121.87 421.815C2121.87 425.254 2121.62 428.317 2121.41 430.791C2121.41 432.134 2121.2 433.392 2121.2 434.525C2121.18 436.777 2121.39 439.027 2121.83 441.236C2122.27 443.347 2122.49 445.497 2122.5 447.654V448.493C2122.87 452.382 2122.99 456.292 2122.84 460.196C2122.84 461.79 2122.84 463.594 2122.58 465.691C2122.33 467.788 2122.29 470.137 2122.29 472.948C2122.29 475.758 2122.08 477.604 2121.91 479.785C2121.75 481.966 2121.54 483.98 2121.54 485.742C2121.62 486.954 2121.79 488.16 2122.04 489.349C2122.61 492.111 2122.91 494.919 2122.96 497.738C2122.87 501.413 2122.32 505.063 2121.33 508.602C2121.33 509.106 2121.03 509.567 2120.95 510.029C2121.1 510.947 2121.29 511.857 2121.54 512.755C2122.36 515.663 2122.8 518.667 2122.84 521.69C2122.94 525.795 2122.61 529.899 2121.87 533.938C2121.87 535.071 2121.87 536.413 2121.87 538.133C2121.74 543.175 2120.97 548.179 2119.56 553.024L2119.1 554.995C2117.69 560.445 2115.68 565.721 2113.1 570.725C2110.64 575.645 2107.66 580.286 2104.21 584.568L2103.79 585.113C2100.7 589.256 2097.2 593.078 2093.35 596.523C2089.67 599.536 2085.69 602.165 2081.48 604.367L2078.29 606.17L2075.94 606.716L2072.71 607.806C2061.47 612.041 2049.75 614.86 2037.81 616.196C2023.17 616.271 2008.54 615.543 1993.98 614.014C1984.96 620.516 1977.7 621.355 1972.21 619.929C1970.88 620.359 1969.58 620.863 1968.3 621.439L1961.59 624.501L1944.02 617.118C1941.58 615.938 1939.05 614.942 1936.47 614.14L1933.03 614.392C1927.36 615.048 1921.64 615.16 1915.95 614.727L1912.85 614.518L1881.27 619.425L1871.87 617.118L1862.56 617.873H1862.43C1859.83 617.873 1857.52 617.454 1855.47 617.202C1854.08 616.996 1852.68 616.87 1851.27 616.825H1847.54C1839.85 617.581 1832.1 616.248 1825.1 612.966C1823.64 612.301 1822.23 611.515 1820.9 610.617C1819.1 613.656 1816.95 616.472 1814.49 619.006C1810.62 622.846 1806.48 626.406 1802.11 629.66C1797.11 633.359 1791.65 636.404 1785.88 638.721L1783.07 639.812Z" fill="#fff"></path>
<path d="M663.302 605.75C722.53 603.946 783.101 596.06 841.994 597.361C876.307 598.158 887.884 594.844 886.709 560.322L885.703 531.714C885.409 522.57 882.766 513.635 874.251 512.167C869.385 511.286 856.55 514.894 854.998 514.097C847.154 509.902 840.316 511.538 831.55 511.37C806.382 510.867 784.276 516.488 759.611 512.964C755.721 512.829 751.999 511.347 749.083 508.77C747.24 506.423 746.105 503.6 745.811 500.632C743.797 488.719 745.811 477.268 745.811 465.313C745.349 453.202 745.559 441.075 746.44 428.987C748.187 407.173 748.342 385.261 746.901 363.424C746.188 348.114 744.678 332.929 743 317.661C739.267 282.551 744.343 245.177 743.797 209.774C743.294 172.022 745.643 135.151 745.643 97.5247C745.643 76.2577 737.673 67.2392 720.475 65.855C707.472 65.8919 694.509 67.2979 681.8 70.0496C677.757 71.4267 673.455 71.8712 669.216 71.35C665.693 70.3433 665.021 69.2107 662.127 68.5815C655.835 67.2812 648.788 75.1671 647.152 80.4105C646.426 83.1468 646.073 85.9688 646.104 88.7998C645.558 110.402 648.956 132.382 650.634 153.901C654.654 204.959 654.542 256.259 650.298 307.3C649.114 318.835 649.509 330.478 651.473 341.906C653.402 352.728 652.144 362.879 652.312 374.372C652.647 397.583 653.332 422.751 654.367 449.876C654.87 483.825 654.954 508.993 654.619 525.38C654.115 549.458 653.71 569.312 653.402 584.945C653.006 588.891 653.7 592.871 655.409 596.45C657.117 600.03 659.775 603.072 663.092 605.247L663.302 605.75ZM1051.69 595.641C1050.76 594.886 1049.97 594.047 1049.04 593.292C1058.47 592.738 1067.78 590.932 1076.73 587.923C1115.78 572.319 1129.75 527.31 1135.12 488.887C1145.56 414.054 1138.22 335.11 1135.91 259.984C1133.82 191.499 1116.72 142.561 1084.61 113.171C1069.6 99.664 1054.93 92.9245 1040.61 92.9525C1018.01 92.5924 995.418 93.9949 973.036 97.1472C939.199 102.936 915.303 127.195 901.349 169.925C893.024 197.658 888.605 226.416 888.219 255.37C887.52 280.734 887.171 309.789 887.171 342.535C887.171 429.225 892.232 487.726 902.355 518.04C913.541 551.178 932.739 574.472 959.948 587.923C961.123 588.468 962.297 588.971 963.472 589.391C968.6 591.151 973.901 592.36 979.286 592.998C982.683 593.46 986.081 593.795 989.479 594.089C992.876 594.383 996.903 594.089 1000.55 594.592C997.113 595.305 1050.89 590.398 1049.04 593.292L1051.69 595.641ZM1016.53 516.907C1006.48 516.675 996.61 514.104 987.717 509.399C975.161 482.413 969.75 458.168 971.484 436.663C972.911 409.543 972.911 382.366 971.484 355.245C971.148 348.324 970.267 333.474 968.841 310.781C967.443 292.688 966.758 278.063 966.786 266.905C966.375 247.898 969.213 228.959 975.175 210.906C982.851 188.968 994.68 177.978 1010.79 177.978C1018.8 177.978 1027.78 182.173 1037.72 190.101C1047.66 198.029 1053.2 206.46 1054.24 214.933C1058.75 257.579 1061.08 322.96 1061.25 411.076C1061.25 440.732 1059.66 462.251 1056.55 475.758C1050.26 503.079 1036.99 516.739 1016.74 516.739L1016.53 516.907ZM1559.99 617.411L1579.58 616.363C1599.74 617.323 1619.93 617.197 1640.07 615.985C1654.37 615.356 1680.76 612.504 1706.68 614.894C1711.55 615.356 1709.53 609.693 1709.79 594.341C1710.25 560.783 1710.21 536.203 1708.44 533.057C1706.68 529.911 1688.77 528.862 1659.79 530.792L1567.8 531.253C1565.99 525.003 1569.52 510.28 1568.97 497.696C1566.96 454.826 1566.16 434.776 1566.58 402.854C1567.8 396.269 1570.27 390.858 1575.72 390.941C1583.39 390.36 1591.09 390.36 1598.75 390.941C1607.33 391.307 1615.92 391.096 1624.47 390.312C1630.17 390.312 1636.21 389.515 1641.79 389.977C1643.71 389.863 1645.59 389.334 1647.29 388.425L1646.4 385.698C1646.4 385.698 1646.15 383.014 1646.11 383.097C1648.34 385.223 1650.82 387.069 1653.49 388.592C1657.02 389.287 1660.67 388.922 1663.98 387.544C1667.69 384.589 1670.58 380.733 1672.37 376.344C1674.14 371.488 1674.88 366.317 1674.55 361.159C1674.55 356.461 1674.55 351.805 1674.3 347.065C1674.05 342.325 1673.54 337.166 1673.38 332.216C1673.21 327.266 1672.03 323.365 1671.66 318.877C1671.61 316.746 1671.29 314.631 1670.69 312.585C1669.6 308.894 1669.81 304.699 1666.5 302.686C1662.43 301.009 1658.05 300.25 1653.66 300.462C1646.87 300.169 1640.03 299.749 1633.19 299.666L1607.52 300.295C1606.01 301.092 1589.19 299.791 1573.08 299.791C1564.19 299.791 1565.87 296.813 1564.19 283.013C1563.85 281.377 1563.39 267.283 1563.69 246.267L1564.02 222.61C1564.28 210.866 1563.89 199.117 1562.85 187.416C1568.05 183.865 1576.69 182.173 1588.77 182.341C1593.76 181.584 1598.85 181.913 1603.7 183.306C1611 185.613 1616.75 183.306 1620.82 183.306C1627.7 183.652 1634.6 183.455 1641.46 182.718C1653.58 181.25 1663.64 181.963 1693.72 183.18C1703.33 185.529 1703.83 174.455 1703.87 172.399C1703.87 163.507 1703.48 152.391 1702.7 139.052L1700.39 105.495C1698.69 103.24 1696.76 101.16 1694.64 99.2864C1685.1 99.2316 1675.61 97.9917 1666.37 95.5951C1655.72 92.6169 1636.67 94.7143 1616.04 97.0633C1595.4 99.4123 1562.22 98.5734 1550.35 98.5734C1538.48 98.5734 1516.29 98.5734 1498.88 97.8183C1481.47 97.0633 1478.79 106.837 1478.79 106.837C1477.79 108.822 1477.22 110.994 1477.11 113.213L1479.71 204.866C1482.51 296.645 1483.9 345.178 1483.9 350.463C1483.23 400.17 1485.71 450.044 1486.17 499.751C1486.17 516.823 1486.17 533.896 1485.92 550.926L1485.54 577.562C1485.54 582.008 1485.54 586.413 1485.54 590.859C1485.93 594.298 1486.07 597.761 1485.96 601.22C1485.31 605.505 1485.95 609.887 1487.8 613.804C1488.43 615.146 1494.18 616.53 1495.4 617.369C1499.59 620.431 1499.59 619.383 1504.46 619.425C1503.12 621.186 1505.09 616.824 1504.46 619.425L1559.99 617.411ZM1457.94 96.476C1455.55 93.372 1447.37 83.137 1435.87 87.5414C1429.31 88.7992 1422.56 88.7992 1415.99 87.5414C1409.11 86.5347 1402.82 91.7361 1399.21 91.7361C1388.84 93.2183 1378.33 93.5559 1367.88 92.7428C1358.27 91.5263 1357.27 127.475 1357.18 127.894C1355.88 134.606 1350.22 145.386 1348.79 151.426C1341.24 184.186 1336.92 217.576 1331.22 250.672C1328.9 265.812 1325.68 280.799 1321.57 295.555C1317.63 308.726 1307.9 327.35 1307.9 340.983C1305.97 347.485 1303.99 353.944 1302.07 360.404C1294.37 384.182 1289.1 408.678 1286.34 433.517C1286.63 437.389 1286.54 441.281 1286.08 445.136C1284.95 449.331 1283.19 451.345 1284.28 455.791C1278.74 432.972 1275.89 410.866 1271.07 388.089C1269.64 381.294 1268.09 370.513 1266.49 359.104L1266.24 359.649L1265.61 354.322L1265.82 354.07C1263.89 339.725 1261.96 325.085 1260.41 316.528C1253.74 278.776 1247.83 263.298 1243.34 225.294C1241.05 205.579 1239.03 185.822 1237.3 166.024C1236.67 158.515 1237.3 151.468 1233.1 145.596C1228.91 139.723 1229.12 111.745 1225.97 106.711C1215.32 89.387 1198.71 98.6153 1193.47 95.1757C1177.57 95.4693 1164.1 92.7428 1148.54 96.518C1144.6 97.4827 1118.3 99.2864 1119.18 107.005C1123.04 139.136 1144.05 223.281 1144.35 209.312L1154.58 251.259C1161.8 280.915 1162.55 296.687 1164.1 295.009C1166.2 300.421 1171.11 333.936 1172.95 338.844C1184.03 410.824 1189.73 453.568 1202.86 525.213C1206.68 545.766 1211.25 566.153 1215.7 586.539C1216.66 591.949 1218.25 597.229 1220.44 602.269C1220.44 602.269 1221.28 604.995 1221.4 605.205C1226.06 615.314 1241.41 612.923 1251.27 613.259L1317.17 615.608C1320.07 615.88 1323.01 615.596 1325.81 614.769C1328.53 613.72 1330 615.146 1330 612.21C1330.71 606.965 1331.9 601.797 1333.57 596.774C1348.25 539.195 1358.25 499.877 1363.56 478.82C1372.62 436.873 1378.62 407.832 1381.55 391.696C1387.88 361.617 1396.8 332.143 1408.23 303.608L1417.96 265.605C1417.54 266.024 1426.77 238.381 1426.77 238.759L1424.42 223.407C1431.39 217.995 1432.23 205.244 1441.2 181.879C1445.47 171.771 1450.42 161.961 1456.01 152.517C1457.44 150.797 1469.22 120.931 1467.59 118.959C1468.3 113.381 1468.51 104.74 1466.03 102.894L1457.94 96.476ZM1242.37 216.527C1242.4 216.29 1242.4 216.051 1242.37 215.814L1242.63 216.485L1242.37 216.527Z" fill="#633510"></path>
<path d="M626.053 533.603C624.887 531.244 623.029 529.298 620.726 528.024L616.112 525.591C611.88 523.513 607.922 520.921 604.325 517.873C602.819 516.621 601.08 515.68 599.208 515.104H600.256C610.533 514.517 619.468 514.014 621.943 505.079C626.125 491.975 627.804 478.2 626.892 464.475C625.471 449.215 622.52 434.136 618.083 419.466C614.121 407.455 607.931 396.299 599.837 386.58C593.671 379.197 583.981 368.92 571.103 364.516L570.39 364.264C566.699 363.258 558.687 361.957 556.758 361.622C538.72 357.805 527.814 363.342 515.482 371.018C503.15 378.694 493.376 391.739 485.448 412.084C481.254 422.193 480.792 437.252 480.121 451.849C479.785 458.686 479.492 465.146 478.905 470.431C478.905 457.847 478.905 444.34 478.905 430.288C478.905 398.367 478.905 379.952 478.905 365.984C478.905 348.702 478.905 338.635 478.905 318.836C478.892 317.109 478.667 315.39 478.233 313.719C478.307 311.534 477.938 309.358 477.15 307.319C476.362 305.281 475.171 303.422 473.647 301.856C472.123 300.289 470.299 299.046 468.283 298.201C466.267 297.356 464.102 296.927 461.916 296.94C459.357 296.94 455.414 296.94 449.332 297.359C444.215 297.611 439.978 297.653 436.748 297.569C433.728 297.431 430.725 297.038 427.772 296.395C425.322 295.836 422.772 295.892 420.35 296.558C417.927 297.224 415.707 298.479 413.887 300.212C411.193 302.786 409.386 306.15 408.728 309.818C408.125 311.804 407.815 313.867 407.805 315.942C407.805 325.548 408.224 344.088 409.021 371.102C409.021 376.848 409.399 379.491 409.483 380.665C408.141 427.939 407.386 488.72 407.218 561.707C403.401 552.94 389.894 550.969 380.288 550.717C380.288 496.438 380.624 458.435 380.875 440.439C382.595 440.439 384.063 440.104 385.322 439.894H385.867C389.205 439.265 392.262 437.603 394.603 435.141C396.944 432.679 398.452 429.543 398.912 426.178C400.378 423.415 401.128 420.328 401.094 417.201C401.094 413.677 401.094 408.141 401.094 400.8C401.094 397.192 401.094 395.892 401.094 395.011C401.094 394.13 401.094 393.459 401.094 391.278C401.094 379.365 395.221 370.808 386.622 369.717C384.828 369.096 382.941 368.784 381.043 368.795H379.743H379.197V323.66C379.393 321.494 379.158 319.31 378.506 317.235C377.853 315.16 376.797 313.234 375.397 311.569C373.997 309.904 372.282 308.533 370.35 307.534C368.417 306.535 366.306 305.928 364.139 305.749C363.754 305.68 363.375 305.582 363.006 305.455C359.195 304.207 355.152 303.834 351.177 304.365H346.815C342.473 304.153 338.129 304.707 333.979 306C332.562 305.986 331.15 306.169 329.784 306.546H329.071L327.729 306.881C323.574 307.884 319.958 310.434 317.62 314.012C315.182 317.726 314.169 322.195 314.767 326.596C314.847 327.743 315.03 328.88 315.313 329.994C315.313 337.377 315.313 356.966 315.313 368.879C314.012 368.879 312.754 368.879 311.537 368.585H310.279C307.921 368.517 305.577 368.979 303.421 369.938C301.265 370.896 299.351 372.326 297.821 374.122C296.915 375.183 296.192 376.388 295.682 377.687C293.75 376.629 291.624 375.972 289.432 375.758C287.667 375.137 285.808 374.824 283.937 374.835H282.636H282.091V328.526C281.595 323.794 279.839 319.283 277.006 315.461C274.173 311.639 270.366 308.647 265.983 306.797C264.237 306.306 262.404 306.206 260.614 306.504C253.896 306.835 247.161 306.455 240.522 305.371H240.06C237.466 304.657 234.727 304.657 232.132 305.371H231.545L230.245 305.665C226.045 306.669 222.395 309.253 220.052 312.88C217.707 316.523 216.698 320.867 217.199 325.17C217.292 326.318 217.489 327.455 217.787 328.568C217.787 338.635 217.787 368.459 217.493 375.674C216.272 375.642 215.054 375.544 213.844 375.38H212.585C210.238 375.399 207.923 375.935 205.806 376.95C203.689 377.965 201.822 379.434 200.337 381.253C199.158 382.653 198.197 384.223 197.485 385.909C196.633 384.548 195.571 383.331 194.339 382.301C193.157 380.414 191.583 378.804 189.722 377.58C187.862 376.357 185.759 375.549 183.558 375.212C196.142 372.696 198.198 364.558 198.198 359.357C198.086 355.915 197.594 352.497 196.729 349.164C196.115 346.887 195.736 344.554 195.597 342.2C195.584 339.151 195.331 336.108 194.842 333.098C194.496 331.146 194.328 329.166 194.339 327.184C194.415 321.354 192.797 315.627 189.682 310.699L185.865 305.204L179.196 305.707C172.442 306.21 161.872 306.923 159.481 306.923C152.518 306.923 131.335 306.923 131.083 323.282L129.657 362.922L132.299 366.32C134.491 369.087 137.25 371.354 140.39 372.967C143.529 374.58 146.978 375.503 150.504 375.674H152.392L151.805 376.009C149.426 376.139 147.112 376.828 145.051 378.023C140.77 379.21 137.135 382.046 134.942 385.909C132.906 389.376 132.024 393.401 132.425 397.402C133.893 423.954 134.565 454.282 134.565 466.446C134.565 479.576 134.187 499.542 133.474 525.885C133.222 535.281 133.013 543.964 132.845 551.85C132.692 549.966 132.142 548.136 131.231 546.481C130.32 544.825 129.069 543.381 127.559 542.244C125.56 538.694 122.606 535.775 119.033 533.818C115.459 531.861 111.409 530.943 107.341 531.17H105.537C101.133 531.17 100.336 531.17 89.388 530.415C82.8444 529.996 77.0557 529.66 72.148 529.45C72.148 482.806 71.1832 439.349 69.6731 400.213C69.57 398.704 69.57 397.191 69.6731 395.682C69.6731 392.536 70.1345 386.035 70.554 369.382C71.4517 350.037 70.4683 330.65 67.6177 311.495V310.657C66.6446 306.521 64.2555 302.855 60.8643 300.296C58.8722 299.008 56.6261 298.164 54.2787 297.821C51.8701 296.205 49.0412 295.33 46.141 295.304H45.2602C42.9175 294.865 40.5138 294.865 38.1712 295.304C36.5353 295.304 34.7316 294.927 32.7601 294.759C30.131 294.169 27.4174 294.055 24.7483 294.423C22.2908 294.015 19.8119 293.749 17.3237 293.626C15.0642 293.646 12.8337 294.138 10.7752 295.07C8.71661 296.002 6.87524 297.353 5.36891 299.037C2.29608 302.32 0.612538 306.664 0.670888 311.16C0.66094 312.982 0.872218 314.799 1.30009 316.571C1.30009 325.506 1.71955 342.494 2.51654 367.201C2.81017 375.17 3.0199 379.785 3.18769 382.721C3.4072 386.577 3.39319 390.443 3.14574 394.298C1.46787 445.641 0.712835 503.359 0.670888 581.17C-0.0568963 584.93 -0.184317 588.781 0.293368 592.58C0.43786 597.331 2.11536 601.907 5.07528 605.625C7.3081 607.734 9.94787 609.365 12.8329 610.418C15.718 611.471 18.7877 611.924 21.8539 611.75C28.6493 611.75 31.5017 611.75 36.6611 611.246L41.3172 610.911H41.9464C54.1948 611.204 75.5037 612.421 105.16 614.602C105.774 614.645 106.391 614.645 107.006 614.602C108.971 614.592 110.923 614.281 112.794 613.679C113.948 613.958 115.131 614.099 116.318 614.099C118.6 614.103 120.857 613.63 122.945 612.71C125.034 611.79 126.906 610.443 128.443 608.756C129.98 607.07 131.146 605.08 131.868 602.915C132.59 600.751 132.852 598.459 132.635 596.187V595.348C133.176 597.249 133.996 599.058 135.068 600.718C136.239 602.603 137.773 604.238 139.58 605.527C141.387 606.816 143.432 607.733 145.597 608.226H146.729C150.085 608.604 157.551 609.149 183.852 609.149C187.524 609.156 191.09 607.914 193.963 605.627C196.837 603.34 198.848 600.145 199.666 596.565C200.611 594.102 201.095 591.485 201.092 588.847C201.092 574.795 200.84 554.912 200.337 528.024C199.834 502.52 199.498 482.302 199.414 467.831C199.414 460.364 199.414 448.283 199.414 434.861C201.296 437.713 204.003 439.923 207.174 441.195L208.097 441.782L210.194 442.243L213.298 442.914C213.298 455.498 212.795 469.131 212.459 483.603C211.117 538.133 210.572 574.878 214.725 590.315C218.919 613.637 235.95 617.035 243.081 617.412H244.003H244.926H246.688C247.862 617.412 250.463 617.412 257.217 617.412C261.543 618.24 265.94 618.648 270.346 618.629C279.873 619.015 289.314 616.688 297.569 611.917C302.066 608.894 305.519 604.555 307.456 599.494C309.393 594.434 309.72 588.899 308.391 583.645C309.021 579.912 310.531 569.341 296.437 561.791C294.107 560.642 291.565 559.985 288.97 559.862C287.218 559.738 285.478 559.471 283.769 559.065L282.762 558.855C282.762 506.757 282.762 466.572 283.391 443.124C285.153 443.124 286.663 442.747 287.921 442.579H288.467C290.731 442.132 292.874 441.21 294.755 439.872C296.635 438.534 298.209 436.811 299.373 434.819C300.644 436.207 302.186 437.32 303.903 438.09L304.868 438.762L307.133 439.265L310.195 439.936C310.195 450.003 309.608 461.706 309.188 473.871C306.168 561.707 307.343 594.635 320.598 604.661C327.1 612.085 339.012 612.295 356.043 612.295C357.603 612.458 359.174 612.5 360.741 612.421C362.811 612.966 364.935 613.276 367.075 613.344C368.105 613.357 369.134 613.245 370.137 613.008H371.437C379.365 613.008 394.088 612.714 402.268 604.073C404.54 601.696 406.359 598.924 407.637 595.894C408.319 599.17 410.015 602.149 412.485 604.407C414.954 606.666 418.072 608.09 421.396 608.478C423.403 609.368 425.576 609.825 427.772 609.82C431.085 609.82 436.161 609.82 442.872 609.401C449.584 608.981 453.946 609.023 457.008 609.023H458.435C467.159 611.288 478.569 605.919 478.569 591.573C478.569 570.138 478.569 542.286 478.569 508.183C478.946 510.826 479.408 513.427 479.827 515.943C480.247 518.46 480.54 520.138 480.834 522.193V522.445C481.379 525.423 481.673 528.527 481.967 531.841C482.422 540.461 484.234 548.954 487.336 557.009V557.261C492.365 568.7 498.714 579.511 506.254 589.476C523.578 612.169 536.707 617.622 554.45 617.622C556.296 617.622 558.184 617.622 560.113 617.622C585.575 616.28 595.978 604.828 611.708 587.462L613.385 585.575C621.775 577.647 631.297 561.036 631.213 549.249C631.235 548.802 631.235 548.354 631.213 547.907C631.362 545.298 630.981 542.686 630.095 540.228C629.208 537.77 627.833 535.516 626.053 533.603ZM552.521 427.855C554.517 427.822 556.476 428.392 558.142 429.491C559.912 433.636 561.139 437.993 561.791 442.453C561.497 445.24 561.357 448.04 561.372 450.842V451.513H555.164C551.3 451.589 547.435 451.449 543.586 451.094C544.761 436.538 548.704 428.275 552.521 427.855ZM575.801 526.724L575.508 527.479C572.927 534.846 569.492 541.885 565.273 548.452C563.626 549.343 562.03 550.323 560.491 551.388L559.987 551.766C557.042 551.052 554.351 549.539 552.212 547.392C550.073 545.245 548.568 542.549 547.865 539.601C546.482 531.919 545.585 524.158 545.18 516.363V515.943H548.2H554.954C559.987 515.943 563.008 515.943 573.075 515.943H578.863L588.259 515.65C582.847 517.573 578.385 521.51 575.801 526.64V526.724Z" fill="#fff"></path>
<path d="M174.917 364.137C178.776 364.137 186.494 364.137 186.494 359.23C186.494 354.322 183.894 348.198 183.894 342.073C183.894 335.949 182.635 333.684 182.635 327.35C182.72 323.903 181.834 320.502 180.077 317.535C180.077 317.535 163.592 318.793 159.397 318.793C155.202 318.793 142.618 318.793 142.618 323.701L141.318 359.23C142.414 360.602 143.773 361.742 145.314 362.584C146.855 363.427 148.548 363.955 150.294 364.137H174.917ZM188.76 528.191C188.228 502.491 187.921 482.371 187.837 467.829C187.837 453.316 187.837 422.275 188.592 396.52C188.592 393.206 187.753 391.109 185.53 390.312C184.691 387.795 183.223 386.579 181.335 386.579C176.176 386.579 170.219 386.579 163.466 386.998C161.83 385.572 160.068 388.173 158.222 386.159C157.356 386.468 156.608 387.04 156.083 387.795H152.979C152.368 387.793 151.767 387.946 151.231 388.239C150.696 388.533 150.244 388.957 149.917 389.473H148.365C147.706 389.64 147.091 389.947 146.562 390.374C146.033 390.802 145.604 391.339 145.303 391.948C144.475 393.319 144.149 394.935 144.38 396.52C145.806 422.779 146.519 453.4 146.519 466.529C146.519 479.658 146.184 499.583 145.429 526.261C144.674 552.939 144.38 573.074 144.38 586.622V587.881C144.142 588.554 144.029 589.264 144.044 589.978C144.043 591.47 144.48 592.928 145.303 594.173C145.636 594.74 146.078 595.236 146.604 595.632C147.129 596.028 147.728 596.316 148.365 596.48C153.105 597.025 165.144 597.319 184.103 597.319C186.536 597.319 188.298 595.767 188.718 592.747C189.308 591.426 189.622 589.998 189.64 588.552C189.64 573.871 189.347 553.694 188.885 527.981" fill="#633510"></path>
<path d="M615.064 538.259C608.512 535.24 602.367 531.407 596.775 526.849C594.091 524.626 588.092 527.856 586.498 531.463C586.498 531.463 577.605 555.415 571.481 558.435C565.357 561.455 563.847 565.272 556.884 563.049C552.07 561.839 547.666 559.366 544.126 555.886C540.587 552.405 538.04 548.043 536.749 543.25C533.981 534.861 533.226 505.498 532.009 504.492C541.447 505.331 537.672 504.156 548.327 504.492C558.981 504.827 559.359 504.911 572.698 504.492C586.037 504.072 610.156 503.653 610.45 501.975C614.226 490.229 615.763 477.878 614.98 465.565C613.696 451.244 610.955 437.091 606.8 423.325C603.312 412.728 597.862 402.881 590.735 394.298C584.671 386.135 576.531 379.748 567.161 375.799C564.099 374.96 556.129 373.618 554.577 373.367C540.609 370.304 532.765 374.289 521.649 381.169C510.533 388.048 502.857 399.709 496.481 416.572C491.153 430.162 492.789 459.441 490.105 476.01C487.42 492.579 490.776 507.386 492.831 520.683C494.719 531.17 493.88 541.656 498.62 552.856C503.263 563.47 509.148 573.495 516.154 582.722C532.932 604.576 542.874 607.051 560.114 606.128C581.59 604.996 588.763 596.145 605.584 577.605C618.168 565.818 621.817 546.648 619.762 548.536C620.978 547.99 619.762 543.041 617.581 541.782C616.112 540.901 616.322 539.056 615.315 538.468L615.064 538.259ZM551.011 416.152C555.955 415.8 560.878 417.082 565.021 419.801C571.02 423.199 573.621 442.327 573.621 442.327C572.74 442.327 573.621 463.3 572.11 463.3C568.587 463.3 562.421 463.3 555.332 463.3C547.352 463.166 539.384 462.606 531.464 461.622C531.464 446.857 533.562 418.291 550.969 416.026" fill="#633510"></path>
<path d="M121.099 558.897V552.647C121.519 551.85 117.115 549.711 117.115 548.452C117.115 544.258 110.445 542.915 107.341 542.915C101.096 542.976 94.8523 542.724 88.6328 542.16C76.0208 541.321 66.6247 540.902 60.4446 540.902C60.4446 489.727 59.6197 442.985 57.9698 400.674C57.76 395.431 57.9698 399.835 58.8926 369.131C59.7644 350.558 58.8372 331.945 56.1241 313.551C55.8269 312.059 55.0092 310.721 53.817 309.776C53.3213 309.383 52.7431 309.107 52.1256 308.969C51.5082 308.831 50.8675 308.834 50.2516 308.979C50.2516 309.273 50.2516 309.357 49.9579 309.357C49.6362 308.64 49.1196 308.028 48.467 307.59C47.8144 307.153 47.052 306.907 46.2666 306.882H44.1274C43.1131 306.619 42.071 306.478 41.0233 306.462C40.3872 306.485 39.7611 306.627 39.1777 306.882L31.1659 306.211C29.953 305.945 28.7161 305.804 27.4745 305.791C26.8379 305.81 26.2111 305.952 25.6289 306.211C22.8516 305.772 20.0498 305.506 17.2396 305.414C16.5905 305.434 15.9528 305.59 15.3677 305.872C14.7826 306.154 14.2628 306.555 13.8419 307.049C12.8145 308.2 12.2732 309.703 12.3318 311.244C12.298 312.514 12.497 313.779 12.9191 314.977V316.236C12.9191 324.793 13.3245 341.669 14.1355 366.865C14.8953 376.115 15.1054 385.402 14.7647 394.676C13.2127 444.383 12.5835 500.969 12.5835 582.807C11.8745 585.544 11.7036 588.393 12.0801 591.196C12.2144 593.467 12.8291 595.683 13.8838 597.698C16.2815 599.516 19.2801 600.355 22.2732 600.047C30.6625 600.047 32.5081 599.753 41.3589 599.208H42.6173C55.1174 599.46 76.4682 600.704 106.67 602.941C107.909 603.055 109.157 602.892 110.325 602.464C111.493 602.036 112.551 601.354 113.423 600.466C113.776 601.063 114.271 601.563 114.863 601.921C115.456 602.28 116.129 602.486 116.821 602.522C119.883 602.522 121.435 600.466 121.435 596.314V568.922C121.85 567.291 122.062 565.614 122.064 563.931C122.065 562.261 121.853 560.598 121.435 558.981" fill="#633510"></path>
<path d="M396.522 566.278C395.767 562.839 369.089 560.406 368.543 564.181C368.543 529.575 368.837 444.255 369.382 429.952C371.406 429.477 373.471 429.196 375.548 429.113C379.03 428.861 381.714 428.567 383.518 428.274C386.203 427.728 387.713 425.673 387.713 422.066C388.938 420.696 389.598 418.912 389.558 417.074C389.558 413.509 389.558 407.972 389.558 400.295C389.558 392.619 389.558 394.842 389.558 390.941C389.558 387.04 388.048 381 384.944 381H384.022C383.212 380.431 382.242 380.137 381.253 380.161C376.757 380.687 372.224 380.827 367.704 380.58V323.659C367.704 319.464 366.152 317.451 363.09 317.451C361.664 317.451 354.365 314.682 353.526 316.067H346.815C333.853 316.067 338.426 318.961 334.566 317.87C334.107 317.719 333.618 317.674 333.139 317.74C332.659 317.805 332.2 317.979 331.798 318.248H330.246C328.971 318.603 327.877 319.427 327.184 320.555C326.311 321.986 325.983 323.684 326.261 325.337C326.68 330.874 326.89 321.436 326.89 327.686C326.89 333.936 326.89 368.793 326.555 376.973C326.219 385.153 326.261 375.882 326.261 380.035C320.836 380.581 315.369 380.581 309.944 380.035C309.314 380.054 308.697 380.215 308.137 380.506C307.578 380.796 307.092 381.209 306.714 381.713C306.476 382.066 306.318 382.467 306.252 382.888V383.265C306.252 387.711 306.252 392.577 305.917 401.554C305.581 410.53 305.12 411.327 305.12 415.774C305.12 419.088 306.336 426.218 308.811 427.057C309.145 427.107 309.461 427.237 309.734 427.435C313.425 428.274 315.481 428.693 315.9 428.693H322.066C322.066 478.19 313.09 588.929 328.736 595.515C331.337 600.129 341.613 600.213 357.427 600.213C358.81 600.478 360.214 600.618 361.622 600.633C362.461 600.633 366.865 602.017 367.662 601.471C368.459 600.926 387.377 602.688 393.753 595.976C398.493 590.943 400.297 583.854 396.396 566.614" fill="#633510"></path>
<path d="M466.615 315.522V314.6C466.615 310.405 465.105 308.392 462.001 308.392C459.568 308.392 455.583 308.392 450.172 308.811C444.761 309.23 440.146 309.147 436.455 308.811C432.727 308.652 429.021 308.161 425.381 307.343C424.772 307.209 424.14 307.236 423.544 307.419C422.949 307.603 422.411 307.938 421.983 308.392C420.906 309.435 420.249 310.838 420.138 312.335C419.737 313.393 419.538 314.517 419.551 315.648C419.551 325.044 419.942 343.291 420.725 370.389C420.725 376.345 421.103 379.072 421.228 379.911C419.662 433.798 418.893 504.003 418.921 590.525C418.921 594.719 420.431 596.733 423.536 596.733C423.968 596.719 424.388 596.589 424.752 596.355C425.096 596.861 425.559 597.275 426.1 597.561C426.641 597.846 427.244 597.994 427.856 597.991C431.128 597.991 435.994 597.991 442.453 597.572C448.913 597.152 453.821 597.152 457.093 597.152C457.978 597.134 458.838 596.857 459.568 596.355C459.922 596.736 460.35 597.04 460.826 597.249C461.302 597.458 461.816 597.568 462.336 597.572C465.398 597.572 466.95 595.516 466.95 591.364C466.95 555.401 466.95 501.612 466.95 429.995C466.95 358.35 466.95 354.239 466.95 318.543C466.945 317.409 466.732 316.286 466.321 315.229" fill="#633510"></path>
<path d="M291.026 571.901C289.474 571.104 286.831 571.565 281.168 570.223C275.505 568.881 271.185 568.084 271.101 567.958C271.101 500.466 271.101 454.24 272.024 432.386C274.033 431.909 276.084 431.628 278.148 431.547C281.672 431.296 284.314 431.002 286.16 430.75C288.844 430.205 290.355 428.108 290.355 424.5C291.577 423.145 292.237 421.375 292.2 419.551C292.2 415.943 292.2 410.35 292.2 402.772C292.2 395.305 292.2 397.319 292.2 393.418C292.2 389.517 290.648 387.21 287.586 387.21H286.663C285.843 386.663 284.88 386.371 283.895 386.371C279.386 386.919 274.838 387.059 270.304 386.79V328.526C270.304 324.332 263.173 316.865 262.334 318.249H262.166C253.741 318.653 245.296 318.09 236.998 316.572C236.534 316.438 236.046 316.406 235.568 316.479C235.091 316.551 234.634 316.726 234.23 316.991H232.678C231.402 317.32 230.304 318.132 229.616 319.256C228.746 320.689 228.419 322.385 228.693 324.038C229.07 329.575 229.28 320.179 229.28 326.387C229.28 332.595 229.28 367.747 228.987 375.926C228.693 384.106 228.693 382.805 228.693 386.958C223.268 387.504 217.801 387.504 212.376 386.958C211.746 386.977 211.128 387.138 210.569 387.428C210.01 387.719 209.524 388.132 209.146 388.636C208.152 389.822 207.551 391.288 207.426 392.831C207.426 394.467 207.845 389.349 208.642 390.733V391.572C208.642 395.767 208.642 395.054 208.349 404.156C208.055 413.259 208.055 419.844 208.055 424.249C207.858 425.556 208.117 426.892 208.789 428.03C209.462 429.169 210.506 430.041 211.747 430.499C212.087 430.55 212.407 430.695 212.669 430.918C216.361 431.715 218.416 432.135 218.836 432.135H224.96C224.96 481.674 220.094 566.741 226.05 587.673C226.428 589.015 227.77 604.955 243.626 605.794C248.995 605.206 241.864 605.794 257.678 605.794C258.098 606.087 302.813 613.847 296.605 584.82C295.85 581.339 300.254 577.228 290.816 572.236" fill="#633510"></path>
<path d="M1821.2 475.59C1816.39 472.632 1812.23 468.721 1808.99 464.096C1808.02 462.581 1807.17 460.997 1806.43 459.356C1805.66 457.823 1805.17 456.159 1805.01 454.449C1804.87 452.694 1805.14 450.93 1805.8 449.299C1806.47 447.668 1807.5 446.214 1808.82 445.053C1812.68 442.032 1818.55 443.794 1821.11 449.793C1823.67 443.794 1829.71 441.823 1833.7 444.843C1834.29 445.354 1834.78 445.982 1835.12 446.688C1836.22 449.146 1836.62 451.863 1836.26 454.533C1836.36 457.998 1835.67 461.441 1834.24 464.6C1830.81 469.186 1826.4 472.942 1821.32 475.59H1821.2ZM1765.28 198.322C1768.97 203.817 1770.99 213.297 1773.67 208.012C1776.36 202.727 1772.96 201.762 1773.29 195.931C1773.63 190.101 1776.52 189.723 1774.51 184.27C1771.53 175.881 1764.11 171.267 1760.42 175.294C1758.44 177.433 1759.49 182.55 1761 187.165C1761.96 191.035 1763.37 194.78 1765.2 198.322H1765.28ZM1775.14 177.349C1776.25 176.594 1777.25 175.691 1778.12 174.665C1778.12 179.866 1779.33 180.285 1779.21 186.158C1779.08 192.03 1778.08 192.408 1777.95 198.742C1777.82 205.076 1777.49 204.992 1777.36 211.326C1777.24 217.66 1779.29 217.618 1779.21 223.91C1779.12 230.202 1777.28 230.076 1777.15 236.494C1777.03 242.912 1777.15 242.702 1776.86 249.078C1776.57 255.454 1773.67 256.419 1777.19 261.662C1782.19 268.877 1785.33 265.06 1792.84 269.59C1793.09 269.59 1792.42 270.932 1792.84 271.1C1794.1 271.855 1793.85 271.645 1794.85 272.232C1795.86 272.82 1795.86 271.226 1796.45 271.519C1796.63 271.634 1796.83 271.732 1797.04 271.813C1796.89 272.084 1796.77 272.365 1796.66 272.652C1797.29 272.904 1797.33 273.365 1798.21 273.617C1798.92 266.905 1800.1 266.947 1800.43 260.236C1800.77 253.524 1799.38 253.398 1799.72 246.687C1800.06 239.975 1801.31 239.975 1801.65 233.264C1801.98 226.553 1800.22 226.385 1800.52 219.673C1800.81 212.962 1802.61 213.004 1802.95 206.25C1803.29 199.497 1801.65 199.413 1801.98 192.66C1802.32 185.906 1802.53 185.948 1802.82 179.195C1803.12 172.441 1803.03 172.441 1803.33 165.688C1803.62 158.935 1803.33 158.935 1803.79 152.139C1804.25 145.344 1804.75 145.47 1805.09 138.674C1805.42 131.879 1809.7 130.746 1805.09 125.713C1800.47 120.679 1799.22 126.174 1792.8 126.006C1786.38 125.839 1784.12 119.547 1779.38 123.951C1774.64 128.355 1780.8 130.83 1780.72 137.038C1780.63 143.246 1779.33 143.246 1779.21 149.622C1779.08 155.998 1778.37 155.83 1778.24 162.206C1778.27 162.598 1778.27 162.99 1778.24 163.381C1777.82 161.997 1777.28 160.529 1776.82 158.893C1776.6 157.679 1775.98 156.573 1775.06 155.757C1774.13 154.941 1772.96 154.463 1771.73 154.399C1770.5 154.336 1769.28 154.692 1768.28 155.409C1767.27 156.126 1766.54 157.162 1766.2 158.347C1765.83 161.989 1766.69 165.65 1768.64 168.75C1771.24 173.574 1770.69 181.334 1775.14 178.356V177.349ZM1749.17 548.157C1750.89 546.884 1752.84 545.984 1754.93 545.514C1757.01 545.045 1759.16 545.016 1761.25 545.431C1765.68 546.313 1769.76 548.42 1773.04 551.513C1775.94 554.198 1773.04 543.795 1773.25 544.466C1772.29 539.629 1771.76 534.716 1771.66 529.785C1771.41 517.201 1771.32 504.994 1771.2 492.62C1771.2 486.328 1771.2 480.036 1770.99 473.702C1770.99 464.6 1772.33 455.246 1772.54 446.059C1772.54 441.529 1773.08 437.209 1773.17 433.475C1773.17 426.093 1772.66 427.141 1772.83 420.891C1772.99 416.642 1773.61 412.423 1774.68 408.307C1774.68 401.973 1773.96 401.931 1774.09 395.723C1774.22 389.515 1775.89 389.473 1776.02 383.139C1776.15 376.805 1776.02 376.889 1776.27 370.555C1776.52 364.221 1775.35 364.221 1775.47 357.971C1775.6 351.721 1775.47 351.679 1775.47 345.387C1775.47 339.095 1771.95 337.795 1775.18 332.468C1777.82 328.021 1781.77 334.943 1785.5 335.782C1789.23 336.621 1793.47 332.719 1795.65 337.585C1798.29 343.668 1795.65 344.129 1795.27 350.715C1794.9 357.3 1795.27 357.384 1795.02 363.97C1794.77 370.555 1795.44 370.639 1795.02 377.267C1794.6 383.894 1794.56 383.894 1794.27 390.522C1793.97 397.15 1792.42 397.066 1792.09 403.651C1791.75 410.237 1793.22 410.321 1792.88 416.948C1792.55 423.576 1792.88 423.618 1792.63 430.203C1792.38 436.789 1789.99 436.747 1789.65 443.333C1789.85 448.962 1790.46 454.569 1791.46 460.111C1791.75 468.644 1791.11 477.183 1789.53 485.573C1789.23 486.955 1789.23 488.385 1789.53 489.768C1790.06 490.862 1790.68 491.914 1791.37 492.914C1793.3 496.605 1791.58 501.009 1790.58 505.078C1789.23 512.492 1788.86 520.052 1789.48 527.562C1789.48 534.902 1786.88 543.25 1788.73 550.213C1791.72 547.33 1795.45 545.34 1799.51 544.466C1803.69 543.987 1807.89 545.161 1811.21 547.738C1814.36 550.213 1814.95 554.701 1816.12 559.231C1817.85 563.219 1818.87 567.477 1819.14 571.815C1818.66 576.103 1817.7 580.323 1816.29 584.399C1814.66 588.36 1812.58 592.118 1810.08 595.599C1807.99 599.73 1805.44 603.613 1802.49 607.176C1799.2 610.428 1795.7 613.455 1792 616.237C1788.25 618.997 1784.18 621.292 1779.88 623.074C1775.73 621.01 1771.79 618.567 1768.09 615.775C1764.35 613.079 1760.82 610.107 1757.52 606.883C1754.56 603.371 1752.01 599.528 1749.93 595.431C1747.14 592.115 1744.74 588.483 1742.8 584.609C1741.48 580.455 1740.65 576.162 1740.32 571.815C1740.24 567.448 1740.87 563.096 1742.21 558.938C1743.17 554.733 1745.48 550.96 1748.8 548.199L1749.17 548.157ZM1803.33 274.707C1803.33 266.695 1800.01 261.62 1805.38 261.033C1808.57 260.697 1812.26 264.514 1814.95 270.471C1816.7 274.926 1818.2 279.478 1819.43 284.103C1822.83 295.009 1825.1 292.493 1821.36 297.778C1817.63 303.063 1816.25 302.266 1812.97 307.929C1809.7 313.592 1811.13 314.599 1807.9 320.01C1805.96 323.957 1803.39 327.569 1800.31 330.706C1796.57 334.901 1796.11 331.419 1789.61 330.706C1786.12 329.9 1782.76 328.615 1779.63 326.889C1775.58 325.799 1771.72 324.102 1768.18 321.855C1765.16 318.765 1762.95 314.975 1761.76 310.823C1760.07 306.857 1759.48 302.512 1760.04 298.239C1760.04 297.694 1760.84 297.778 1760.96 297.233C1762.81 289.892 1762.3 289.724 1764.27 282.425C1766.25 275.127 1767.13 275.378 1768.47 267.912C1769.48 262.711 1768.47 263.046 1777.4 268.206C1786.34 273.365 1786.09 272.19 1794.48 276.888C1799.8 279.909 1803.58 282.635 1803.58 274.581L1803.33 274.707ZM1803.87 241.905C1805.26 246.1 1804.96 249.539 1809.28 249.12C1815.03 248.658 1813.86 245.428 1817.67 241.192C1821.49 236.955 1820.15 235.529 1824.09 231.251C1828.03 226.972 1828.62 227.517 1832.48 223.281C1836.34 219.044 1838.02 220.177 1840.41 214.891C1843.13 208.809 1839.61 209.606 1837.68 201.972C1836.72 198.113 1834.07 194.044 1833.24 189.388C1833.11 185.329 1833.39 181.267 1834.07 177.265C1833.82 170.638 1832.98 166.862 1830.13 166.107C1825.94 164.975 1820.02 171.854 1820.57 178.146C1821.11 184.438 1826.15 188.297 1821.62 195.806C1818.51 200.839 1817.63 190.856 1814.36 185.948C1812.25 182.295 1809.79 178.853 1807.02 175.671C1806.77 175.923 1807.35 181.921 1807.02 189.388C1807.02 193.289 1806.1 197.777 1805.89 202.475C1805.68 207.173 1805.13 211.2 1804.96 215.521C1804.8 219.841 1805.3 224.749 1804.96 228.65C1804.67 236.368 1801.52 235.823 1803.62 242.031L1803.87 241.905ZM1830.47 505.833C1831.96 508.656 1833.89 511.232 1836.17 513.468C1840.37 516.907 1844.02 520.221 1844.06 520.221L1851.9 513.509C1854.58 511.596 1856.94 509.259 1858.86 506.588C1861.11 503.092 1862.55 499.136 1863.06 495.011C1863.22 492.744 1862.89 490.469 1862.09 488.341C1861.45 486.506 1860.32 484.882 1858.82 483.643C1854.17 479.994 1847.12 482.008 1844.1 489.138C1841 482.008 1833.91 479.952 1829.25 483.56C1827.73 484.992 1826.56 486.755 1825.84 488.712C1825.11 490.668 1824.84 492.767 1825.06 494.843C1825.16 495.854 1825.42 496.843 1825.81 497.779C1827.22 500.598 1828.86 503.292 1830.72 505.833H1830.47ZM1732.4 376.554C1732.44 377.196 1732.61 377.824 1732.9 378.399C1733.77 380.154 1734.78 381.837 1735.92 383.433C1736.86 385.185 1738.06 386.784 1739.48 388.173C1742.04 390.312 1744.35 392.368 1744.39 392.368L1749.3 388.173C1750.91 386.998 1752.32 385.583 1753.49 383.978C1754.88 381.812 1755.75 379.359 1756.05 376.805C1756.18 375.377 1755.97 373.938 1755.42 372.611C1755.02 371.441 1754.29 370.408 1753.33 369.633C1750.79 371.859 1747.53 373.088 1744.16 373.088C1740.79 373.088 1737.53 371.859 1735 369.633C1734.02 370.512 1733.27 371.608 1732.79 372.832C1732.32 374.056 1732.14 375.374 1732.27 376.68L1732.4 376.554ZM1699.59 345.849C1701.31 349.137 1703.55 352.125 1706.22 354.699C1710.92 358.642 1715.2 362.46 1715.24 362.46C1715.28 362.46 1719.69 358.684 1724.38 354.741C1727.46 352.457 1730.16 349.712 1732.4 346.604C1734.95 342.549 1736.59 337.98 1737.18 333.223C1737.38 330.598 1736.99 327.961 1736.04 325.505C1735.29 323.397 1733.99 321.529 1732.27 320.094C1726.9 315.899 1718.76 318.206 1715.2 326.469C1711.63 318.08 1703.49 315.815 1698.08 320.01C1696.29 321.643 1694.9 323.674 1694.04 325.939C1693.17 328.205 1692.85 330.642 1693.09 333.055C1693.18 334.226 1693.46 335.374 1693.93 336.453C1695.56 339.694 1697.45 342.795 1699.59 345.723V345.849ZM1857.9 247.484C1865.41 245.89 1870.48 252.434 1874.17 245.638C1877.07 240.437 1868.81 240.94 1864.36 237.039C1859.91 233.138 1859.37 233.767 1855.97 228.943C1852.11 223.448 1852.36 220.302 1846.45 220.554C1840.53 220.806 1842.72 225.965 1838.73 230.16C1834.75 234.355 1834.54 234.019 1830.34 238.256C1826.15 242.492 1826.15 242.45 1821.95 246.645C1817.76 250.84 1816.96 250.294 1814.48 255.58C1812.01 260.865 1816.08 259.774 1820.02 264.682C1821.95 267.115 1824.89 269.38 1827.49 272.274C1830.09 275.169 1832.86 279.363 1835.67 282.3C1840.7 287.501 1842.17 296.561 1844.31 290.437C1846.45 284.313 1844.69 284.355 1844.31 277.853C1843.93 271.352 1844.06 271.31 1843.6 264.85C1843.13 258.39 1839.4 257.257 1843.6 252.266C1848.63 246.435 1850.31 249.288 1857.82 247.61L1857.9 247.484ZM1989.82 196.309C1985.94 195.556 1982.23 194.137 1978.83 192.114C1975.11 190.41 1971.99 187.635 1969.86 184.144C1969.23 182.217 1969.01 180.18 1969.22 178.164C1969.43 176.148 1970.06 174.199 1971.07 172.441C1971.99 168.829 1973.86 165.528 1976.48 162.878C1979.75 161.044 1983.44 160.118 1987.18 160.193C1990.79 159.927 1994.41 160.561 1997.71 162.039C2001.54 164.482 2004.84 167.679 2007.4 171.435C2010.32 174.979 2014.44 177.323 2018.97 178.02C2026.44 179.027 2025.98 173.28 2031.06 176.888C2036.13 180.495 2027.53 180.453 2022.37 185.067C2019.61 187.888 2016.45 190.278 2012.98 192.156C2009.46 193.919 2005.67 195.095 2001.78 195.638C1997.85 196.485 1993.82 196.711 1989.82 196.309ZM1990.66 185.529C1994.65 187.186 1998.93 188 2003.24 187.92C2010.84 187.165 2012.89 189.723 2014.74 183.431C2015.83 179.698 2011.89 183.431 2007.94 181.502C2004 179.572 2001.99 173.112 1997.04 170.008C1993.56 167.869 1983.95 167.534 1981.43 173.993C1979.63 178.691 1980.85 182.383 1990.7 185.529H1990.66ZM2037.52 599.374C2025.18 600.129 1989.36 596.606 1989.36 596.606C1989.36 596.606 1979.92 605.457 1976.27 603.275C1972.62 601.094 1961.97 606.128 1961.97 606.128L1951.99 601.933C1947.55 599.708 1942.82 598.14 1937.93 597.277C1931.41 597.928 1924.86 598.166 1918.3 597.99C1911.05 597.277 1910.29 597.99 1910.29 597.99L1882.69 602.185L1873.97 600.045L1862.93 600.884C1858.74 600.884 1854.96 599.836 1851.27 599.836C1844.06 599.836 1839.28 601.052 1832.35 597.696C1831.42 597.321 1830.56 596.797 1829.8 596.144C1828.17 594.151 1827.35 591.623 1827.49 589.055C1826.36 571.228 1844.27 579.953 1854.67 572.612C1858.49 569.449 1862.06 565.984 1865.32 562.251C1867.64 559.469 1870.27 556.963 1873.17 554.785C1876.1 552.577 1879.19 550.573 1882.4 548.787C1885.92 547.193 1889.57 546.312 1892.67 545.053C1893.67 544.745 1894.59 544.234 1895.39 543.552C1896.18 542.87 1896.82 542.033 1897.27 541.092C1897.72 540.151 1897.98 539.127 1898.02 538.084C1898.06 537.04 1897.88 536 1897.5 535.028C1896.41 531.253 1892.13 527.939 1890.7 524.541C1889.81 520.264 1888.6 516.058 1887.09 511.957C1885.42 508.518 1882.19 505.246 1880.17 500.884C1878.45 497.234 1877.99 492.494 1875.98 488.3C1873.97 484.105 1871.03 481.211 1869.23 477.184C1867.42 473.157 1866.88 468.794 1865.03 464.809C1863.18 460.824 1861.93 456.42 1860.33 452.729C1858.74 449.038 1855.3 445.766 1854.12 442.746C1852.87 439.073 1851.82 435.334 1850.98 431.546C1849.89 427.829 1849.03 424.046 1848.42 420.22C1848.03 416.334 1847.44 412.47 1846.66 408.643C1845.22 405.071 1844.37 401.288 1844.14 397.443C1845.06 393.672 1846.67 390.102 1848.88 386.915C1850.43 383.502 1852.15 380.17 1854.04 376.931C1855.01 375.253 1854.04 375.757 1852.07 374.582C1850.05 373.243 1848.63 371.164 1848.13 368.794C1846.37 365.38 1844.96 361.796 1843.93 358.097C1842.88 352.434 1842.72 352.476 1841.62 346.897C1840.53 341.319 1836.72 339.599 1839.99 334.943C1844.18 329.28 1847.62 334.481 1854.25 332.384C1860.88 330.287 1860.12 326.973 1866.83 326.427C1872.25 325.966 1869.98 330.622 1876.27 332.636C1879.67 334.121 1883.25 335.137 1886.93 335.656C1890.37 335.839 1893.83 335.471 1897.16 334.565C1903.41 333.475 1908.11 335.278 1907.06 330.37C1905.72 324.078 1901.99 329.615 1894.48 326.176C1891.29 324.666 1887.98 321.604 1883.53 319.422C1879.82 317.461 1876.27 315.203 1872.92 312.669C1869.27 310.11 1865.45 307.887 1862.56 305.37C1856.98 300.588 1855.89 302.518 1854.17 296.31C1852.68 292.474 1851.81 288.423 1851.61 284.313C1851.23 278.147 1851.19 278.147 1850.81 271.981C1850.43 265.815 1846.11 263.591 1850.39 259.019C1855.89 253.314 1858.78 258.18 1866.5 256.712C1874.22 255.244 1874.09 253.902 1881.94 254.363C1889.78 254.825 1886.63 258.893 1893.55 263.591C1897.82 266.416 1902.25 268.993 1906.81 271.31C1910.51 273.107 1914.32 274.662 1918.22 275.966C1925.06 278.44 1925.1 282.383 1930.51 279.489C1936.63 276.217 1930.51 274.078 1939.78 268.709C1944.31 266.83 1948.97 265.246 1953.71 263.969C1958.31 262.121 1962.25 258.936 1965.03 254.825C1966.1 252.977 1966.49 250.815 1966.14 248.71C1965.79 246.605 1964.71 244.688 1963.1 243.289C1961.89 241.589 1960.33 240.17 1958.52 239.128C1956.71 238.085 1954.69 237.445 1952.62 237.249C1948.78 237.027 1944.97 237.946 1941.67 239.892C1940.04 240.745 1938.61 241.934 1937.47 243.38C1936.34 244.826 1935.52 246.496 1935.08 248.281C1934.24 251.259 1929.38 253.273 1925.18 254.531C1920.99 255.789 1917.76 255.873 1915.24 252.308C1910.17 244.925 1913.86 240.143 1917.59 236.368C1919.85 233.157 1922.96 230.632 1926.57 229.069C1930.36 227.889 1934.3 227.254 1938.27 227.182C1942.19 226.961 1946.11 227.046 1950.01 227.433C1953.91 227.757 1957.75 228.604 1961.42 229.95C1965.06 231.435 1968.45 233.457 1971.49 235.949C1974.75 238.078 1977.59 240.778 1979.88 243.918C1981.03 245.461 1981.82 247.242 1982.19 249.129C1982.56 251.016 1982.5 252.962 1982.02 254.825C1980.62 259.442 1977.51 263.355 1973.34 265.773C1969.01 267.773 1964.56 269.469 1960 270.848C1956.42 272.507 1953.11 274.699 1950.18 277.35C1946.9 279.583 1943.99 282.331 1941.58 285.488C1939.41 288.849 1937.75 292.509 1936.63 296.352C1934.45 302.728 1931.05 302.14 1932.06 308.097C1932.98 313.13 1934.49 305.664 1941.79 303.315C1945.33 302.402 1948.94 301.771 1952.57 301.427C1956.3 300.869 1959.96 299.898 1963.48 298.533C1967.09 296.981 1968.09 292.577 1969.69 288.717C1970.82 285.044 1972.5 281.564 1974.68 278.399C1977.26 274.938 1980.36 271.896 1983.87 269.38C1987.5 267.143 1991.42 265.421 1995.53 264.263C1999.7 263.692 2003.91 263.482 2008.11 263.633C2012.86 263.377 2017.52 262.269 2021.87 260.361C2024.03 259.319 2025.92 257.78 2027.38 255.87C2028.84 253.961 2029.82 251.734 2030.26 249.371C2030.8 245.691 2030.21 241.933 2028.58 238.591C2027.49 235.361 2026.32 231.922 2025.14 228.188C2024.04 224.721 2023.59 221.081 2023.8 217.45C2023.95 213.524 2025.06 209.694 2027.03 206.292C2028.92 202.769 2030.17 199.036 2031.98 195.428C2033.93 191.982 2035 188.105 2035.08 184.144C2035.2 179.472 2033.72 174.899 2030.89 171.183C2027.81 167.879 2024.04 165.287 2019.86 163.591C2015.83 161.298 2011.62 159.348 2007.27 157.76C2003.33 156.586 1998.88 155.83 1993.81 154.656C1989.94 154.125 1986.05 153.789 1982.15 153.649C1978.38 152.72 1974.53 152.145 1970.65 151.929C1963.31 152.391 1964.57 156.418 1962.98 159.018C1959.78 163.06 1955.73 166.341 1951.11 168.624C1948.88 170.008 1943.81 171.56 1939.07 173.7C1935.19 175.845 1931.45 178.227 1927.87 180.831C1923.97 182.634 1923.04 182.886 1929.92 185.613C1936.8 188.339 1939.82 188.213 1944.77 185.319C1949.72 182.425 1955.59 176.93 1958.87 179.153C1962.14 181.376 1960.59 184.648 1958.61 189.052C1956.64 193.457 1954.42 200.629 1960.96 202.769C1967.51 204.908 1970.32 198.574 1974.97 197.148C1979.63 195.722 1982.02 201.636 1981.39 209.732C1980.99 214.38 1979.56 218.881 1977.2 222.903C1974.43 227.559 1970.4 231.964 1965.91 230.579C1957.52 227.979 1962.85 225.63 1958.19 222.693C1954.84 220.638 1955.68 225.965 1950.27 224.581C1944.86 223.197 1948.71 220.974 1945.65 218.205C1942.59 215.437 1943.3 222.4 1936.42 220.219C1933.32 219.338 1933.53 214.556 1933.66 210.151C1933.87 204.74 1937.85 203.524 1935.21 198.7C1931.89 192.869 1928.71 196.477 1922.2 193.918C1918.01 192.156 1912.51 191.737 1909.28 190.269C1901.19 186.619 1904.04 183.347 1909.03 179.572C1914.02 175.797 1913.23 177.517 1918.93 174.371C1921.95 172.693 1925.43 171.057 1928.87 169.211C1932.31 167.366 1935.12 164.346 1938.23 162.794C1941.28 161.527 1944.11 159.786 1946.62 157.634C1951.06 153.44 1949.51 153.817 1950.43 148.951C1950.61 146.617 1951.61 144.423 1953.27 142.768C1954.92 141.113 1957.12 140.107 1959.45 139.933C1963.9 139.145 1968.43 139.017 1972.92 139.555C1975.73 139.891 1979.88 141.736 1984.96 142.449C1988.73 142.953 1992.84 143.498 1997.16 144.211C2001.48 144.924 2005.3 145.47 2009.37 146.351C2013.44 147.231 2017.76 146.98 2021.7 148.196C2025.7 149.492 2029.55 151.192 2033.19 153.272C2037.1 156.385 2040.2 160.382 2042.26 164.933C2044.84 168.991 2046.58 173.527 2047.37 178.272C2048.2 183.022 2048.38 187.861 2047.92 192.66C2047.8 197.496 2046.67 202.253 2044.6 206.628C2042.55 211.097 2040.94 215.763 2039.82 220.554C2038.87 225.742 2039.11 231.079 2040.54 236.158C2041.84 241.237 2042.6 246.439 2042.8 251.679C2042.96 255.721 2041.64 259.684 2039.11 262.836C2036.57 266.062 2033.29 268.624 2029.55 270.303C2025.8 271.974 2021.8 273.022 2017.72 273.407C2012.4 273.782 2007.12 274.525 2001.9 275.63C1996.76 277.335 1992.21 280.462 1988.77 284.649C1984.16 288.48 1980.25 293.095 1977.24 298.281C1975.7 301.516 1973.49 304.378 1970.74 306.671C1967.66 308.587 1964.24 309.883 1960.67 310.488C1956.96 311.179 1953.32 312.218 1949.8 313.592C1941.47 315.177 1934.01 319.758 1928.83 326.469C1926.29 330.205 1923.34 333.639 1920.02 336.704C1916.63 339.1 1912.7 340.601 1908.57 341.067C1904.46 342.318 1900.25 343.202 1895.99 343.71C1888.98 343.71 1886.55 336.872 1882.52 341.822C1877.74 347.611 1879.54 349.121 1876.73 356.168C1873.92 363.215 1873.88 363.215 1871.49 370.346C1870.48 373.324 1873 371.227 1878.03 373.072C1881.79 374.235 1885.61 375.146 1889.49 375.799C1893.33 376.673 1897.23 377.345 1901.15 377.812C1904.8 378.232 1908.74 379.238 1912.93 379.364C1917.13 379.49 1920.74 379.364 1924.8 379.029C1929.17 378.98 1933.53 378.63 1937.85 377.98C1942.04 377.099 1945.69 373.785 1949.85 372.443C1954 371.101 1958.24 370.471 1962.43 369.003C1966.63 367.535 1971.11 366.487 1974.72 364.809C1978.61 362.888 1982.39 360.76 1986.05 358.433C1990.33 356.236 1994.33 353.532 1997.96 350.379C2000.73 348.03 2003.62 344.59 2008.19 340.102C2011 337.292 2015.37 334.943 2019.48 330.874C2022.75 327.602 2026.11 324.75 2028.83 321.646C2031.56 318.542 2033.49 313.885 2035.96 310.614C2038.94 307.32 2041.74 303.876 2044.35 300.295C2046.4 296.406 2048.18 292.384 2049.68 288.256C2050.97 284.128 2052.01 279.926 2052.78 275.672C2054.21 270.806 2055.3 267.283 2055.97 264.304C2056.89 260.11 2059.58 257.383 2060.17 252.937C2060.46 249.791 2059.75 245.932 2060.17 240.94C2060.42 237.626 2061.34 233.809 2061.8 229.153C2062.26 224.497 2062.22 219.841 2062.26 215.395C2062.31 210.948 2062.81 205.957 2062.26 201.552C2061.37 197.035 2060.24 192.568 2058.87 188.171C2058.13 183.676 2057.15 179.223 2055.93 174.832C2054.87 170.423 2053.47 166.103 2051.74 161.913C2049.51 157.523 2046.2 153.77 2042.13 151.007C2038.29 147.934 2034.06 145.395 2029.55 143.456C2024.82 142.316 2020.01 141.6 2015.16 141.317C2011.42 140.688 2007.15 139.639 2002.57 138.884C1998 138.129 1994.18 136.283 1989.99 135.612C1985.8 134.941 1981.14 134.689 1977.2 134.144C1971.95 133.431 1967.38 133.347 1964.36 133.095C1954.67 132.256 1953.08 128.565 1954.42 123.154C1955.05 120.637 1957.36 115.939 1960.08 109.563C1961.55 104.788 1962.66 99.9081 1963.4 94.9659C1964.57 90.1894 1965.14 85.2865 1965.12 80.3685C1965.12 73.9087 1964.74 68.959 1964.36 64.8482C1963.44 55.9136 1962.72 51.8867 1962.26 49.4538C1961.66 46.6418 1961.94 43.7129 1963.06 41.0645C1963.75 38.851 1965.17 36.9384 1967.09 35.6421C1969.01 34.3457 1971.32 33.7431 1973.63 33.9335C1978.1 34.6542 1982.53 35.6346 1986.89 36.8698C1991.08 37.4151 1995.69 36.6601 2000.31 36.8698C2003.54 37.0795 2007.86 37.7926 2012.89 38.1702C2016.71 38.4218 2021.28 38.1702 2025.48 38.4638C2029.67 38.7574 2033.87 38.9671 2038.06 39.3866C2042.26 39.8061 2046.45 40.1416 2050.64 40.6031C2054.84 41.0645 2059.03 43.5813 2062.93 44.1685C2066.84 44.7558 2071.91 44.1685 2075.52 44.9236C2079.6 46.084 2083.5 47.7765 2087.14 49.9572C2091.02 51.2147 2094.52 53.4207 2097.33 56.375C2099.87 59.5114 2101.88 63.0389 2103.29 66.8197C2103.89 70.775 2104.12 74.7762 2104 78.7745C2104.55 82.9692 2105.59 86.8282 2105.76 90.4357C2105.76 93.33 2106.35 97.1471 2106.43 103.02C2106.43 106.459 2105.13 110.612 2105.13 115.604C2105.13 119.295 2105.68 123.532 2105.68 128.188C2105.68 132.047 2106.01 136.241 2106.01 140.772C2106.01 144.673 2107.31 148.951 2107.31 153.356C2107.31 157.76 2105.26 161.745 2105.26 165.94C2105.26 170.134 2106.69 174.329 2106.69 178.524C2106.69 182.718 2106.69 186.913 2106.69 191.108C2106.69 195.302 2105.34 199.497 2105.34 203.692C2105.34 207.886 2105.55 212.081 2105.55 216.276C2105.55 220.47 2107.15 224.665 2107.15 228.86C2107.15 233.054 2104.92 237.249 2104.92 241.444C2104.92 245.638 2107.23 249.833 2107.23 254.028C2107.23 258.222 2106.35 262.417 2106.35 266.612C2106.35 270.806 2105.64 275.001 2105.64 279.196C2105.64 283.39 2105.64 287.585 2105.64 291.78C2105.64 295.974 2106.1 300.169 2106.1 304.364C2106.1 308.558 2105.72 312.753 2105.72 316.948C2105.72 321.142 2104.5 325.337 2104.5 329.532C2104.5 333.726 2104.5 338.214 2104.5 342.367C2104.5 346.52 2106.94 351.05 2106.94 354.951C2106.94 358.852 2105.26 363.718 2105.26 367.535C2105.26 371.352 2105.89 376.344 2105.89 380.329C2105.89 384.314 2106.48 389.18 2106.48 393.165C2106.48 397.821 2106.73 402.099 2106.73 405.749C2106.73 410.572 2105.3 414.809 2105.3 418.333C2105.3 423.492 2104.59 427.687 2104.59 430.917C2104.79 435.134 2105.24 439.336 2105.93 443.501C2105.93 450.296 2106.31 441.99 2106.27 456.336C2106.27 459.398 2105.72 463.551 2105.72 468.92C2105.72 472.528 2104.97 476.806 2104.97 481.714C2104.97 486.622 2106.35 490.103 2106.35 493.669C2106.35 498.157 2104.34 502.058 2104.34 505.54C2104.34 510.447 2106.31 514.306 2106.27 517.411C2106.51 520.94 2106.16 524.487 2105.22 527.897C2105.22 529.281 2105.22 531.211 2105.22 533.938C2104.94 538.321 2104.16 542.658 2102.87 546.857C2101.78 551.06 2100.21 555.126 2098.21 558.98C2096.27 562.851 2093.92 566.506 2091.21 569.886C2088.62 573.378 2085.71 576.622 2082.52 579.575C2079.31 582.083 2075.87 584.288 2072.25 586.161C2069.02 586.916 2049.3 594.55 2036.93 595.389L2037.52 599.374ZM1940.41 212.123C1945.69 213.507 1945.48 207.089 1948.8 210.319C1952.11 213.549 1947.83 216.779 1952.99 217.87C1958.15 218.96 1956.43 212.668 1960.08 215.479C1963.73 218.289 1959.75 220.806 1966.25 222.861C1972.75 224.917 1975.85 222.651 1974.64 217.031C1973.42 211.41 1970.86 214.807 1965.33 212.458C1962.3 211.242 1959.12 208.977 1955.72 207.886C1945.86 204.74 1946.32 200.21 1938.48 204.698C1933.82 207.341 1934.96 210.781 1940.28 212.123H1940.41ZM1978.24 593.04C1980.09 592.621 1980.68 592.453 1979 592.705C1977.95 592.705 1977.83 592.956 1978.24 593.04ZM1983.28 108.724C1987.47 102.768 1987.47 102.852 1991.92 96.9374C1996.37 91.0229 1998.63 91.9457 1999.68 84.7309C2000.48 79.194 1997.16 79.991 1994.44 75.1251C1991.71 70.2593 1992.59 69.7979 1989.86 64.9321C1987.14 60.0663 1988.27 58.724 1983.49 56.0394C1976.78 52.432 1983.49 62.3734 1983.11 71.0983C1982.86 75.8382 1981.47 81.1235 1981.14 86.4088C1981.57 90.2942 1981.72 94.2049 1981.6 98.1119C1980.8 102.097 1979.5 105.956 1978.54 109.354C1976.65 115.771 1970.15 124.245 1974.34 120.05C1977.74 116.573 1980.81 112.781 1983.49 108.724H1983.28ZM2020.69 100.671C2024.89 94.7981 2028.16 95.9726 2029.08 88.7997C2030.01 81.6269 2026.73 82.5078 2023.88 76.5513C2021.03 70.5949 2020.19 70.9724 2017.3 65.016C2014.4 59.0596 2017.3 56.2911 2011.84 52.8934C2004.88 48.6988 2000.9 45.5108 1995.36 51.5092C1990.83 56.4589 1998.3 57.969 2001.4 64.0932C2004.5 70.2174 2005.59 69.4623 2008.87 75.4188C2012.14 81.3752 2015.41 81.1235 2014.82 88.0028C2014.23 94.882 2010.12 93.7494 2006.06 99.4961C2001.99 105.243 2001.86 105.201 1997.67 110.99C1993.47 116.778 1986.72 116.317 1989.74 122.818C1992.76 129.32 1997.08 126.468 2003.66 123.49C2010.25 120.511 2007.86 118.414 2011.42 112.08C2014.99 105.746 2016.71 106.837 2020.86 100.964L2020.69 100.671ZM1989.91 389.767C1992.17 393.626 1996.28 397.108 1998.3 401.092C2000.31 405.077 2000.22 409.482 2001.73 412.628C2004.59 418.878 2001.44 422.276 2007.06 423.995C2013.56 426.009 2011.63 420.514 2019.39 416.781C2022.88 415.103 2026.65 412.208 2031.47 410.195C2035.33 408.643 2040.2 408.559 2044.81 406.965C2048.63 405.623 2052.41 404.406 2056.06 403.358C2059.71 402.309 2063.61 400.044 2067.21 399.163C2071.41 398.072 2075.6 397.275 2078.75 396.562C2085.84 395.01 2086.63 399.205 2090.28 394.507C2093.93 389.809 2090.54 389.599 2090.49 381.923C2090.49 378.19 2090.7 373.869 2090.7 369.339C2090.7 365.144 2090.7 360.95 2090.7 356.755C2090.7 352.56 2090.33 348.366 2090.33 344.171C2090.33 339.976 2091.16 335.488 2091.16 331.587C2091.16 326.805 2089.86 322.484 2089.86 319.003C2089.86 315.521 2091.21 310.907 2091.25 306.713C2091.29 302.518 2090.91 298.701 2090.96 294.38C2091 290.06 2089.57 286.41 2089.57 281.796C2089.57 277.182 2089.57 273.868 2089.57 269.464C2089.57 265.06 2091.63 261.536 2091.63 257.174C2091.63 252.811 2090.91 249.162 2090.91 244.799C2090.91 240.437 2091.88 236.829 2091.88 232.509C2091.88 228.188 2091.54 224.455 2091.54 220.177C2091.54 215.898 2089.65 211.368 2089.65 206.88C2089.65 202.391 2089.91 198.071 2089.91 193.624C2089.91 189.178 2091.33 184.774 2091.33 180.327C2091.33 175.881 2090.83 171.435 2090.83 167.072C2090.83 162.71 2089.74 158.138 2089.74 153.817C2089.74 149.497 2090.41 144.799 2090.41 140.604C2090.41 136.409 2091.54 131.418 2091.54 127.349C2091.54 122.315 2091.12 117.827 2091.12 114.052C2091.12 105.662 2091.5 107.466 2091.54 100.796C2091.49 97.1981 2091.16 93.6088 2090.58 90.0581C2090.28 86.4597 2089.73 82.886 2088.94 79.3618C2088.58 75.7059 2087.47 72.1643 2085.67 68.959C2083.11 65.9667 2079.89 63.5994 2076.27 62.0378C2072.84 60.1742 2069.17 58.7642 2065.37 57.8431C2062.14 57.2559 2058.24 57.5495 2053.87 57.0881C2048.59 56.5428 2043.89 56.2911 2039.99 55.9136C2031.1 55.1585 2024.39 47.9857 2025.22 54.9908C2026.06 61.9958 2030.34 60.6535 2033.61 66.9036C2036.89 73.1536 2036.13 73.5312 2039.36 79.8232C2042.59 86.1152 2046.83 85.6537 2045.99 92.6588C2045.15 99.6639 2041.25 98.8669 2036.59 104.698C2031.94 110.528 2030.97 109.689 2026.32 115.478C2021.66 121.266 2019.65 120.344 2017.17 127.391C2015.2 133.012 2021.95 129.404 2028.37 131.879C2032.15 133.025 2035.85 134.426 2039.44 136.074C2043.09 137.646 2046.6 139.526 2049.93 141.694C2053.05 144.227 2055.73 147.261 2057.86 150.671C2059.85 154.847 2061.39 159.219 2062.47 163.716C2064.56 167.754 2066.39 171.915 2067.97 176.175C2069.06 180.663 2067.97 185.738 2068.51 190.269C2069.06 194.799 2069.77 199.665 2070.19 204.069C2070.7 209.229 2070.9 213.927 2071.03 217.87C2071.8 222.03 2072.32 226.232 2072.58 230.454C2072.37 234.229 2072.58 238.549 2072.33 243.038C2072.08 247.526 2071.07 251.427 2070.49 255.622C2069.9 259.816 2069.44 264.011 2068.72 268.206C2068.01 272.4 2065.62 276.175 2064.74 280.16C2063.86 284.145 2063.44 288.55 2062.26 292.451C2061.02 296.421 2059.48 300.291 2057.65 304.028C2055.22 309.313 2053.83 313.927 2052.07 317.451C2049.78 321.707 2047.16 325.775 2044.23 329.615C2041.48 333.576 2038.48 337.359 2035.25 340.941C2032.61 343.961 2031.06 347.527 2028.5 349.876C2025.43 351.998 2022.22 353.905 2018.89 355.58C2016.14 358.035 2013.24 360.318 2010.21 362.418C2006.64 364.515 2001.32 366.864 1996.53 369.507C1989.44 373.45 1986.8 370.346 1984.24 377.896C1981.98 384.524 1985.88 383.223 1989.74 389.893L1989.91 389.767ZM2090.41 410.195C2088.35 403.316 2084.16 411.034 2075.52 412.879C2071.53 413.718 2067.13 416.025 2062.01 417.494C2057.82 418.71 2052.74 418.5 2047.96 420.22C2043.18 421.94 2039.95 425.002 2036.21 426.554C2031.52 428.526 2027.45 430.12 2024.13 431.755C2016.46 435.447 2011.55 430.455 2011.55 437.125C2011.55 444.927 2012.22 445.514 2016.25 452.016C2019.56 457.427 2019.86 450.338 2027.2 446.898C2030.47 445.388 2034.16 443.249 2038.69 441.445C2042.3 440.061 2046.53 439.39 2050.9 437.922C2055.26 436.454 2059.29 433.182 2063.06 432.175C2067.93 430.958 2072.54 431.084 2076.23 430.455C2084.41 429.071 2086.89 435.363 2088.56 428.903C2090.91 419.885 2092.76 419.088 2090.28 410.195H2090.41ZM1902.2 485.741C1906.29 483.567 1910.64 481.932 1915.16 480.875C1921.91 479.155 1921.91 479.239 1928.66 477.519C1935.42 475.799 1936.05 477.519 1942.21 474.289C1946.95 471.773 1943.26 470.095 1942.46 463.467C1941.67 456.84 1944.73 450.883 1937.89 449.247C1931.98 447.863 1931.73 451.135 1925.9 452.687C1920.06 454.239 1920.32 455.204 1914.49 456.882C1908.66 458.559 1908.53 458.056 1902.74 459.608C1896.95 461.16 1896.87 460.95 1891 462.502C1885.12 464.054 1881.64 460.111 1878.91 465.523C1876.19 470.934 1882.82 470.934 1885 476.555C1887.18 482.175 1882.98 485.363 1888.44 487.754C1894.85 490.523 1895.69 488.803 1902.2 485.825V485.741ZM1898.25 513.635C1901.19 518.585 1896.49 522.612 1901.69 525.087C1906.89 527.562 1908.24 523.535 1914.53 522.025C1920.82 520.515 1920.74 520.179 1927.11 518.627C1933.49 517.075 1934.16 519.088 1939.95 516.236C1944.14 514.055 1941.46 512.041 1941.71 505.875C1941.96 499.709 1948.59 493.92 1941.71 489.81C1936.42 486.58 1935.75 490.816 1929.8 492.494C1923.84 494.172 1923.63 493.417 1917.67 495.053C1911.72 496.689 1911.84 497.066 1905.89 498.702C1899.93 500.338 1898.17 497.947 1895.15 503.358C1892.13 508.77 1895.4 508.644 1898.38 513.635H1898.25ZM1953.79 563.594C1952.64 559.432 1950.67 555.539 1948 552.142C1945.7 549.688 1943.7 546.971 1942.04 544.047C1939.91 538.845 1944.69 534.609 1939.78 533.77C1934.87 532.931 1934.07 534.567 1928.62 535.783C1923.17 537 1923.46 538.258 1918.01 539.474C1912.56 540.691 1911.84 538.594 1907.31 541.865C1902.78 545.137 1906.01 546.941 1903.87 553.694C1903.27 555.638 1902.19 557.397 1900.72 558.806C1899.25 560.215 1897.45 561.227 1895.48 561.748C1891.67 562.839 1887.3 563.468 1883.74 564.684C1879.66 565.827 1875.76 567.506 1872.12 569.676C1868.64 572.025 1865.11 574.542 1861.76 577.185C1854.8 582.596 1861.51 582.554 1867.63 582.428C1873.76 582.302 1873.55 582.847 1879.42 582.847C1885.29 582.847 1885.29 580.834 1891.16 580.834C1897.04 580.834 1897.08 581.505 1902.95 581.505C1908.82 581.505 1908.82 581.128 1914.7 581.169C1918.96 581.433 1923.23 581.433 1927.49 581.169C1930.97 581.169 1935.12 580.163 1940.07 579.785C1942 579.917 1943.93 579.577 1945.7 578.795C1947.47 578.013 1949.02 576.813 1950.22 575.297C1951.58 573.68 1952.59 571.805 1953.19 569.786C1953.8 567.767 1953.99 565.646 1953.75 563.552L1953.79 563.594ZM1954.71 455.875C1955.2 459.658 1955.41 463.471 1955.34 467.284C1955.8 471.815 1955.93 476.764 1955.93 481.924C1955.93 487.083 1956.39 492.033 1956.18 496.689C1955.8 502.729 1955.59 508.056 1955.34 511.454C1955.29 515.305 1955.44 519.155 1955.8 522.989C1955.81 526.809 1956.58 530.589 1958.07 534.105C1962.26 543.292 1962.26 542.704 1965.7 551.555C1968.14 557.763 1966.5 557.218 1972.04 563.09C1975.51 565.901 1979.18 568.452 1983.03 570.725C1986.35 573.665 1989.94 576.278 1993.76 578.527C1997.7 580.583 2001.79 582.308 2006.01 583.686C2010.18 585.261 2014.48 586.481 2018.85 587.336C2023.33 587.262 2027.8 586.897 2032.23 586.245C2036.42 586.548 2040.62 586.548 2044.81 586.245C2048.9 585.431 2052.89 584.209 2056.73 582.596C2060.75 581.621 2064.66 580.214 2068.39 578.401C2071.89 576.037 2075.07 573.216 2077.83 570.012C2080.87 567.175 2083.53 563.961 2085.75 560.448C2088.08 556.914 2089.99 553.129 2091.46 549.164C2092.44 545.047 2092.74 540.795 2092.34 536.58C2092.34 533.896 2093.77 529.156 2093.77 523.199C2093.77 519.005 2092.93 514.81 2092.93 509.734C2092.93 504.659 2094.56 500.884 2094.56 496.269V482.846C2094.56 478.19 2093.51 473.618 2093.51 469.424C2093.51 464.474 2093.18 459.86 2093.18 455.959C2093.18 447.821 2097.75 447.569 2092.8 443.081C2087.85 438.593 2087.98 443.081 2080.22 444.423C2076.36 445.011 2071.83 445.22 2067.21 446.269C2062.95 447.303 2058.75 448.564 2054.63 450.044C2050.81 451.428 2047.2 453.148 2043.77 454.574C2040.33 456.001 2036.42 458.434 2033.28 459.86C2026.86 462.838 2023.92 458.35 2023.21 464.054C2022.16 471.94 2024.47 471.856 2025.27 479.449C2025.94 485.741 2026.02 492.578 2021.07 493.92C2019.88 494.403 2018.59 494.623 2017.3 494.568C2016.02 494.512 2014.76 494.18 2013.61 493.596C2012.46 493.012 2011.45 492.188 2010.65 491.18C2009.84 490.172 2009.26 489.004 2008.95 487.754C2007.86 484.189 2009.83 478.945 2009.49 473.325C2009.29 469.801 2007.69 465.69 2007.15 460.95C2007.14 456.747 2006.91 452.547 2006.47 448.366C2005.28 444.34 2003.88 440.378 2002.28 436.495C2000.79 432.598 1999.06 428.801 1997.08 425.128C1995.3 421.372 1993.27 417.742 1991 414.264C1988.35 410.069 1987.26 405.874 1984.96 402.728C1981.9 399.675 1978.6 396.869 1975.1 394.339C1969.27 388.005 1972.67 385.95 1966.25 385.488C1959.83 385.027 1962.05 386.579 1954.25 388.802C1950.32 390.462 1946.28 391.863 1942.17 392.997C1938.01 393.773 1933.81 394.333 1929.59 394.675C1925.6 395.052 1921.2 394.675 1917 394.675C1912.85 394.284 1908.72 393.668 1904.63 392.829C1900.1 392.451 1895.74 393.668 1892.04 392.829C1888.07 391.459 1884.21 389.762 1880.51 387.753C1872.96 385.321 1874.64 382.091 1868.51 383.265C1861.55 384.607 1863.65 388.089 1860.84 395.849C1858.95 400.344 1858.08 405.199 1858.28 410.069C1858.79 414.9 1860.03 419.624 1861.97 424.079C1863.56 427.812 1865.03 431.126 1866.16 433.979C1867.88 438.173 1869.14 441.403 1870.36 443.962C1874.05 452.016 1870.36 453.106 1875.64 452.351C1879.56 452.31 1883.46 451.817 1887.26 450.883C1892.88 449.247 1892.42 447.569 1898.04 445.933C1903.66 444.298 1904 445.556 1909.62 443.962C1915.24 442.368 1914.86 441.026 1920.48 439.39C1926.1 437.754 1930.64 442.829 1932.56 437.25C1935.29 429.323 1925.22 427.687 1921.99 423.66C1918.76 419.633 1917.8 413.383 1923.04 411.076C1926.44 409.65 1929.59 409.775 1934.03 413.928C1937.59 416.642 1940.46 420.146 1942.42 424.163C1943.97 427.603 1945.61 431.084 1947.08 434.524C1948.55 437.964 1949.09 441.949 1950.39 445.43C1951.69 448.912 1954 452.267 1954.96 455.917L1954.71 455.875ZM1819.52 72.1889C1819.77 69.7979 1822.5 67.7845 1828.7 66.3583C1832.67 65.2754 1836.71 64.4764 1840.79 63.9673C1844.52 63.6318 1848.67 63.3801 1853.12 63.2962C1857.56 63.2123 1862.09 64.1351 1866.37 64.261C1862.85 62.5411 1858.19 60.9472 1855.13 59.1854C1852.07 57.4237 1848.55 54.9908 1845.69 53.0612C1842.67 50.7905 1839.86 48.2492 1837.3 45.4689C1833.11 41.4839 1830.55 38.0024 1832.1 35.905C1833.78 34.7134 1835.69 33.8883 1837.7 33.4836C1839.72 33.0788 1841.8 33.1035 1843.81 33.556C1847.63 34.1393 1851.41 34.9659 1855.13 36.0309C1858.57 36.7859 1862.01 38.8832 1865.95 40.2255C1869.9 41.5678 1872.71 41.2742 1876.48 42.6584C1874.18 40.3022 1872.02 37.8088 1870.02 35.1919C1867.5 32.7732 1865.2 30.1341 1863.14 27.306C1860.25 22.8596 1858.95 19.8395 1861.17 18.0777C1863.39 16.316 1866.71 16.9871 1871.95 18.0777C1875.62 18.9154 1879.21 20.0517 1882.69 21.4754C1885.92 22.8596 1889.4 24.3697 1893.01 26.2154C1896.62 28.061 1899.47 29.9067 1902.87 31.962C1906.26 34.0174 1910 34.7725 1913.19 36.9537C1916.37 39.1349 1919.35 43.1618 1922.5 45.6367C1925.64 48.1115 1929.33 49.8313 1932.15 52.5998C1935.58 46.0981 1940.12 43.2457 1944.14 43.4974C1945.99 43.6731 1947.75 44.3583 1949.23 45.4766C1950.71 46.5949 1951.86 48.1025 1952.53 49.8313C1953.46 53.4257 1954 57.1109 1954.13 60.8213C1954.78 64.4084 1955.16 68.0405 1955.26 71.6855C1954.96 75.3466 1954.46 78.9878 1953.75 82.5916C1953.35 86.2773 1952.72 89.934 1951.86 93.5397C1951.41 97.2637 1950.7 100.951 1949.72 104.572C1948.42 108.095 1946.67 111.436 1944.52 114.513C1943.58 116.055 1942.25 117.323 1940.67 118.192C1939.09 119.06 1937.31 119.499 1935.5 119.463C1934.01 119.433 1932.56 118.994 1931.3 118.195C1930.04 117.397 1929.03 116.268 1928.37 114.932C1927.2 111.805 1926.4 108.554 1925.98 105.243C1923.38 107.13 1919.56 109.144 1916.58 111.073C1913.6 113.003 1911.26 115.268 1908.19 116.904C1905.13 118.54 1901.48 120.847 1898.08 122.567C1894.69 124.287 1891.42 126.761 1888.06 128.313C1884.7 129.866 1880.47 130.956 1877.11 132.089C1873.52 133.611 1869.84 134.9 1866.08 135.948C1864.2 136.419 1862.24 136.425 1860.36 135.964C1858.48 135.503 1856.74 134.591 1855.3 133.305C1853.2 131.208 1853.66 127.307 1857.86 122.441C1860.88 119.563 1864.11 116.9 1867.51 114.471C1870.44 112.08 1873.97 109.479 1877.61 106.963C1874.09 107.927 1870.15 107.802 1866.79 108.557C1863.44 109.312 1860 111.787 1856.68 112.374C1853.37 112.961 1849.22 112.793 1845.99 113.087C1842.45 113.689 1838.88 114.053 1835.29 114.177C1833.45 114.318 1831.6 114.009 1829.91 113.279C1828.21 112.548 1826.72 111.417 1825.56 109.983C1824.38 107.718 1826.44 104.11 1831.43 100.587C1834.74 98.487 1838.18 96.6227 1841.75 95.0078C1844.9 93.4558 1848.63 92.2813 1852.53 90.8132C1856.43 89.345 1858.7 88.0866 1862.51 86.6185C1858.32 86.1571 1854.88 86.6185 1851.06 85.9054C1847.12 84.7094 1843.24 83.3093 1839.44 81.7108C1835.41 81.1608 1831.4 80.4048 1827.45 79.4456C1821.45 77.1805 1819.06 74.7057 1819.43 72.2728" fill="#633510"></path>
</svg>