<svg xmlns="http://www.w3.org/2000/svg" xmlns:xlink="http://www.w3.org/1999/xlink" viewBox="0 0 96 156.3"><defs><path id="a" d="M0 0h96v156.3H0z"/></defs><clipPath id="b"><use xlink:href="#a" overflow="visible"/></clipPath><path clip-path="url(#b)" fill="#fff" d="M58 8.3c.4.2 1 .2 1.6.3.5.1 1 .5 1.6.6.5.1 1 0 1.6.1-.5.2-.9.4-1.4.5l-1.5.6c-.5.3-1 .5-1.4.7-.7.5-1 .9-.8 1.2.1.3.6.5 1.3.5.4 0 .9-.1 1.4-.1.4 0 .9 0 1.4-.1.5-.1.9-.4 1.4-.5.5-.1 1-.1 1.5-.2-.5.3-1 .7-1.4 1-.5.4-1 .7-1.3 1.1-.6.6-.6 1.2-.3 1.4.2.2.7.5 1.5.3.4-.1.9-.3 1.5-.5.5-.2 1-.3 1.5-.5s.9-.5 1.4-.8c.5-.2.9-.5 1.4-.7.4-.2.8-.5 1.1-.8.4-.3.9-.5 1.3-.8.1.4.2 1 .3 1.3.2.4.6.6 1 .6s.8-.1 1.2-.7c.3-.3.5-.8.7-1.3.2-.4.2-.9.3-1.5.1-.5.2-.9.3-1.4.1-.5.2-1 .2-1.4 0-.5-.1-1-.1-1.4-.1-.5 0-1.1-.2-1.5-.3-.6-.7-.8-1.1-.8-.5 0-1.2.3-1.6 1.2-.4-.4-.8-.5-1.3-.9-.4-.3-.8-.8-1.3-1.2-.4-.3-1-.4-1.4-.7-.5-.3-.9-.5-1.3-.8-.5-.2-1-.4-1.4-.6-.5-.2-1-.3-1.5-.5-.7-.2-1.2-.2-1.5 0-.3.2-.1.6.3 1.2.2.3.5.7.9 1 .3.3.5.7.9 1-.5-.2-1-.2-1.4-.3-.5-.2-1-.4-1.5-.5-.6-.1-1.1-.3-1.5-.3-.8-.1-1.4.1-1.6.3-.2.3.1.7.7 1.3.3.3.6.7 1.1 1 .4.2.8.5 1.3.8.4.2 1 .4 1.5.7-.6 0-1.3-.1-1.8-.1-.6 0-1.2 0-1.7.1-.6.1-1.2.2-1.6.3-1 .2-1.3.5-1.4.8 0 .3.3.7 1.1 1m14.1.9s.1-.1.2.1l.7.7v1.1l-.2-.5-1.1-.5c.4-.2.4-.9.4-.9m-3.6-5.5s.3.2.5.2c.2.1.7.5.7.5l.6.3-.3.3-.5-.3-.6-.2s-.6-.4-.6-.5c0-.1.2-.3.2-.3m-.8 5.7c.1-.1.2.2.2.2v.4l-.4-.1-.1-.3c.1 0 .3-.1.3-.2m-4.2 5.1c.1-.2.2-.5.5-.6.1 0 .2-.1.2-.1.5-.1 1-.2 1.4-.4l.3.6c-.8.3-1.6.3-2.4.5m2.2-6.7c.3.1.7.2.7.2l-.2.8v.6S65.1 9 64.6 9v-.5h-.2v-.4c.1 0 1.1-.1 1.3-.3m-1.5-3.6l.4-.2s0 .3.2.9c.2.5.3 1.6.3 1.6l-.8.3s-.3-.8-.2-1.3c0-.5.3-1.1.3-1.1l-.2-.2zm-2.1 2.7l.4.2-.5.7-.3-.1.4-.8zm18.6 15c.5-.1.9-.2 1.3-.4.5-.2.8-.6 1.1-.8.6-.5 1.6-.5 1-.9-.6-.4-.5.2-1.4.1-.5-.1-1-.3-1.4-.8-.3-.4-.6-.9-1.1-1.1-.3-.1-.8-.2-1.2-.2-.4 0-.9.1-1.3.3-.3.2-.5.7-.6 1.1-.1.3-.4.8-.1 1.4.2.3.6.7 1.1.9.3.2.8.4 1.3.5.4.1.9 0 1.3-.1m-2.4-2.5c.3-.7 1.4-.7 1.8-.5.6.3.8 1.1 1.3 1.3.5.2.9-.2.8.2-.2.9-.4.6-1.3.6-.4 0-.9-.1-1.5-.3-1.2-.3-1.3-.7-1.1-1.3M60.7 37.6c-.4.6 0 .7.2 1.4.1.7.4.6.5 1.3.1.7.9 1.2.2 1.4-.8.2-.7-.5-1.4-1s-.6-.6-1.3-1.2c-.7-.5-1.2-.2-1.4-1.1-.2-.8.5-.7.9-1.4s.5-.6.9-1.3c.4-.7 0-1.3.8-1.5.7-.2.8.2 1.4.8.5.5.5.6 1.2 1s1.6 0 1.5.7c-.2.8-.9.2-1.7.4-.9.3-1.3-.2-1.8.5M35.9 55c.7 1.1 1.3 2.2 2.3 3 1.6 1.3 3.1 2.6 3.1 2.6s1.5-1.3 3.1-2.6c.9-.8 2.1-1.6 2.7-2.7.9-1.4 1.5-3 1.6-4.5.1-1.8-.6-3.5-1.7-4.3-1.8-1.4-4.6-.6-5.8 2.1-1.2-2.8-4-3.6-5.9-2.2-1.1.8-1.9 2.5-1.7 4.4.2 1.5 1.5 2.8 2.3 4.2m10.3-5.9l.4.5-.3.3-.4-.4.3-.4zm-.1 1.7c.2-.1.4-.1.4-.1l-.4.7-.3-.1c.1-.1.1-.3.3-.5m-1.7-1.3l.8.4.4.8-.2.3c-.1-.1-.6-.4-1-.6-.2-.3-.4-.5-.4-.5l.4-.4zm-1.7.2l.5-.3.1.4-.6.2v-.3zm-2.9 5.9h.1v.1c0 .4.1.7.2 1.1-.2.2-.6.2-.9.3-.2-.4-.3-.7-.5-1.1.4 0 .7-.3 1.1-.4m-2.9-2.8c.1 0 .2 0 .3.1.1.1.1.2 0 .3.2-.1.4-.1.7-.2-.1.8-.2 1.5-.6 2.2-.3-.6-.4-1.3-.5-2 0-.2 0-.4.1-.4m15.6-31.6c-.2-.5-.3-1.1-.1-1.4.4-.5 1.3.1 1.7 1 .2.6-.1.7-.1 1.3 0 .7.4.8 0 1.4-.3.6-.6-.5-1-1.1-.2-.2-.4-.8-.5-1.2m.9-2.3c-.2-.4-.4-.9-.3-1.2.2-.6 1.1-.6 1.2.1.1.2.1.4.2.5v-.1c0-.7.1-.7.1-1.4s.2-.7.2-1.4-.7-1-.2-1.5c.6-.5.8.2 1.6.2s.9-.6 1.4 0c.5.6 0 .7 0 1.5s-.1.8-.2 1.5c0 .8 0 .8-.1 1.6 0 .8 0 .8-.1 1.5 0 .8-.1.8-.1 1.5 0 .8.2.8.1 1.6 0 .8-.2.8-.3 1.5 0 .8.2.8.1 1.6 0 .8-.2.8-.2 1.5 0 .8.1.8.1 1.6s-.2.8-.3 1.5c-.1 0-.1-.1-.2-.1v-.1h-.1c-.1 0-.1.1-.2.1-.1-.1-.1 0-.2-.1v-.2c-.9-.5-1.2-.1-1.8-.9-.4-.6-.1-.7 0-1.4v-1.4c0-.7.2-.7.2-1.4s-.2-.7-.2-1.4.1-.7.1-1.4.1-.7.1-1.4-.1-.7-.1-1.3l-.3.3c-.3.1-.2-.8-.5-1.4m-3.1 45c-.1.4-.3 1-.2 1.5 0 .5.1 1 .3 1.5.2.5.6.8.8 1.2.3.4.5.9.9 1.3s.8.7 1.2 1c.7.5 1.4.8 1.4.8s.7-.2 1.4-.8c.4-.3.8-.6 1.2-1 .4-.4.6-.9.9-1.3.3-.4.6-.8.7-1.3.2-.5.3-1 .3-1.5s-.2-1-.4-1.4c-.1-.5-.2-1-.6-1.3-.4-.3-.9-.4-1.4-.4-.4 0-.9.3-1.3.6-.2-.8.1-1.8.1-2.6 0-.9-.1-1.7.1-2.6.1-.5.3-1 .1-1.4-.1-.1-.2-.2-.2-.4-.1-.1 0-.3 0-.5.1-1 .3-2 .2-2.9-.1-.6-.2-1.3-.2-1.9 0-.8.3-.7.4-1.5v-1.5c0-.8-.1-.8-.1-1.5 0-.8.2-.8.3-1.5 0-.8.1-.8.1-1.5v-3c0-.8.4-.8 0-1.5-.3-.6-.8-.1-1.2-.2-.4-.1-.9-.9-1.2-.4-.4.6 0 .8 0 1.5v1.4c0 .7.1.7.1 1.4v1.4c0 .7-.2.7-.2 1.4s.1.7.1 1.5c0 0-.2.7-.2 1.4s.1.6 0 1.4c0 .4-.1.9-.1 1.4 0 1.1-.2 2.1-.2 3.2v2.2c0 1.4 0 2.8.1 4.3 0 .6.1 1.1.2 1.7 0-.1.3 1.1 0 .8-.4-.4-.9-.6-1.4-.7-.5-.1-1 0-1.4.3-.2.4-.5.9-.6 1.4m2.7-.6l.2.2-.4.2-.3-.3.5-.1zm-1.4.7l.5.1s.6.4.6 1.1l-1.2-.2.1-1zm4.8-32.5c-1-.5-1-.4-2-1s-.9-.6-1.1 0c-.2.9-.3.8-.5 1.7-.2.8-.2.9-.4 1.7 0 .1-.1.1-.1.1-.1.5 0 1 .2 1.4.2.5.4.9.8 1.2.4.3.9.4 1.3.6.4.2.8.4 1.2.4.7.1.8.5 1.3 0 .5-.6.5-.6.9-1.2s.2-.7.6-1.4c.4-.6.6-.5 1-1.2.4-.6.2-.3-.2-1.6-.2-.5-.3-1.1-.5-1.6-.3-.7-.8-1.1-1.1-1.1-.6.1-.2.6-.2 1.6s-.6.7-1.2.4M53 35.4c-.1 0-.1-.1-.2-.1.1-.1.1-.2.2-.3.1.1.1.2 0 .4m-.4-.5s-.1 0 0 0c-.1 0-.1 0 0 0l-.1-.1c.1 0 .1-.1.1-.1.2-.1.4-.3.5-.4l.2.2c-.3.1-.5.3-.7.4m1.6-2.3c-.1.1-.2.2-.3.2-.1 0-.2.1-.3 0 0-.1.1-.2.1-.3 0 0-.1 0-.1-.1v-1h.4c.1.4.1.7.2 1.1.1 0 .1 0 0 .1.1 0 0 0 0 0m3.5-6.7v-1.5c0-.5.1-1 .1-1.5s.1-1.1.1-1.5v-1.6s.5.6.9 1.2.5 1.7.9 1.1c.5-.9-.1-1.3-.1-2-.1-.7.6-1.5 1.1-1.4.3.1.4.5.5 1.3 0 .4-.2.9-.1 1.4.1.5.4 1 .5 1.5.2.9.6.8.3 1.5-.3.6-.5.5-.9 1-.5.5-.5.4-1 .9s-.3.7-.8 1.1c-.5.5-.3.9-1 .9-.5 0-.5-.4-.6-.8-.3-.7 0-.7.1-1.6m-1 45.7c0 .1.1.1 0 0 .2.3.1.7-.1.9-.2.3-.6.6-.6.6s-.4-.3-.6-.5c-.2-.3-.1-.7 0-.8.2-.1.4-.2.5.1.3-.3.6-.4.8-.3m.5-13.9c0-.1-.1-.2-.1-.3 0-.5.2-1 .5-1.3.5-.4 1.4-.2 1.7.6.4-.8 1.2-1.1 1.7-.6.2.1.3.3.4.5.1.2.1.5.1.8 0 .4-.2.9-.5 1.3-.2.3-.5.6-.8.8-.5.4-.9.8-.9.8s-.4-.4-.9-.8c-.3-.2-.5-.6-.7-.9-.1-.3-.4-.6-.5-.9m-2.9 20.6c0-.1 0-.1 0 0zm5.2-8.8c.2.3.1.8-.2 1.1-.2.4-.8.7-.8.7s-.5-.3-.8-.7c0-.1-.1-.1-.1-.2-.2-.4-.1-.8.1-1 .2-.2.6-.2.8.2.2-.4.6-.5.8-.3.2.1.2.1.2.2m2.7-40.9c-.5.6 0 .7 0 1.4s0 .7.1 1.5c.1.7.3.7 0 1.4s-.4-.3-1-.9c-.3-.3-.6-.8-1-1.2l-.9-.9c-.5-.6-.9-.5-.6-1 .3-.6.4-.5.9-1s.5-.5 1-.9c.5-.5.5-.4 1-.9s.2-1.1.9-1.1.7.3 1.1 1c.4.6.5.5 1 .9s1.5.4 1.2 1c-.4.8-1 0-1.9.2-1 .2-1.2-.1-1.8.5m-18.1 73.9c.9-6.6.3-13.6.1-20.2-.2-6-1.7-10.4-4.6-12.9-1.4-1.2-2.7-1.8-4-1.8-2.6 0-4.6.1-6.1.4-3.1.5-5.2 2.6-6.5 6.4-.7 2.1-1.1 4.6-1.2 7.5-.1 2.2-.1 4.8-.1 7.7 0 7.6.5 12.8 1.4 15.5 1 2.9 2.7 5 5.2 6.2.1 0 .2.1.3.1.5.2.9.3 1.4.3.3 0 .6.1.9.1h1c-.3.1-.6.3-.8.5-.3.4-.2.9-.1 1.3.1.5.1 1.1.2 1.6.1 1.7.2 3 .2 3.8v2.1c0 .9.1 1 .1 1.5 0 .1-.1.9 0 1.2.1.2.1.4.1.6 0 .4.1.8.1 1.2 0 .1 0 .1-.1.2-.3.3-1.4 0-1.8 0-.7 0-1.4-.1-2-.1-.3 0-1 .1-1.2-.2-.3-.4-.1-1-.1-1.4v-.9c-.1-4.6-.2-8.2-.3-10.6 0-.3-.2-.6-.7-.9-.7-.2-1-.2-.9-.2-1.1 0-2.1.2-2.9.5.4-.9.1-2.1 0-3.1 0-.8-.1-1.7-.1-2.5s-.3-1.6-1-1.7c-.4-.1-1.6.2-1.7.2-.7-.3-1.3-.2-2.1-.2-2.3 0-4.3.5-6.5.1-.3 0-.7-.1-1-.4-.2-.4-.3-.6-.3-.9-.2-1 0-2.1 0-3.1 0-1.1-.1-2.1.1-3.2.2-1.9.1-3.9 0-5.8-.1-1.4-.2-2.7-.4-4-.3-3.1.1-6.4.1-9.5 0-3.3.2-6.6.2-9.9 0-1.9-.7-2.7-2.3-2.8-.9-.1-2.6.2-3.5.4-.4.1-.8.2-1.1.1-.3-.1-.4-.2-.6-.2-.6-.1-1.2.6-1.4 1-.1.2-.1.4-.1.7 0 1.9.3 3.8.4 5.7.4 4.5.4 9 0 13.5-.1 1.1-.1 2 .1 3.1.2 1 .1 1.9.1 2.9 0 2 .1 4.3.2 6.7 0 3 .1 5.2 0 6.7 0 2.1-.1 3.9-.1 5.3-.1.7.2 1.3.9 1.8l5.9-.2c-.8.4-1.5.9-2.2 1.7-1.4 1.5-2.3 3.3-2.7 5.4 0 .1-.1.4-.3.9-.2.5-.3.7-.3.9l.1 4.3c0 2.9.1 5.1 0 6.6-.1 3.1.1 5.2.5 6.1.6 1.5 1.2 2.6 1.7 3.3.3.2.9.6 2 1.4.8.6 1.6.9 2.4.9 2.3.1 4-.1 5.3-.6 1.1-.4 2.4-1.3 3.8-2.7.8-.8.7-2.2.8-3.2.2-.9.4-1.8.5-2.7 0-.2 0-.4.1-.5 0-.2.1-.4.1-.6 0-.3.1-.4 0-.6 0-.2-.1-.5-.3-.8-.3-.3-.5-.2-.9-.3-.4 0-.7-.1-1.1-.1h-2.1c-.1 0-.3.1-.4.2-.4.4-.5.7-.5 1.5v.5c0 .1-.1.3-.1.4v.5c0 .3-.1.5-.2.7-.1.2-.1.5-.1.7-.2.9-.2 1.9-1.2 2.4-.3.1-.8.2-1.5.1-.6 0-1-.1-1-.1-.8-.3-1.4-.9-1.8-1.8-.5-1.1-.6-4.1-.3-8.9 0-.7.1-1.7 0-3.1v-3.1c.2-3.1 1.5-4.6 4-4.5.6 0 1.1.2 1.4.5.5.5.8 1.1 1 1.7.2.7.2 1.4.2 2 0 .4.1.9.1 1.3.1.3.1.6.3.8.3.3.7.3 1.1.3h1.8c.4 0 .8 0 1.1-.2.2-.1.3-.3.4-.4 0-.1 0-.2.1-.3 0-.2.1-.3.2-.5.1-.4 0-.7 0-1.1 0-.2 0-.5-.1-.7-.1-.7-.3-1.4-.5-2-.4-1.3-.7-2.2-.9-2.6-.6-.9-.9-1.4-1-1.5-.3-.4-.8-.8-1.5-1.2-.6-.3-.9-.6-1.2-.6-.1 0-.7-.3-.7-.3-.3-.2-1-.3-1.4-.4.3 0 .8.1.6 0 1.1.1 3.1-.1 4.2-.2 1.4 0 2.9-.1 4.3-.1-1 .5-.2 2.8-.2 3.6 0 2-.1 4-.2 6s.2 4 .2 6.1c0 .5 0 1.2.1 2.2 0 1 .1 1.7.1 2.2v10.4c0 .2.1.4.1.7v.8c.1.3.7.6 1.1.6.5 0 1.1 0 1.6-.2.6-.1 1.3 0 1.9 0 .2 0 .5 0 .7-.1.5-.3.3-1 .3-1.4v-4.3c0-2-.1-4-.1-6.1 0-.5-.2-1.3.5-1.3h3.1c.4 0 1-.2 1.3.3v.1c.3 1.1.2 2.3.2 3.4v5.9c0 .8 0 1.5.1 2.3 0 .1 0 .3.1.4.3.9 1.1.9 1.9.8.8-.1 1.7-.1 2.5-.2.1 0 .2 0 .3-.1.1 0 .1-.1.2-.2.5-.7.3-1.6.3-2.3v-2.3c0-1 0-2 .1-3 0-.1 0-.9.1-.9v-1.1c0-.7 0-1.2-.1-1.3v-5.9c0-1.6 0-3.3-.1-5.1-.1-2.1-.1-3.1-.1-3.2-.1-2.3 0-4.4.2-6.3 0-.3-.2-.5-.4-.8-.1-.1-.2-.1-.2-.2 1.1-.1 1.9-.3 2.5-.5 3-1.3 4.2-5.3 4.7-8.6m-19-9.2l.4.2-.3.7-.5-.2.4-.7zm-.4 3.6h.5v1h-.5v-1zm-.1 6.7v-.4l.6-.3.1.4-.7.3zm1.2-3.6h-.9v-.5h.9v.5zm-22.1 5.2c-.2.5-.4.9-.7 1.4v-2.2c.4-.2.7-.3.9-.3 0 .4-.1.7-.2 1.1m.1-3c0-.1 0-.3-.1-.6s-.2-.5-.1-.6h1.1c0 .4.1.6.3.7 0 0 0 .1.1.1l-1.3.4zm1.7-10h-.3c-.1 0-.2.1-.2.1-.1-.3-.2-.6-.4-1h1.1l-.2.9zM3.3 135H3l.2-1.1h.4l-.3 1.1zm12.8 4.8c-.1.5-.3.9-.8 1.5-.1-.1-.1-.4-.2-.8v-.2c.3-.1.6-.3 1-.5m-.9-.6h.5c-.3.2-.6.4-.9.5l-.1-.1.5-.4zm-4.4 2.7v-.2h.1l.1-.1c-.1.1-.2.2-.2.3m1.7-.1c-.2.1-.4.2-.6.2-.1 0-.2-.1-.2-.2s-.1-.2-.2-.2c-.2 0-.3 0-.4.1.1-.1.2-.2.3-.2.4-.2.8-.1 1.2-.1-.1.1-.1.3-.1.4m-1.2-1.8c.7-.2 1.2-.4 1.4-.6 0 .2-.1.6-.1 1h-.4c-.2-.1-.3-.2-.4-.3-.2-.1-.4 0-.6.1-.3.1-.7.1-1.1.1l1.2-.3zm-5.7-1.8l.3-.5c.1.1.2.2.3.2.1 0 .2 0 .3-.1.2.4.4.7.5.9-.4-.2-.9-.3-1.4-.5m.9 3.3c-.1-.2-.2-.3-.4-.4h.7c-.1.1-.2.2-.3.4m-.8-1.2v-.8c.5.3 1 .5 1.4.7-.4 0-.9 0-1.4.1m3.8-32.8h-.2.2zm.4 2.3c-.4.1-.7.1-.9.1.4-.4.7-.7 1-.9h.8c.1.2.1.3.1.6-.3.1-.6.1-1 .2m7.6 10.3l.5-.2.1.3-.6.2v-.3zm-3.2-2.9l-.1 1.2c-.4 0-.7-.3-.9-.9 0 0-.1-.2-.1-.5.4 0 .8.1 1.1.2m-1.4-2.6h.7c.3.3.4.6.3 1h-.1c-.4-.1-.7-.1-1.1-.2l.2-.8zm6.5-4.9l-.3-.4h.6l.1.1-.4.3zm3.2 8.6l-.4.2v-.2l.3-.2.1.2zm-.1-1.1l.3-.3.2.1-.3.3-.2-.1zm-.1 12c.1.2.1.3.1.4-.2 0-.4-.1-.6-.2.3-.2.4-.2.5-.2m0 1.3c.1.2.3.4.6.6 0 .1-.1.2-.4.5 0 .1.2.2.6.3 0 .1-.1.1-.1.2h-1v-.9c.1-.2.2-.5.3-.7m-.4-16.9c.1 0 .3.1.7.2.1 0 .2.1.3.1 0 .4 0 .7.1 1.1l-.2.2c.1.3 0 .6-.2 1 0-.1-.1-.2-.2-.4s-.2-.4-.3-.5c0-.1.1-.3.1-.4 0-.2 0-.4-.1-.6-.1.2-.2.4-.3.5-.1-.2 0-.6.1-1.2m-.4 4.1h.5v.2h-.5v-.2zm.5 1h-.3v-.4h.3v.4zm-.2.3l.3.3c-.1.3-.2.5-.4.7l.1-1zm.4 17.9c0-.3-.1-.6-.3-1 0 0 0-.2.1-.5.2.3.7.5 1 .8-.1.1-.1.2-.2.3-.1.1 0 .1.2.1.1 0 .1 0 .2-.1v.2c-.3 0-.7.2-1 .2m3.5-4.4c-.2.2-.4.4-.4.7 0 .1 0 .3.1.5 0 .2.1.4.1.5l-.3-.3c0-.5 0-1 .1-1.5h.4zm-1-18.7l.6-.3c.1.5.1 1 .1 1.3-.4-.1-.6.1-.7.6l-.2-.2c0-.4 0-.9-.1-1.3.1-.1.2-.1.3-.1M24 136c0 .1.1.2.1.3 0 0-.1 0-.1.1v-.4m0 5.2l.5-.5h.4c0 .1.1.2.1.2-.2.2-.5.3-1 .3m1.1-24.7h-.3v-.5h.3v.5zm.3 20.2c-.1-.1-.1-.3-.2-.4l.1-.3v-.3c.2.1.3.1.5 0 0 .1.1.1.1.2v.8c-.1 0-.2 0-.4-.1l-.1.1m.7 2.3H26c-.1-.4-.2-.9-.3-1.3v-.1l.1-.1c-.1-.1-.1-.2-.1-.3.2.2.4.4.5.6v1.2zm1.3-10.9c-.1 0-.3.2-.7.6 0-.1 0-.2-.1-.3v-.4c.5-.4.8-.6.8-.7v.8zm11.9-41.3h-.4v-1h.4v1zm.7-12s.2.1.4.4l.5.5v1c-.1 0-.3-.1-.6-.4-.3-.3-.6-.5-.7-.5.3-.3.4-.6.4-1m-1.3-1.2l.4.2-.3.7-.4-.2.3-.7zm-.3 2.2c.1-.9.1-1.2.1-.7.1.2.2.6.2 1.4 0 .5.3.9 1 1h-1.5c0-.3.1-.8.2-1.7m-6.1-4.9c.6 0 1-.2 1.4-.6l.3 1.9-.1-.1c-.5-.2-1.1-.3-1.6-.5v-.7zm-1 36.2h-.4c-.1-.4-.2-.7-.3-1 .2-.2.6-.3 1-.3 0 .4-.2.8-.5 1.2l.2.1zm.6-.1l-.1-.1h1.1c-.4.1-.7.1-1 .1m.4 7.1c0-.1.1-.2.3-.2.5 0 .8.1.8.3 0 .1-.1.2-.4.5-.1 0-.2-.1-.5-.4-.2 0-.2-.1-.2-.2m.8 24.7c.2 0 .3.1.5.1-.1.1-.2.1-.3.2-.1-.1-.3-.2-.3-.2l.1-.1m.4 3c-.1.1-.2.1-.3.1 0-.1 0-.4.1-.7.1-.3.1-.5.1-.7 0-.2-.1-.5-.2-.7h.5c0 1.1 0 1.7.1 1.9 0 .1-.1.1-.3.1m.7-28.6c.4.1.7.2.9.3-.1.1-.2.2-.2.4-.1.3-.1.4.1.6-.2.2-.4.3-.5.3-.1 0-.2-.1-.4-.3 0 .2 0 .4-.1.6 0 .2-.2.4-.4.5V114c.4-.2.6-.4.6-.6.1 0 .1-.1 0-.2m-.3 12.9l.1-.8c.1 0 .2.2.2.6.1 0 .1 0 .2.1.1 0 .2.1.2.1s0-.2-.1-.4 0-.3.3-.4c.1.2.1.4 0 .6.2.1.3.4.3.9-.5 0-.9 0-1.4.1v-.1l.4-.4c.1-.3 0-.3-.2-.3m-.1-8.8l.5.3h-.7l.2-.3zm0-.5l.1-.4.2.1-.2.4-.1-.1zm1.1-1c-.1.1-.2.1-.2.1 0-.3.1-.5.2-.5l.3.4h-.3m.2 1.6h-.2l-.2-.4.2-.1.2.5zm-1.3-3.6l-.2-.2.3-.5.2.2-.3.5zm.3 27.6l-.1-.4.2-.1.2.5h-.3zm.1-.9v-.3c0-.2-.1-.3-.3-.4 0-.1 0-.3.1-.5v-.1c.2.1.4.2.7.2 0 .2-.1.3-.1.5 0 .1.1.2.2.3-.2 0-.4.1-.6.3m1-5.3c-.2.2-.4.4-.6.7-.3 0-.5-.1-.8-.2 0-.3.1-.7.1-1.1.4.1.8.1 1.2.2v.4zm-.8-5.7h-.1l-.3.1c0-.1 0-.3-.1-.5 0-.2-.1-.4-.1-.5 0-.1 0-.3.1-.5h.6v.1c0 .1 0 .2-.1.2l-.1.4.5-.5-.2-.2c.3-.1.5-.2.8-.2v.5l.1.1c-.3.3-.7.7-1.1 1m1-15.5l-.2-.1.2-.4h.2l-.2.5zm.4-.7h-.4v-.3h.4v.3zm-2.4-8.4c-.8 0-1.7-.2-2.6-.7-1.1-2.4-1.6-4.5-1.5-6.4.1-1.6.1-4 0-7.2 0-.6-.1-1.9-.2-3.9-.1-1.6-.2-2.9-.2-3.9 0-1.9.3-3.5.8-4.9.7-1.9 1.8-2.9 3.2-2.9.7 0 1.5.4 2.4 1.1.9.7 1.4 1.4 1.5 2.2.4 3.8.6 9.5.6 17.3 0 2.6-.1 4.5-.4 5.7-.6 2.4-1.8 3.6-3.6 3.6m3.7 4.2l-.4-.2.4-1.1c.1 0 .1-.1.2-.1h.3l-.5 1.4zm.7-3.8c-.1-.2-.1-.4-.2-.6-.3.3-.6.6-.9.8 0-.7.4-1.4 1.2-2.2v.7c.1.2.1.4.1.6 0 0-.1.3-.2.7m.6-27.1l.4.5-.3.3-.4-.4.3-.4zm-.2 23h.7v.5h-.7v-.5zm-3.4 26.9h.2v.5h-.2v-.5zm-.1-14h-.2v-.5h.2v.5zM56 91c0-.1 0-.3-.1-.4l.1-.1.2.2-.2.3zm39.9 15.3c-.1-.2-1.8-.4-4.4-.2h-8.3c-.2-.6.2-1.9.1-3-.2-3.8-.3-5.6-.2-8.4.1-.6.3-1.1.8-1.1s1.1-.1 2.1 0c.9.1 1.8-.1 2.3-.1.5 0 1.1-.1 1.6 0 .2 0 .5-.1.5-.1l-.1-.2V93s.6.5.7.5c.3 0 .7.1.9-.1.3-.2.6-.7.8-1 .2-.4.2-.9.2-1.3v-1.2c0-.4-.1-.9-.1-1.3s-.1-.8-.2-1.2c0-.2 0-.3-.1-.6s-.1-.7-.4-.9c-.3-.2-.8-.2-1.2-.2-.6 0-1.2-.1-1.8-.1l-2.3.1c-.1.1-1.7 0-3.1 0-.8 0-.7-.3-.8-1.5 0-.1-.1-1.4 0-3.2v-2.1c0-1.2 0-2.3-.1-3.1.5-.3 1.2-.5 2.3-.4.4 0 .7-.1 1.3.1.7.2 1.2 0 1.5 0 .2 0 1 .1 1.9-.1 1.1-.1 2-.1 4.7 0 .9.2.9-.8.9-1 0-.8 0-1.8-.1-2.9l-.2-2.9c-.2-.3-.4-.4-.5-.5-.5 0-1.4.2-2.6-.3-.4-.2-1.6-.2-3-.2.4-.2.9-.5 1.2-.8.4-.3.7-.7 1-1.1.3-.4.6-.8.8-1.3.2-.5.4-.9.6-1.4.1-.5.3-1 .3-1.5v-.7c.1-.1.1-.4.1-1.2 0-.4-.2-.8-.2-1.4 0-.4.2-.9.2-1.4 0-.4-.2-.9-.2-1.4 0-.6.1-1.1.1-1.5 0-.6.1-1.1.1-1.5v-1.5c0-.3-.2-.7-.2-1.5 0-.4.1-.9.1-1.5 0-.4.2-.9.2-1.5v-1.5c0-.5-.1-.9-.1-1.5 0-.5-.1-1-.1-1.5s.2-1 .2-1.5-.3-1-.3-1.5v-1.5c0-.5.1-1 .1-1.5v-1.5c0-.5-.1-1-.1-1.5v-1.5c0-.5.1-1 .1-1.5s.1-1 .1-1.5-.3-1-.3-1.5.3-1 .3-1.5-.2-1-.2-1.5v-1.5c0-.5.2-1 .2-1.5v-1.5c0-.5-.2-1-.2-1.5s.2-1 .2-1.5-.2-1-.2-1.5v-1.5c0-.6-.1-1-.1-1.5 0-.6.2-1.1.2-1.5 0-.7-.1-1.1-.1-1.5 0-.4-.1-.9-.2-1.3s.1-1-.1-1.4c-.1-.4-.4-.8-.7-1.2-.3-.3-.7-.5-1.2-.7-.3-.2-.8-.5-1.4-.6-.4-.1-1 0-1.5-.1-.2.8-.7.5-1.2.4-.5 0-1-.1-1.5-.1s-1-.1-1.5-.1H82c-.6 0-1.1-.1-1.5-.2h-1.6c-.6-.1-1.1-.3-1.6-.3-.6 0-1.1.3-1.3.8 0 .4 0 .5.1.9.1.3.1.7.2 1.8 0 .5.1 1 .1 1.8 0 .6-.1 1.2-.2 1.7-.1.6-.2 1.2-.4 1.7-.3.7-.6 1.3-.7 1.6-.2.6 0 1.1 1.2 1.1.4 0 .9 0 1.5.1.5.1 1 .1 1.5.2s1 .3 1.5.4c.5.1 1.1.2 1.5.3.6.1 1.2 0 1.7.2.6.2 1 .6 1.5.9.5.4.9.8 1.1 1.2.2.4.3.9.5 1.5l.3 1.5c.1.5.4 1 .4 1.5v1.6c0 .5 0 1.1-.1 1.6s-.2 1-.2 1.4c-.1.6 0 1 0 1.4-.1.5-.4.9-.5 1.3-.1.4-.2.8-.4 1.3-.1.5-.2 1-.4 1.5s-.4.9-.6 1.4c-.2.4-.6.8-1 1.2-.3.4-.5.9-.8 1.3-.3.4-.7.7-1.1 1.1-.5.5-1 .7-1.3 1.1l-1.2 1.2c-.5.4-.8.6-1.4.9-.3.2-.8.5-1.3.7-.4.2-.9.3-1.5.5-.5.2-1 .2-1.5.4-.5.1-.9.5-1.4.6-.5.1-1.1.1-1.5.1h-1.4c-.5 0-1-.1-1.4-.2-.5-.1-1-.2-1.4-.2-.7-.1-1.1-.2-1.4-.3-.6-.2-.9 0-.8-.3l.6-1.6c.3-.8.1-1 .7-1.7.5-.6.8.2 1.6.2.5 0 1-.2 1.5-.3.5-.1 1-.2 1.4-.5.5-.5.8-.8 1-1.2.3-.4.6-.6 1.2-1 .5-.3.9-.3 1.3-.5.5-.2.9-.3 1.3-.4.4-.1.8-.2 1.2-.4.3-.2.5-.6.8-1 .6-.9.6-.9 1.4-1.6.5-.4.8-.8 1.5-1 .4-.1 1.1-.2 1.9-.3.5-.1 1-.2 1.4-.4.5-.2.9-.5 1.1-.9.4-.4.4-.9.4-1.3s-.1-1.1-.3-1.8c-.2-.7-.2-1.3-.1-1.8.1-.6.3-1.1.6-1.6.2-.4.3-.9.4-1.6 0-.5 0-1.1-.1-1.7-.1-.6-.3-1.1-.6-1.5-.3-.5-.5-1-1.1-1.3-.4-.2-.8-.4-1.4-.6-.4-.1-1-.1-1.5-.2s-1-.2-1.4-.2c-.5-.1-1-.1-1.4-.2-.6-.1-1.1-.3-1.4-.3-.6-.1-1.2 0-1.6 0-.4.1-.9.2-1.1 1-.1.6.1.5-.4 1-.2.2-.6.4-1 .6-.4.2-.7.5-1.1.7l-1.2.6c-.7.4-.6.2-1.2.6-.6.4-.9.8 0 1.2.4.2 1 .2 1.5.4.8.3 1.1-.1 1.5.6.3.6-.2.7-.2 1.3 0 .5 0 1.1.3 1.2.8.2.7-.6 1.1-.2.4.3-.1.6.5.7.6.2.5-.5.9-.2.6.3-.1.6.9.9.5.2 1-.3 1.3-.9.3-.5.5-1.1.5-1.5.1-.9-.2-1.6-.8-1.5-.5.2-.9.9-1.7.7-.8-.2-.5-1.1-.3-1.6s.4-.9 0-1.1c-.4-.2-1.1.4-1.7.7-.6.3-.9.3-1.8 0-.8-.3-.7-.3-.2-.6.2-.1.7-.6 1.3-.8.6-.2 1.2-.4 1.4-.6.5-.3 1.1-.6 1.4-1.1.2-.3 0-.8.9-.8.3 0 .7.1 1.4.2.4.1.9 0 1.4.1.6.1 1.1.2 1.6.4.6.2 1.1.5 1.5.7.6.3 1 .6 1.3.9.3.4.5.9.5 1.5 0 .5-.2.9-.4 1.3s-.4.8-.6 1.3c-.2.4-.4.8-.4 1.3s0 .9.2 1.2c.1.4.3.8.4 1.2.1.4.3.8.2 1.2-.2.7-.5 1-1 1.3-.4.2-.9.3-1.6.4-.6 0-1.1 0-1.5.1-.5.2-1 .3-1.4.6-.5.3-.8.7-1.1 1-.3.4-.4.8-.6 1.2-.2.4-.3 1-.7 1.1-.4.2-.9.3-1.3.3-.4.1-.8.1-1.3.2-.9.3-1 1.1-1.2.6-.1-.7.3-.6.5-1.4.1-.4.3-.9.6-1.3.3-.5.7-.7 1-.9.4-.3.7-.6 1.2-.8.4-.2 1-.3 1.6-.6.5-.3.9-.8 1-1.3.1-.4.1-.8-.3-1.3-.2-.3-.6-.6-1-.9-.3-.3-.7-.5-1.2-.7-.4-.1-.9-.2-1.3-.3-.5 0-1-.1-1.4 0-.6 0-1 .1-1.4.2-.6.2-.8.6-1.1.8-.4.4-.9 1-.3 1.8.3.4.7.4 1.2.3.5-.1 1.1-.4 1.2-.7.1-.4.3-.7.8-1 .3-.2.8-.3 1.3-.3.6 0 .9.4 1.2.7.3.4.5.8.3 1.3-.3.5-.8.8-1.3 1.1-.5.2-1.1.3-1.6.5-1.1.6-.4.9-1.1 1.3-.6.3-.6-.1-1.5-.4-.4-.1-.9-.3-1.4-.5-.5-.3-1.1-.6-1.6-.9-.8-.5-.5-1-1.4-1.1-.9-.1-.9.1-1.8.3-.9.2-1.3-.4-1.9.3-.5.5 0 .8 0 1.5s0 .7.1 1.4c0 .7.1.7.3 1.4.2.7.3.5 1 1 .3.3.8.5 1.2.8.4.3.8.6 1.3.8.5.3.9.6 1.3.8.9.4 1.3-.2 1.5.5.1.6-.4.4-1.2.5-.3.1-.7.2-1.2.1-.5 0-.9-.2-1.3-.4-.7-.3-.5-.8-1.1-.7-.8.1-.7.5-1.5.7-.8.2-1.2-.4-1.7.3-.4.5.1.7.2 1.4.1.6.1.6.3 1.3.1.7.3.6.5 1.2.1.4.3.5.5.7.2.1.3.1.2.3-.3.6-.2.5-.6 1.2-.2.4-.5.7-.6 1.2 0 .4.2.8.3 1.3.2.6.1 1 .2 1.3.1.5.1.8.3 1.3.1.3.2.8.4 1.3.1.3.5.7.7 1.2.2.5.3.9.6 1.4.2.5.3 1 .5 1.4.2.5.6.8.8 1.3.2.5.3 1 .5 1.4.2.5.6.9.8 1.3.3.6.3 1.2.4 1.5.2.4.7.8.8 1.2.2.5 0 .9-.6 1.2-.4.1-.8.2-1.2.4-.4.2-.7.5-1.1.7-.4.2-.6.6-.9.9-.5.5-.8.9-1.3 1.2-1.2.8-3.3-.2-3.2 1.9 0 .3.1.6.3.8.1.1.2.1.3.2.8.4 1.4.2 2.2.2.4 0 .9.1 1.4.1 0 .1 0 .2-.1.3-.1.6-.1 1.5-.3 2.1-.1.5-.4 1-.5 1.5-.7 2.9-1.1 5.8-1.6 8.8-.2 1.3-.5 2.7-.9 4-.4 1.2-1.2 2.8-1.2 4-.2.6-.4 1.1-.5 1.7-.6 2.1-1.2 4.3-1.4 6.4 0 .4.1.7 0 1-.1.4-.3.5-.2.9-.5-2-.8-4-1.2-6 .7-.2.5-1.2.4-2.2 0-.2 0-.3-.1-.5-.2-1.3-.3-2.6-.5-3.3-.6-3.3-1.1-4.7-1.5-8-.2-1.7-.4-3.5-.5-5.2-.1-.7 0-1.3-.4-1.8-.3-.5-.9-.8-1.2-1.3-.3-.5-.8-1.1-1.2-1.5-.4-.4-.5-1.1-1-1.4-1.4 0-2.8-.5-4.2-.1-.4.1-2.7.2-2.6.9.3 2.8 2.2 10.3 2.3 9l.9 3.7c.6 2.6.7 4 .9 3.9.2.5.6 3.4.8 3.9 1 6.4 1.5 10.1 2.7 16.4.3 1.8.7 3.6 1.2 5.4.1.5.2 1 .4 1.4 0 0 .1.2.1.3l.2.3c.4.7.3.5.6.8-.8-.5-2.3-1.1-3.1-1.1-2 0-3.6.1-4.7.3-2.3.4-4 1.9-4.9 4.6-.5 1.5-.8 3.3-.9 5.4 0 1.6-.1 3.4-.1 5.5 0 5.4.3 9.1 1 11 .8 2.1 2.1 3.5 4 4.4.7.3 1.8.4 3.4.4 2.3 0 3.8-.1 4.6-.4 2.8-1 4.3-4.3 4.3-9.7v-2.4l.2-.3-.3-.4c-.2-.2 0-.8 0-1.1 0-.2-.2-.2-.1-.7.1-.6.2-1 .2-1.2l-.2-5c-.1-3.4-.9-6.1-2.3-8h.1c1.5.4 3 .5 4.6.4.5-.1 1-.2 1.6-.3-.6.2-1 2.3-1.2 2.8-.3.9-.6 1.5-.7 2.4-.1 1.2-.1 2.4 0 3.6.1 2.8.3 5.5.4 8.3.1 3.1.4 5.2.8 6.1.7 1.5 1.3 2.5 1.9 3.2.3.1 1 .6 2.1 1.3.8.5 1.6.8 2.5.8 2.3 0 4-.3 5.3-.9 2.5-1.2 4-2.8 4.3-5.5.1-1.3.5-2.3.5-3.6 0-.5-.1-1 0-1.5s.1-.9-.2-1.4c0 0 0-.1-.1-.1h-.2c-.7 0-1.5.1-2.2.2-.6.1-1.7 0-2.2.3l-.1.1c-.2.6-.2 1.3-.2 1.9-.1.7-.1 1.4-.3 2.1-.2 1-.3 2.5-1.3 3-.3.1-.8.2-1.5.2h-1c-.8-.2-1.4-.8-1.8-1.7-.5-1.1-.8-4-.8-8.8 0-.7 0-1.7-.1-3.1-.1-1.4-.1-2.4-.1-3.1 0-3.1 1.2-4.6 3.7-4.6.6 0 1.1.2 1.4.5.7.7 1.1 1.7 1.3 2.7.1.6.1 1.2.2 1.8.1.4 0 1.1.2 1.4 0 .1.1.1.1.1.5.4.8.4 1.5.5.7.1 1.3.1 2-.1 1-.3.7-2.6.4-4.1-.1-2.1-.4-4.3-1.8-5.9-1.3-1.5-3.5-2.3-5.4-2.6-.8-.1-1.8 0-2.6.2-.4.1-2.8 1-2.9 1.5 0-.5.2-1 .3-1.4 1.3-5.1 2.2-8.6 2.7-10.4.8-3.7 1.4-6.3 1.6-7.7.6-2.7 1.4-5.3 2.4-7.8l.9-3.4.8-2.4-.6-1.2c.6-.5.7-1.6 1.5-3.7.3-.9.8-1.7 1.3-2.6.1-.2 1.2-2.8 1-3 .1-.5 0-.7-.2-.9.4 0 .9-.1 1.3-.1-.1.2-.1.4-.1.6l.2 8.1c.3 8.1.4 12.4.4 12.9-.1 4.4.2 8.8.2 13.2v8c0 .3.1.6 0 .9-.1.4 0 .8.2 1.1.1.1.1.2.2.3.4.3.8.2 1.3.2-.1.2-.2.3-.3.6-.1.4-.1 1-.1 1.8l.2 9.6v.2c0 1.8.1 3.7.1 5.5.1 1.7.1 3.5.2 5.2 0 .8.1 1.6.1 2.5 0 .4.1.8.1 1.2v1.2c0 .3-.1.6 0 .9 0 .3.1.7.2 1 0 .1.1.2.2.3.3.4.7.3 1.1.3h1.7c.3 0 .7 0 1-.1.2 0 .3 0 .4-.1.2 0 .3 0 .5-.2.1-.1.2-.3.2-.4v-1.9c0-.3-.1-.7-.1-1 0-.5-.1-1.1 0-1.6.1-.6-.2-1.1-.2-1.7 0-.2.1-.4 0-.6 0-.2.1-.4.1-.5 0-.7 0-1.1-.1-1.2 0-.1.1-.2.1-.3 0-.1.1-.4 0-.5V133c0-.3-.1-1.2 0-1.3.1-.1.5.1.6.1.5.2.9.3 1.2.7l.6.6c.1.1.2.2.3.4.1.2.2.5.3.8.1.4.2.7.4 1.1 0 .1.1.3.1.4 0 .1.1.2.2.3.1.1.1.3.2.4.3 1.1.7 2.2 1.1 3.3.2.5.3 1 .5 1.4.1.3.2.7.3 1 .7 1.6.9 2.1 2.7 2.1.6 0 1.3-.1 1.9-.2.5-.1 1-.3 1.2-.9.1-.2.1-.4.1-.6v-.4c-.1-.3-.2-.6-.4-.8-.3-.5-.5-1-.6-1.5 0-.1-.1-.2-.2-.3-.1-.1-.2-.3-.2-.4-.8-2.4-1.4-4.2-1.7-5.3l-1.3-2.3c-.6-1.4-1.4-2.1-1.4-2.3 0-.2.9-1.3 1.5-2.6.5-1.1.9-2.2 1.4-3.3.4-1 1.5-3.5 1.9-4.4.2-.3.2-.6.3-1 0-.2.2-.4.2-.7 0-.3 0-.5-.2-.7-.2-.3-.5-.5-.8-.6-.4-.1-.8-.2-1.2-.4-.5-.1-.9-.3-1.4-.3-.3 0-.6.2-.9.4-.3.3-.5.7-.6 1-.2.4-.3.8-.5 1.1-.3.9-.8 1.7-1.2 2.6-.4 1-.9 1.9-1.4 2.9l-.9 1.8c-.3.5-.4 1.1-.7 1.6-.2.3-.8.8-1.1.6-.3-.2-.3-1-.3-1.3 0-.5 0-1-.1-1.6-.3-1.8-.5-3.5-.5-5 .1-.1.1-1 .1-2.7 0-1.5-.1-2.4-.2-2.8.5 0 1.1-.1 1.8-.1 1.1.1 2.9.1 5.5 0 1.3-.1 3.7-.3 6-.1.4 0 .3-.5.3-1.8.1-3.1.1-5.3 0-5.6m-8.8-16.9v1.4c-.3-.1-.6-.3-.7-.4.2-.6.5-1 .7-1m6.7-18.2l.4 1.3c-.6.6-1 .9-1.1.9v-.5c-.1-.2-.1-.4-.1-.5 0-.3.2-.7.8-1.2M73.3 23c.9-.5.9 0 2 .4.4.1.8.4 1.1.5.7.3 1-.1 1.1.5.1.7-.2.9-1 .7-.8-.2-.2-.5-.7-.9-.4-.3-.2.4-.8.3-.6-.1-.1-.5-.5-.9s-.4.4-1 .2c-.7-.1-.8-.5-.2-.8m-9.2 10.6l-.5-2.4.1-.7h.2s0 .5.1 1c.1.4.4 1 .4 1l.2.6.9-.2.2.3c0-.1-1.6.4-1.6.4m1.7-1.9v.3l-.3.1v-.4l.4-.4v.2s-.1.1-.1.2m.2.4h.2l.1.2-.1.1H66v-.3m.9 3.1S66 34 66 33.9c.3-.5 2.3.8 2.3.8-.4.3-1.4.5-1.4.5M49.4 75.4c0-.2 0-.4-.1-.8s-.1-.7-.1-.9c0-.4.2-.7.5-1.1l.3 2.5-.6.3zm1.2-.1c-.1-.1-.3-.1-.3-.1l.4-.1s-.1.1-.1.2m-1.3-3l.5-.6c.7.8 1.1 1.2 1.2 1.4-.9-.5-1.4-.8-1.7-.8m-7.7 58.8l.3.1-.3.5-.3-.1.3-.5zm-.3 2.6h.4v.7h-.4v-.7zm-.1 4.8v-.3l.5-.2.1.3-.6.2zm.9-2.6h-.7v-.4h.7v.4zm9.9-18.8l.3.1-.3.5-.3-.1.3-.5zm-4.9-1.9c.4 0 .8-.1 1.1-.4l.3 1.3-1.3.6v-1.5zm.5 26.5s-.1-.1-.3-.2c-.2-.1-.3-.2-.5-.2 0 .5-.1.9-.4 1.2-.2-.9-.4-1.7-.6-2.3.2-.1.4-.2.8-.2 0 .3-.1.6-.4.8l.3.3c.2 0 .3 0 .3-.1 0 0-.1-.1-.2-.3h1.2c-.1.3-.2.6-.2 1m.4-2.3c-.6 0-1.3-.2-2-.5-.9-1.7-1.2-3.2-1.1-4.6.1-1.1.1-2.8 0-5.1 0-.4-.1-1.4-.2-2.8-.1-1.1-.1-2.1-.1-2.8 0-1.4.2-2.5.6-3.5.5-1.4 1.3-2.1 2.5-2.1.6 0 1.2.3 1.9.8s1.1 1 1.1 1.6c.3 2.7.5 6.8.5 12.3 0 1.9-.1 3.2-.3 4.1-.6 1.7-1.5 2.6-2.9 2.6m2.7 3l-.3-.1.3-.8h.3l-.3.9zm.6-2.7c-.1.3-.1.5-.1.7-.5 0-.8-.2-.8-.5 0-.5.3-1 .9-1.7v.5c.1.1.1.3.1.4 0 .1 0 .3-.1.6m.8-2.6h-.5v-.3h.5v.3zm-.6-16.5l.2-.2.3.3-.2.2-.3-.3zm.9 5.9h-.3v-.7h.3v.7zm-.8-6.7c0-.1 0-.5.1-1.2s.1-.8.1-.5c.1.1.1.4.1 1 0 .4.3.6.8.7h-1.1zm2.1-.5s-.2-.1-.5-.3c-.3-.2-.4-.3-.5-.3.2-.2.3-.4.3-.7l.3.3c.2.2.3.3.4.3v.7zm.1-40.9zm1.1 31l.6.5-.2 1.4c-.3-.4-.5-.8-.5-1.2 0-.1 0-.4.1-.7m.3 2.9l-.5-.6c.3 0 .9-.3 1.7-.8-.4.7-.9 1.1-1.2 1.4m4.7 22.8h-.3l.2-1.1h.4l-.3 1.1zm.5-22.1l-.1.5-.5.2-.4-.7.7-.5.5.2-.2.3zm11.8 27.9c-.1-.1-.1-.4-.2-.8.3-.2.6-.3.9-.5-.1.3-.3.8-.7 1.3m-.1-2.2h.7c.1 0 .2.2.2.5-.3.2-.7.4-1 .5-.1-.2-.2-.4-.3-.5l.4-.5zm-2.7 2.8c-.2.1-.4.2-.6.2-.1 0-.2-.1-.2-.2s-.1-.2-.3-.2c-.4 0-.6.1-.6.4 0-.1 0-.3-.1-.5h.6c.4 0 .7-.1 1.1-.2.1.2.1.3.1.5m-1.2-1.7c.7-.2 1.1-.4 1.4-.7 0 .3 0 .7-.1 1.2v.1c-.7.1-1.3.1-2 0v-.2h-1l1.7-.4zM70.1 116.8v1.2c-.4 0-.7-.3-.9-.8 0 0-.2-.5-.4-1.2h.7l.6.8zm-1.6-2.1l.5.6c-.2 0-.4.1-.5.1v-.7zm-5 26.8c-.3-.4-.6-.7-.8-.8 0-.2-.1-.4-.1-.7h.2c.2 0 .3.1.5.1.1.4.2.8.4 1.2-.1 0-.2.1-.2.2m-.8-3.8c.1.1.2.1.3.1.1 0 .2 0 .3-.1.2.3.3.5.5.8-.2-.1-.5-.1-.7-.1v.3c-.2-.2-.4-.3-.6-.5l.2-.5zm28.8.8c.4.4.8.7 1 .8v.7c-.1 0-.3-.2-.6-.4-.3-.3-.6-.4-.7-.4.2-.1.3-.3.3-.7m-.7-18.3h-.3v-.7h.3v.7zm-.3-1.7l.3.1-.3.5-.3-.1.3-.5zm-1.7 16.6h-.7v-.3h.7v.3zm-.5-13h.7v.3h-.7v-.3zm-.8 7.9l.8.3-.1.3-.6-.3v-.3zm-.6-.5h.3l-.2.9h-.3l.2-.9zm-2.8-1.4l.3.1-.3.5-.3-.1.3-.5zm.2.8c0 1-.1 1.7-.3 2 0-.1 0-.2-.1-.5s-.1-.5-.1-.6c0-.4.1-.7.5-.9m-1-37.8c-.3-.1-.5-.1-.8-.2l.6-.3c.1-.1 0-.2-.1-.4l-.7.6c.1-.4-.1-1-.8-1.6.1-.1.7-.1 1.8-.1v2zm0-3.5c0 .4-.1.8-.4 1.1 0-.3-.3-.8-.9-1.4l1.3.3zm-.4-13.7c.1-.7 0-1.6-.3-2.6.3 0 .5.1.6.2 0 .1-.1.2-.1.3 0 .4.2.6.5.6.1 0 .3 0 .5-.1-.4.2-.8.7-1.2 1.6m3-.7l-.2-.4 1.3-.9.2.4-1.3.9zm3.9-1.1v.5l-1.5.3v-.5l1.5-.3zM77.5 13.2c-.5.5.3-.5.5-1.2.1-.4.3-.8.4-1.3.1-.4-.1-.9-.1-1.4 0-.6.2-1.2.2-1.8 0-1-.7-2.2 0-1.7.6.3.4.5.8 1 .3.6.2.6.5 1.2s.7.5.6 1.1c-.1.8-.4.7-.9 1.4l-1 1.4c-.5.7-.4.7-1 1.3m4.3-1c-.4.7-.1 1-.9 1.3-.8.3-1.3.7-1.6-.1-.4-.7.5-.7.9-1.4.5-.7.5-.7 1-1.3.5-.7 1-.5 1-1.3.1-.8-.3-.7-.7-1.4-.4-.7-.5-.6-.9-1.3-.4-.7-1.3-.9-.7-1.4.7-.7 1.1-.3 1.9.2.7.4.3.7.6 1.4s.4.6.8 1.3c.3.7.7.7.6 1.4-.1.8-.5.7-1 1.4-.3.6-.6.5-1 1.2m-3.1 30.7c.3-.8.6-.5 1.5-.9l1.6-.8c.4-.2.7-.5 1-.8.3-.2.8-.3 1.1-.7.3-.3.5-.7.8-1 .5-.5.8-.9 1.1-1.3.3-.4.6-.8.9-1.4.2-.4.4-.9.7-1.6.2-.4.4-.8.5-1.3.1-.4.2-.9.3-1.4.1-.5.4-.9.5-1.4.1-.5.2-1 .2-1.4.1-.5.2-1 .2-1.4V26c0-.6-.2-1.1-.2-1.4 0-.5 0-1-.1-1.6 0-.5-.1-1-.2-1.6-.1-.5.1-1.1-.1-1.6-.1-.5-.5-1-.7-1.5-.2-.6-.3-1.1-.5-1.5-.2-.4-.6-.7-.9-1-.4-.3-.8-.4-1.2-.7-.4-.2-.9-.4-1.3-.5-.8-.3-1.6.1-1.3-.5.3-.8.5-.7 1.1-1.4.6-.7.7-.6 1.2-1.3.6-.7 1-.5 1.1-1.4.1-.8-.4-.8-.8-1.5s-.3-.8-.7-1.5c-.4-.7-.9-.6-1-1.4-.1-.8.7 0 1.7.1.5 0 1 .1 1.6.1.5.1 1 0 1.4.1.5.1.9.3 1.3.5s.8.4 1.1.8c.2.3.3.8.4 1.2.1.4.2.8.2 1.2.1.7.1.6.1 1.2 0 .8-.1.6-.1 1.5 0 .4.1 1 .1 1.5s-.1 1-.1 1.5-.1 1-.1 1.5.1 1 .1 1.5.1 1 .1 1.5-.2 1-.2 1.5v1.5c0 .5.2 1 .2 1.5v1.4c0 .5-.1 1-.1 1.4 0 .5.1 1 .1 1.4 0 .5-.2 1-.2 1.4v1.4c0 .5.2 1 .2 1.4v1.4c0 .5-.2 1-.2 1.4 0 .4.2.9.2 1.5 0 .5-.1 1-.1 1.5V43c0 .9.4.9 0 1.5-.4.5-.5.1-1.4.2-.4.1-.9.2-1.4.3-.4.1-.8.4-1.3.5-.4.1-.9.3-1.3.4-.5.2-1.1.2-1.6.4-.6.2-1 .6-1.4.8-.9.4-.7 1.1-1.5.8-.7-.2-.3-.6-.6-1.3-.2-.4-.2-.9-.4-1.3-.2-.5-.7-.9-1-1.3-.5-.4-.9-.3-.6-1.1M91 48.8c-.2.7-.5 0-1.5.2-.4.1-1 .1-1.6.2-.5.1-.9.5-1.4.7-.5.2-1 .2-1.4.4-.5.2-1 .5-1.4.6-.9.4-.9 1.2-1.3.6-.5-.8-.6-.8-.6-1.7 0-.8.6-.2 1.5-.6.4-.2.9-.4 1.4-.6.4-.2.9-.5 1.4-.7.6-.2 1.2-.2 1.7-.3.6-.2 1.1-.4 1.6-.5 1-.2 1.5-1.1 1.8-.3.3.9.1 1-.2 2m-23.7 6.9c-.6-.3-.1-.6-.4-1.3-.3-.6-1-.6-.7-1.3.3-.6.7-.2 1.4-.3.7-.2.7-.2 1.4-.3.7-.2.7-.1 1.4-.3.7-.2.7-.3 1.3-.5.7-.2.7-.6 1.4-.4.8.2.4.9.5 1.6.1.8.5 1 0 1.3-.7.4-.8.2-1.6.4l-1.6.4c-.8.2-.8.2-1.5.6-.7.2-.8.4-1.6.1m.8 1.8c.4-.6.6-.3 1.3-.5l1.4-.4c.7-.2.7-.1 1.4-.3.7-.2.8-.7 1.4-.3.8.5 0 1.1 0 1.9 0 .7.3.9-.2 1.2-.7.3-.8.1-1.5.3-.7.2-.7.2-1.5.4-.7.2-.8.7-1.5.4-.6-.3-.1-.8-.4-1.3-.4-.8-.7-.8-.4-1.4m-4 17.6v1.2c0-.1-.1-.3-.2-.5-.2-.2-.2-.3-.2-.4.3.1.4-.1.4-.3m-.4 24.6c-.5 1.2-.8 2.8-.8 2.8l-.4-.6-.1-1.3.5-1s.3-1.3.5-1.8c0-.1.1-.1.1-.2h.2l.1-.3.1-.7.5-.4c.1-.1-.3 2.4-.7 3.5m3.6-15.4v-.1l.6.3c-.2 0-.4-.1-.6-.2m2.4-14.2v-.2c.2 0 .3.1.5.3-.1 0-.3 0-.5-.1m1.5.3c-.2 0-.3-.1-.5-.1.2-.1.3-.2.5-.2v.3zm0 .9s.1-.1 0 0c.1-.1.1 0 0 0 .1 0 .1 0 0 0m3.4-5.5c-.2.3-.5.5-1.2.5-.6 0-1.1.1-1.5.2-1.1.1-.8 0-1.5 0H69c-.7 0-.7-.1-1.4-.1s-.7.2-1.4.2-.7-.1-1.4-.1-1.5 0-.7-.6l1.2-.9c.4-.3.9-.4 1.4-.6.4-.1.9-.2 1.4-.3.5-.1.9-.5 1-.9.3-.8-.2-.9.4-1.4.5-.4.6-.1 1.3-.3.6-.1.6-.3 1.3-.4.6-.1.7-.3 1.3-.2.6.1 0 .6.3 1.2.1.3.5.6.7.9.2.3.6.8.7 1.3 0 .7-.2 1.1-.5 1.5m3.4 2.1c-.1 0-.1 0 0 0 .2-.1.2-.1 0 0m-.8-3.5c-.7-.7-.5-.6-.7-1.3-.4-1-.4-1-.9-2-.2-.5-.3-.9-.3-1.3s-.1-.8-.1-1.3c0-.4.1-1 .1-1.7v-1.7c0-.6 0-1.2-.1-1.7 0-.4 0-.9-.1-1.3s-.4-.8-.5-1.2c-.2-.4-.2-.9-.4-1.3l-.6-1.2c-.3-.6-.7-.9-1-1.2-.5-.5-.9-.5-1.3-.3-.6.2-.5 1-.1 1.4.4.5 1.6.7 1.3 1.6-.2.6-.8.1-1.4.2-.7.2-.6.3-1.3.5-.7.2-.7 0-1.4.2s-.6.4-1.3.6c-.7.2-.7.1-1.4.2-.6.1-.2 0-.6-1-.1-.3-.3-.7-.5-1.2-.1-.3-.3-.7-.5-1.1-.2-.6-.4-1.1-.4-1.6 0-.7.1-1.2.3-1.7.3-.9.1-1.3.9-1.5.7-.1.5.2 1.4.5.4.1.8.5 1.4.6.4.1 1-.1 1.5 0 .5 0 .9.2 1.5.2.5 0 1 .1 1.5 0 .5 0 1-.1 1.5-.2.6-.1 1-.4 1.4-.5.9-.3.7-.4 1.4-.4.8 0 .4.3 1 1 .3.3.8.5 1.2 1 .3.3.4.9.7 1.3.3.4.5.8.7 1.3.2.4.5.9.6 1.3.2.5.4.9.5 1.4.1.5 0 1 .1 1.5s.3 1 .3 1.4c0 .6-.2 1.3-.1 1.7.2.6.7.9 1.4.7.6-.2.6-.9.5-1.7-.1-.9-.4-.9-.2-1.8.1-.7.4-.2 1.2-.5l1.2-.6c.4-.2.8-.4 1.3-.5.5-.2 1-.3 1.5-.4.5-.1 1.1-.1 1.5-.2.9-.1.9-.7 1.5-.2.6.5 0 .5 0 1.5v1.6c0 .5.1 1 .1 1.6v1.6c0 .5-.2 1.1-.2 1.6 0 .6.1 1.1.1 1.6 0 .7-.2 1.2-.2 1.6 0 .4.1.9-.1 1.4-.1.4-.4.9-.7 1.3-.2.4-.6.7-.9 1.1-.3.3-.7.7-1.1.9-.4.2-.9.3-1.4.5-.4.1-.9.4-1.4.4-.5.1-.9 0-1.5 0s-1.1.2-1.6.1-1-.3-1.5-.4c-.5-.2-1-.4-1.4-.6-.5-.2-.9-.6-1.3-.9-.3-.4-.8-.6-1.1-.9m1.5 56.5h.7v.3h-.7v-.3zm.9 6.9h-.5v-.3h.5v.3zm0-4.5c-.2.3-.4.4-.5.5v-.8c.2-.2.3-.3.5-.3.1 0 .3 0 .4.1-.1.1-.2.2-.4.5m1-3.9h-.3l.4-2.1h.3l-.4 2.1zm.2-3.3l-.3-.1.3-.5.3.1-.3.5zm.7-23c-.2-.2-.4-.3-.6-.3v-.9l1.6.5c-.3.3-.6.6-1 .7m9.5 15.8c-.3-.3-.5-.4-.6-.4.3-.2.6-.4.8-.5 0 .2.1.4.2.6-.1.2-.2.2-.4.3m2-1.5c.6-.3 1-.6 1.3-.7.3.3.5.6.7.9-.2-.1-.5-.2-.7-.4l-.6.9c-.3-.2-.5-.4-.7-.7m1.2 4c-.2.1-.4.1-.5.1.2-.3.2-.6.3-.8h.6c0 .1.1.2.1.3 0 .1 0 .2.1.3-.3 0-.4.1-.6.1m1-2.9H95c.1-.1.1-.2.2-.2 0 0 0-.1.1-.1v.1c-.1 0-.1.1-.1.2M4.4 149.7c.4.2.6.6.7 1.1 0 .1.1.4.1.8v.3c0 .1-.1.2-.1.4 0 .1-.1.1-.2.1H2.4c-.1 0-.2 0-.2.1s0 .2.1.3c.2.2.6.3 1.3.3.2 0 .3 0 .5-.2.1-.1.2-.1.2-.1s.1.1.3.4l.2.5c.1.2.1.3.1.3 0 .1-.2.3-.7.4-.4.1-.7.2-1.1.2-.7 0-1.3-.3-1.7-.8-.5-.5-.7-1.2-.7-1.9 0-.6.1-1 .4-1.4.4-.6.8-.9 1.1-1 .2-.1.4-.1.8-.1h.5c.4 0 .7.2.9.3m-3 1.2l-.1.1v.4-.6l.1.1zm-.1 1.6v.3-.3zm.8-2.8l-.1.1v.1l-.1.1H2l.1-.3zm1.7 1.5c-.1-.3-.3-.5-.6-.5-.2 0-.5.1-.6.2l-.2.2h1.4zm-1.4.4l.2.1h.2-.2l-.2-.1zm.3 2.5v-.3l-.2.1.2.2zm.3-2.2h.8H3zm0 2.3l.2-.2H3h.1v.2zm1.2-4.3l-.2-.2-.3-.1-.3-.1h.1l.3.1h.1l.1.1.2.2zm.4 3.7l-.2.1-.2.1h-.3l.1.1.4-.1.2-.2zm.2-1.8l-.1.2h.2l-.1-.2zm4.6-2.5h1.3s0 .1.1.3c0 .3.1.8.1 1.5l-.1 2.1v1.1H9.7c-.1 0-.2 0-.2-.1v-.2c-.1 0-.2.1-.3.2-.2.1-.4.2-.5.2-.2 0-.6-.1-1.2-.3-.5-.2-.9-.4-1.1-.7-.3-.4-.5-1-.5-1.6 0-.8.3-1.4.8-1.9.4-.4.9-.7 1.5-.7.5 0 .8 0 .9.1.2.1.3.1.3.2v-.2zm-3.2 3l.1.3.2-.1-.3-.2zm.8-1.6l-.3.2.1.1.2-.3zm1.5 3.4l.1-.1h-.7l-.4-.1-.1-.1-.4-.1.7.4h.8zm-1.2-3.9h.3l-.3-.2v.2zm1.1.6c-.3 0-.6.1-.8.4-.1.2-.2.4-.2.7 0 .3.1.5.1.7.1.1.2.2.4.3.2.1.3.1.4.1.3 0 .4 0 .6-.1.1-.1.2-.2.3-.5.1-.2.1-.4.1-.5 0-.2 0-.3-.1-.4 0-.1-.1-.2-.2-.3-.1-.1-.2-.2-.3-.2-.1-.2-.2-.2-.3-.2m.1-1.4l.2.2.4.2.2.1h.1l-.9-.5zm1.6.9v.3l.1.2.1-.3-.2-.2zm.3 2.2l-.1.3.1.5v.4l.1.2v-.8l-.1-.6zm.1-3l-.1.3h.1v-.3zm2.5-1.6h1.2v1.2c0 .1.1.1.2.1l.3-.1h.5v1.3c0 .1-.1.1-.3.1h-.7c-.1 0-.2.1-.2.3v2.8c0 .3 0 .4-.1.5-.1.1-.3.1-.8.1h-.5v-3.6c0-.1 0-.1-.1-.1H11.5c-.1 0-.2-.3-.2-.8v-.5c0-.1 0-.1.1-.1h.9V147.7h.1l.6.2zm-.7 1.7h-.2v.1h.2l.3-.1h-.3zm.6 0l.1.1.2-.1h-.3zm.5.7l.1 1v1.4l.1-.2v-1.8l-.2-.4zm.2-2l-.1.1v.2l.1-.2v-.1zm0 4.8l-.1.3v.7l.1-.1v-.9zm.2-3.2l.3.1h.7l-.1-.1h-.9zm5.7-2h1.2v1.2c0 .1.1.1.2.1l.3-.1h.7v1.3c0 .1-.1.1-.3.1h-.7c-.1 0-.2.1-.2.3v2.8c0 .3 0 .4-.1.5-.1.1-.3.1-.8.1h-.5v-3.6c0-.1 0-.1-.1-.1H18.2c-.1 0-.2-.3-.2-.8v-.5c0-.1 0-.1.1-.1h.9V147.7h.1l.4.2zm-.7 1.7h-.2v.1h.2l.3-.1h-.3zm.6 0l.1.1.2-.1h-.3zm.5.7l.1 1v1.4l.1-.2v-1.8l-.2-.4zm.1-2l-.1.1v.2l.1-.2v-.1zm.1 4.8l-.1.3v.7l.1-.1v-.9zm.2-3.2l.3.1h.7l-.1-.1h-.9zm2.4-2.6H24v1.9l.3-.2h.1c.4 0 .8.1 1.4.3.4.2.6.4.7.8.2.5.3 1 .3 1.3v2.3c0 .3 0 .5-.1.5-.1.1-.4.1-.8.1h-.5c-.1 0-.1 0-.1-.1V151.4c0-.4-.2-.6-.6-.6-.3 0-.5 0-.6.2-.1.1-.2.4-.2.7v2.6c0 .1 0 .1-.1.1h-1.2c-.1 0-.2-.1-.2-.3V147.4c.2-.1.3-.1.3-.1m.2 6.4v.4h.1l-.1-.4zm.1-5.8v1.2l.1-.1v-.9l-.1-.2zm0 4.2v1.2l.2.6-.1-.7v-1.3l-.1.2zm.5-4.3v.2l.1.1v-.2l-.1-.1zm.7 1.8l-.5.4.4-.3.2-.1.2-.1h.2l-.1-.1-.4.2zm1.6.5l.2.2v-.2h-.2zm.4 3.9l.2.3.1-.2-.3-.1zm.3-2.4l-.2.6v.5l.1-.4v-.2l.1-.5zm4.9-1.9c.4.2.6.6.7 1.1 0 .1.1.4.1.8v.3c0 .1-.1.2-.1.4 0 .1-.1.1-.2.1h-2.5c-.1 0-.2 0-.2.1s0 .2.1.3c.2.2.6.3 1.3.3.2 0 .3 0 .5-.2.1-.1.2-.1.2-.1s.1.1.3.4l.2.5c.1.2.1.3.1.3 0 .1-.2.3-.7.4-.4.1-.7.2-1.1.2-.7 0-1.3-.3-1.7-.8-.5-.5-.7-1.2-.7-1.9 0-.6.1-1 .4-1.4.4-.6.8-.9 1.1-1 .2-.1.4-.1.8-.1h.5c.4 0 .7.2.9.3m-3 1.2l-.1.1v.4-.6l.1.1zm-.1 1.6v.3-.3zm.8-2.8l-.1.2v.1l-.1.1.1-.1.1-.3zm1.7 1.5c-.1-.3-.3-.5-.6-.5-.2 0-.5.1-.6.2l-.2.2h1.4zm-1.4.4l.2.1h.2-.2l-.2-.1zm.3 2.5v-.3l-.2.1.2.2zm.3-2.2h.8-.8zm0 2.3l.2-.2H30h.1v.2zm1.2-4.3l-.2-.2-.3-.1-.3-.1h.1l.3.1h.1l.1.1.2.2zm.4 3.7l-.2.1-.2.1h-.3l.1.1.4-.1.2-.2zm.2-1.8l-.1.2h.2l-.1-.2zm6.1 1l-.1.6-.2.4c0 .3-.1.5-.1.6h-1.2v-.2c0-.1-.1-.3-.1-.5-.1-.4-.2-.6-.2-.7l-.3-1.5-.3-.6-.1-.5c-.1-.5-.2-.8-.2-.8v-.2s.2-.1.5-.1h.9s.1 0 .1.1c0 0 .1.2.2.5.1.2.1.4.1.7 0 .2.1.4.1.7.1.2.1.4.1.5.1-.3.3-.9.4-1.7.1-.4.2-.6.2-.7.1 0 .2-.1.4-.1h.7s0 .1.1.3c0 .2.1.5.3.9.1.4.3.8.3 1.1.1-.2.1-.4.2-.6 0-.2.1-.5.2-1.1 0-.2.1-.3.1-.4v-.2h.5c.3 0 .5 0 .7-.1h.3c0 .1-.1.4-.2.9-.1.2-.1.5-.2.7-.1.4-.3.9-.4 1.5-.1.3-.1.5-.1.6-.2.5-.2.8-.2.8 0 .3-.1.4-.1.4h-1.2l-.1-.1-.1-.2-.1-.6-.3-.8-.1-.4c-.1-.1-.1-.2-.1-.2-.1.4-.2.6-.4 1m-2.5-3.4l.2.7.3.9.1-.1-.1-.2-.2-.4v-.1l-.1-.3-.2-.5zm.6 2l.1.3.1.1h.1l-.3-.4zm.6 2l.1.4.1-.2-.2-.2zm.4.7h-.2l.1.2.1-.2zm.5-1.9l-.2.9.2-.3v-.6zm.8-2.1l-.2.3h.1l.1-.3zm.1-.6l.1.3v-.2l-.1-.1zm.1 1.3l.2.4.2.5.1-.2-.1-.2-.1-.3v-.1l-.3-.1zm.6 1.2l.2.6.2.2-.4-.8zm.7 2.1l.2-.1-.1-.1-.1.2zm.8-2.7l-.2.2.1.1.1-.3zm.2-1.4l-.3.8v.2l.1-.2.2-.5.2-.7-.2.4zm4.6-.6c.2.1.3.1.4.2l.2.2c0 .1.1.1.2.2l.4.4c.3.6.5 1.1.5 1.4 0 .5-.2 1.1-.5 1.6-.2.3-.3.4-.4.5-.1.1-.3.2-.6.3l-.6.2s-.2 0-.7-.1c-.3 0-.6-.1-.7-.1-.1-.1-.3-.2-.5-.4-.5-.5-.8-1.2-.8-2 0-.4.1-.8.2-1.2 0-.1.1-.3.3-.4l.3-.3.2-.2c.1-.1.4-.3.9-.4.2-.1.3-.1.4-.1-.1 0 .2.1.8.2m-2.8 2l-.2.1.2.1v-.2zm.4-1.1l-.4.4.3-.1.1-.3zm-.3 2.6l.1.3.1-.1-.2-.2zm.7-3.1v.1l.2-.2-.2.1zm1 1c-.2 0-.4 0-.4.1-.4.3-.6.6-.6.9 0 .3.1.6.4.8.2.2.4.2.6.2.3 0 .5-.1.7-.2.2-.2.3-.4.3-.8 0-.3-.1-.5-.2-.7-.2-.2-.3-.4-.5-.4l-.3.1zm.9 3.1l-.5.2h-1l-.2.1 1.1.1.6-.4zm-1-4.2l-.4.1h.3l.1-.1zm1.1 0l-.3-.1.4.3.3.2.3.2.1.2.2.1-.2-.4-.5-.4-.3-.1zm.3 3.6l-.3.1h.3v-.1zm.8-2.2v.5l.2-.1-.2-.4zm2.6-1.7c.1-.1.3-.2.4-.2h1.1v1.1c0 .3 0 .5-.1.5h-.6c-.1 0-.2 0-.3.1-.3.1-.4.4-.4.7v2.7c0 .1 0 .2-.1.2s-.4.1-1 .1c-.1 0-.2 0-.2-.1-.1-.1-.1-.2-.1-.2V152l-.1-1.6c0-.3.1-.5.1-.7 0-.1.1-.2.2-.2h.8c.1 0 .1 0 .1.1v.2c.1-.3.1-.4.2-.4m-.8 0l-.2.4h.2v-.4zm-.1.8l.2.3v-.4l-.2.1zm0 3.9v.2l.2-.1-.2-.1zm.4-1.7l-.1-.2v1.6-.1l.1.1v-1.4zm.6-2.5l.4-.2h-.2l-.2.1-.2.2.2-.1zm.9-.3l.2-.1-.1-.2-.1.3zm1.6-2.3h1.1c.1 0 .1 0 .1.1v6.9h-1.2c-.2 0-.2-.1-.2-.3v-3.4c0-.1 0-.6.1-1.5v-.7c0-.4.1-.6.1-.7 0-.1 0-.2-.1-.4h.1m.2.5l.1 1.2.1-.5v-.6l-.2-.1zm.2 4.9l-.1.4.2-.1-.1-.3zm.2-2.5l-.2.5-.1.3-.1.5v.7l.1.2v-.7l.3-1.5zm0-2.7l-.1.4.1-.1v-.3zm0 6.2l-.1.3h.2l-.1-.3zm5-4.3v-2s0-.1.1-.1h1.2s.1 0 .1.1v6.9c0 .1-.1.1-.1.1h-1v-.2l-.1.1s-.1 0-.3.1c-.1 0-.4.1-.8.2h-.2c-.5-.1-.7-.1-.8-.1-.1 0-.2-.1-.3-.3-.7-.6-1-1.1-.9-1.4-.1-.3-.2-.4-.2-.4l.1-.5c0-.4 0-.6.1-.8.1-.3.4-.7.9-1.2l.3-.3s.1 0 .2-.1h.5l.7-.1c.1 0 .2.1.5.2v-.2zm-3 2.6v.3l.2.1-.2-.4zm.4-1.6l.3-.1-.1-.1-.2.2zm.5 3l-.3-.2.3.4.2.2.2.2h.2l-.2-.2-.4-.4zm0-3.7l.7-.1.4-.1.4.1.4.2h.2l-.5-.2-.6-.1-1 .2zm1 1.1c-.2 0-.4.1-.7.4l-.2.2c-.1.1-.1.2-.1.4 0 .3.1.6.2.8.2.2.5.4.9.4.2 0 .4-.1.5-.2.3-.2.4-.5.4-.9 0-.6-.3-.9-.9-1 0-.1 0-.1-.1-.1m1.8 3.3l-.1-.9v.5l.1.4zm0-3l.1-1-.1-.7v-.8l-.1.7.1.7-.1.6.1.5zm.3-2.5v-1l-.1.4.1.2v.4zm.3 4.1l-.2.1.1.2.1-.3zm3.6-5.4h1.3v1.9l.3-.2h.1c.4 0 .8.1 1.4.3.4.2.6.4.7.8.2.5.3 1 .3 1.3v2.3c0 .3 0 .5-.1.5-.1.1-.4.1-.8.1h-.5c-.1 0-.1 0-.1-.1V151.4c0-.4-.2-.6-.6-.6-.3 0-.5 0-.6.2-.1.1-.2.4-.2.7v2.6c0 .1 0 .1-.1.1h-1.2c-.1 0-.2-.1-.2-.3V147.4c.2-.1.2-.1.3-.1m.1 6.4v.4h.1l-.1-.4zm.1-5.8v1.2l.1-.1v-.9l-.1-.2zm0 4.2v1.2l.2.6-.1-.7v-1.3l-.1.2zm.5-4.3v.2l.1.1v-.2l-.1-.1zm.8 1.8l-.5.4.4-.3.2-.1.2-.1h.2l-.1-.1-.4.2zm1.6.5l.2.2v-.2h-.2zm.3 3.9l.2.3.1-.2-.3-.1zm.3-2.4l-.2.6v.5l.1-.4v-.2l.1-.5zm4.7-2.3h1.3s0 .1.1.3c0 .3.1.8.1 1.5l-.1 2.1v1.1h-1.1c-.1 0-.2 0-.2-.1v-.2c-.1 0-.2.1-.3.2-.2.1-.4.2-.6.2-.2 0-.6-.1-1.2-.3-.5-.2-.9-.4-1.1-.7-.3-.4-.5-1-.5-1.6 0-.8.3-1.4.8-1.9.4-.4.9-.7 1.5-.7.5 0 .8 0 .9.1.2.1.3.1.3.2v-.2zm-3.2 3l.1.3.2-.1-.3-.2zm.8-1.6l-.3.2.1.1.2-.3zm1.5 3.4l.1-.1-.4-.1H69l-.4-.1-.1-.1-.3-.1.7.4.8.1zm-1.2-3.9h.3l-.2-.1-.1.1zm1.1.6c-.3 0-.6.1-.8.4-.1.2-.2.4-.2.7 0 .3.1.5.1.7.1.1.2.2.4.3.2.1.3.1.4.1.3 0 .4 0 .6-.1.1-.1.2-.2.3-.5.1-.2.1-.4.1-.5 0-.2 0-.3-.1-.4 0-.1-.1-.2-.2-.3-.1-.1-.2-.2-.3-.2-.1-.2-.2-.2-.3-.2m.1-1.4l.2.2.4.2.2.1h.1l-.9-.5zm1.6.9v.3l.1.2.1-.3-.2-.2zm.3 2.2l-.1.3.1.5v.4l.1.2v-.8l-.1-.6zm.1-3l-.1.3h.1v-.3zm3 4.8v1.8c0 .1-.1.1-.3.1h-1.1c-.1-.1-.1-.8-.1-2.1v-3.2c-.1-.2-.1-.4-.1-.4l.1-1.1v-.1c0-.1 0-.1.1-.1h1s0 .1.1.3l.3-.1c.2-.1.3-.1.4-.1h.3c.6 0 1 .1 1.3.2.2.1.5.4.8.8l.1.1c.1.1.1.2.2.3l.2.6v1c0 .1-.1.3-.2.7-.1.1-.2.3-.3.5-.1.2-.2.3-.2.4-.4.4-.9.7-1.5.7-.3 0-.6-.1-1.1-.3-.1-.1 0 0 0 0m-1-4v.3l.1-.2-.1-.1zm.3 5.6l.1.4.1-.3-.2-.1zm.2-5.7l-.4.9v1.1l.1-.5v-.3l.1-.3.2-.9zm-.2 4.2l-.1.4v.4l.2.4-.1-1.2zm0-4.6l.2-.2-.1-.1-.1.3zm1.8 1c-.2 0-.3-.1-.4-.1-.2 0-.3.1-.5.3-.2.2-.3.5-.3.8 0 .7.3 1.1 1 1.1.4 0 .6-.1.8-.3.1-.1.1-.4.1-.7 0-.2 0-.4-.1-.5-.1-.2-.2-.3-.5-.4 0-.2 0-.2-.1-.2m-1.1-1.2l.1.1.3-.2-.4.1zm.1 4.1l.6.3h.4l-.1-.1h-.2l-.4-.1-.2-.1-.2-.2.1.2zm1.3-4.1l-.1.2.2-.1h.1l.4.1-.6-.2zm.9.3v.2h.2l-.2-.2zm0 3.2v.2l.3-.1-.3-.1zm3.5 1.2v1.8c0 .1-.1.1-.3.1h-1.1c-.1-.1-.1-.8-.1-2.1v-3.2c-.1-.2-.1-.4-.1-.4l.1-1.1v-.1c0-.1 0-.1.1-.1h1s0 .1.1.3l.3-.1c.2-.1.3-.1.4-.1h.3c.6 0 1 .1 1.3.2.2.1.5.4.8.8l.1.1c.1.1.1.2.2.3l.2.6v1c0 .1-.1.3-.2.7-.1.1-.2.3-.3.5-.1.2-.2.3-.2.4-.4.4-.9.7-1.5.7-.3 0-.6-.1-1.1-.3 0-.1 0 0 0 0m-1-4v.3l.1-.2-.1-.1zm.3 5.6l.1.4.1-.3-.2-.1zm.2-5.7l-.4.9v1.1l.1-.5v-.3l.1-.3.2-.9zm-.2 4.2l-.1.4v.4l.2.4-.1-1.2zm.1-4.6l.2-.2-.1-.1-.1.3zm1.8 1c-.2 0-.3-.1-.4-.1-.2 0-.3.1-.5.3-.2.2-.3.5-.3.8 0 .7.3 1.1 1 1.1.4 0 .6-.1.8-.3.1-.1.1-.4.1-.7 0-.2 0-.4-.1-.5-.1-.2-.2-.3-.5-.4 0-.2-.1-.2-.1-.2m-1.1-1.2l.1.1.3-.2-.4.1zm.1 4.1l.6.3h.4l-.1-.1h-.2l-.4-.1-.2-.1-.2-.2.1.2zm1.3-4.1l-.1.2.2-.1h.1l.4.1-.6-.2zm.9.3v.2h.2l-.2-.2zm0 3.2v.2l.3-.1-.3-.1zm2 .4v-4.1s.1-.1.3-.1h1.1c.1 0 .1.1.1.2v4.5h-.2l-.2.1h-.7c-.1 0-.2 0-.2-.1v-.2l-.2-.3zm1.2-5.7c.2.2.2.3.2.6 0 .2-.1.4-.2.6-.2.2-.3.2-.5.2-.1 0-.2 0-.4-.1-.3-.2-.4-.3-.4-.6 0-.2.1-.4.2-.6.1-.2.3-.2.5-.2.3-.1.5 0 .6.1m-.8.1l-.1.2h.1l.1-.1-.1-.1zm-.1 6.2l.1.2.1-.2h-.2zm.3-4.2v.9l-.1.4.1-.1v-1.2zm.2 4l-.2.2.2-.1v-.1zm-.1-5.4l.1.2.1-.1-.2-.1zm.2 3.3v.9l.1.5v-.3l-.1-1.1zm.1-3.8v.4l.1-.1-.1-.3zm.1 1.6l-.1.3.1-.1v-.2zm4.9.1c.4.2.6.6.7 1.1 0 .1.1.4.1.8v.3c0 .1-.1.2-.1.4 0 .1-.1.1-.2.1h-2.5c-.1 0-.2 0-.2.1s0 .2.1.3c.2.2.6.3 1.3.3.2 0 .3 0 .5-.2.1-.1.2-.1.2-.1s.1.1.3.4l.2.5c.1.2.1.3.1.3 0 .1-.2.3-.7.4-.4.1-.7.2-1.1.2-.7 0-1.3-.3-1.7-.8-.5-.5-.7-1.2-.7-1.9 0-.6.1-1 .4-1.4.4-.6.8-.9 1.1-1 .2-.1.4-.1.8-.1h.5c.4 0 .7.2.9.3m-3 1.2l-.1.1v.4-.6l.1.1zm0 1.6v.3-.3zm.8-2.8l-.1.2v.1l-.1.1.1-.2.1-.2zm1.6 1.5c-.1-.3-.3-.5-.6-.5-.2 0-.5.1-.6.2l-.2.2h1.4zm-1.3.4l.2.1h.2-.2l-.2-.1zm.3 2.5v-.3l-.2.1.2.2zm.2-2.2h.8-.8zm.1 2.3l.2-.2-.3.1h.1v.1zm1.2-4.3l-.2-.2-.3-.1-.3-.1h.1l.3.1h.1l.1.1.2.2zm.4 3.7l-.2.1-.2.1h-.3l.1.1.4-.1.2-.2zm.1-1.8l-.1.2h.2l-.1-.2zm2.7-2.4c.1-.1.3-.2.4-.2h1.1v1.1c0 .3 0 .5-.1.5h-.6c-.1 0-.2 0-.3.1-.3.1-.4.4-.4.7v2.7c0 .1 0 .2-.1.2s-.4.1-1 .1c-.1 0-.2 0-.2-.1-.1-.1-.1-.2-.1-.2V152l-.1-1.6c0-.3.1-.5.1-.7 0-.1.1-.2.2-.2h.8c.1 0 .1 0 .1.1v.2c.1-.3.1-.4.2-.4m-.8 0l-.2.4h.2v-.4zm-.1.8l.2.3v-.4l-.2.1zm0 3.9v.2l.2-.1-.2-.1zm.4-1.7l-.1-.2v1.6-.1l.1.1v-1.4zm.6-2.5l.4-.2h-.2l-.2.1-.2.2.2-.1zm1.1-.3l.2-.1-.1-.2-.1.3z"/></svg>