<svg width="96" height="71" viewBox="0 0 96 71" fill="#cccccc" xmlns="http://www.w3.org/2000/svg" id="logo" class="test">
    <path d="M17.0428 8.68212C17.0428 7.0345 17.9582 5.93609 19.3861 5.93609C20.8507 5.93609 21.7294 6.96128 21.7294 8.68212V20.1422H27.8439V7.36403C27.8439 3.2999 25.7569 0.444031 21.3266 0.444031C18.8369 0.444031 17.0428 1.46922 15.8712 2.97038C14.846 1.39599 13.1618 0.444031 10.8917 0.444031C8.32876 0.444031 6.79099 1.72551 6.13194 2.89715V0.92001H0.163899V20.1422H6.27839V8.68212C6.27839 6.92466 7.19374 5.93609 8.62167 5.93609C10.0862 5.93609 10.9283 6.96128 10.9283 8.68212V20.1422H17.0428V8.68212Z" fill="#fff"></path>
    <path d="M30.5407 14.1742C30.5407 18.3481 33.9092 20.6182 37.6804 20.6182C39.6575 20.6182 41.0489 20.069 42.0374 19.0804L42.3669 20.1422H47.8224V8.24276C47.8224 3.84911 46.1382 0.444031 39.5111 0.444031C36.3257 0.444031 33.7261 1.46922 31.6757 2.82392L33.9458 6.92466C35.447 6.19239 37.0946 5.71641 38.7788 5.71641C40.7559 5.71641 41.7079 6.63175 41.7079 7.80339V8.49905C41.0122 8.20614 39.6941 7.80339 38.0099 7.80339C33.4698 7.80339 30.5407 10.3297 30.5407 14.1742ZM36.6552 13.9545C36.6552 12.7096 37.7536 11.9041 39.2182 11.9041C40.6827 11.9041 41.8177 12.6364 41.8177 13.9545C41.8177 15.236 40.7193 15.9316 39.2548 15.9316C37.8269 15.9316 36.6552 15.236 36.6552 13.9545Z" fill="#fff"></path>
    <path d="M57.6415 20.6182C62.0351 20.6182 65.4768 18.2017 65.4768 14.284C65.4768 7.32741 56.6163 8.71873 56.6163 6.30223C56.6163 5.71641 57.1289 5.35027 58.0076 5.35027C59.5088 5.35027 60.6072 6.26561 61.193 6.85143L65.1473 3.73927C64.0123 2.20149 61.9253 0.444031 58.2639 0.444031C54.0899 0.444031 50.8679 2.67747 50.8679 6.37546C50.8679 13.3687 59.6552 12.4167 59.6552 14.6135C59.6552 15.3092 59.106 15.6753 57.9344 15.6753C55.9938 15.6753 54.7124 14.9065 53.6872 13.9911L50.2455 17.323C51.3805 18.8607 53.9801 20.6182 57.6415 20.6182Z" fill="#fff"></path>
    <path d="M74.2764 20.6182C78.67 20.6182 82.1117 18.2017 82.1117 14.284C82.1117 7.32741 73.2512 8.71873 73.2512 6.30223C73.2512 5.71641 73.7638 5.35027 74.6425 5.35027C76.1437 5.35027 77.2421 6.26561 77.8279 6.85143L81.7822 3.73927C80.6472 2.20149 78.5602 0.444031 74.8988 0.444031C70.7249 0.444031 67.5029 2.67747 67.5029 6.37546C67.5029 13.3687 76.2902 12.4167 76.2902 14.6135C76.2902 15.3092 75.7409 15.6753 74.5693 15.6753C72.6288 15.6753 71.3473 14.9065 70.3221 13.9911L66.8804 17.323C68.0154 18.8607 70.615 20.6182 74.2764 20.6182Z" fill="#fff"></path>
    <path d="M17.0425 57.9934C17.0425 56.3457 17.9579 55.2473 19.3858 55.2473C20.8503 55.2473 21.7291 56.2725 21.7291 57.9934V69.4535H27.8436V56.6753C27.8436 52.6111 25.7566 49.7553 21.3263 49.7553C18.8366 49.7553 17.0425 50.7804 15.8709 52.2816C14.8457 50.7072 13.1615 49.7553 10.8914 49.7553C8.32844 49.7553 6.79066 51.0367 6.13161 52.2084V50.2312H0.163574V69.4535H6.27807V57.9934C6.27807 56.2359 7.19341 55.2473 8.62135 55.2473C10.0859 55.2473 10.928 56.2725 10.928 57.9934V69.4535H17.0425V57.9934Z" fill="#fff"></path>
    <path d="M49.1036 61.435C49.1402 60.9957 49.1402 60.5929 49.1402 60.2268C49.1402 53.6729 45.8083 49.7553 39.6938 49.7553C34.0553 49.7553 30.2475 54.2588 30.2475 59.8973C30.2475 65.5724 34.1285 69.9294 40.4627 69.9294C45.4422 69.9294 48.0784 66.8173 48.6276 65.6822L44.6001 62.5701C44.2339 63.1193 42.8792 64.6204 40.5726 64.6204C38.3025 64.6204 36.6549 63.1559 36.5084 61.435H49.1036ZM39.8037 54.6981C41.7076 54.6981 42.8426 56.0162 42.9158 57.554H36.6915C36.838 56.1993 37.7899 54.6981 39.8037 54.6981Z" fill="#fff"></path>
    <path d="M62.8572 69.4535H68.9717V58.7989C68.9717 54.8812 68.3858 49.7553 62.3812 49.7553C59.9647 49.7553 58.2804 51.0734 57.5482 52.2084V50.2312H51.5801V69.4535H57.6946V57.9934C57.6946 56.4556 58.6466 55.2473 60.3308 55.2473C61.7954 55.2473 62.8572 56.1993 62.8572 57.9934V69.4535Z" fill="#fff"></path>
    <path d="M78.9812 46.1671H72.8667V50.2312H70.9994V55.1741H72.8667V61.9476C72.8667 67.6594 75.5029 69.7464 80.043 69.7464C81.5808 69.7464 82.3863 69.5267 82.3863 69.5267V64.2909C81.9835 64.3275 81.6906 64.3275 81.3611 64.3275C80.1162 64.3275 78.9812 63.9248 78.9812 62.2405V55.1741H82.2398V50.2312H78.9812V46.1671Z" fill="#fff"></path>
    <path d="M23.0585 33.4807C23.0585 31.833 23.9739 30.7346 25.4018 30.7346C26.8664 30.7346 27.7451 31.7598 27.7451 33.4807V44.9408H33.8596V32.1626C33.8596 28.0985 31.7726 25.2426 27.3423 25.2426C24.8526 25.2426 23.0585 26.2678 21.8869 27.7689C20.8617 26.1945 19.1775 25.2426 16.9074 25.2426C14.3445 25.2426 12.8067 26.5241 12.1476 27.6957V25.7186H6.17961V44.9408H12.2941V33.4807C12.2941 31.7232 13.2094 30.7346 14.6374 30.7346C16.1019 30.7346 16.944 31.7598 16.944 33.4807V44.9408H23.0585V33.4807Z" fill="#fff"></path>
    <path d="M35.4946 35.3846C35.4946 41.1696 39.815 45.4167 45.9295 45.4167C52.0074 45.4167 56.4743 41.0963 56.4743 35.3114C56.4743 29.4898 52.1173 25.2426 45.9295 25.2426C39.9981 25.2426 35.4946 29.563 35.4946 35.3846ZM41.6091 35.3846C41.6091 32.5653 43.4032 30.6248 45.9295 30.6248C48.4193 30.6248 50.3598 32.4921 50.3598 35.3114C50.3598 38.0574 48.4559 40.0345 45.9295 40.0345C43.4398 40.0345 41.6091 38.1672 41.6091 35.3846Z" fill="#fff"></path>
    <path d="M63.1832 25.7186H56.6293L63.2198 44.9408H70.3229L76.8035 25.7186H70.4327L66.808 38.4601L63.1832 25.7186Z" fill="#fff"></path>
    <path d="M95.8652 36.9224C95.9018 36.483 95.9019 36.0802 95.9019 35.7141C95.9019 29.1603 92.57 25.2426 86.4555 25.2426C80.817 25.2426 77.0092 29.7461 77.0092 35.3846C77.0092 41.0597 80.8902 45.4167 87.2244 45.4167C92.2039 45.4167 94.84 42.3046 95.3893 41.1696L91.3617 38.0574C90.9956 38.6066 89.6409 40.1078 87.3342 40.1078C85.0642 40.1078 83.4166 38.6432 83.2701 36.9224H95.8652ZM86.5653 30.1854C88.4693 30.1854 89.6043 31.5035 89.6775 33.0413H83.4532C83.5996 31.6866 84.5516 30.1854 86.5653 30.1854Z" fill="#fff"></path>
    <path d="M92.8841 66.9369C92.8841 68.8738 91.3139 70.444 89.3769 70.444C87.44 70.444 85.8698 68.8738 85.8698 66.9369C85.8698 64.9999 87.44 63.4297 89.3769 63.4297C91.3139 63.4297 92.8841 64.9999 92.8841 66.9369Z" fill="#fff"></path>
</svg>