<?xml version="1.0" encoding="UTF-8"?>
<svg width="462px" height="302px" viewBox="0 0 462 302" version="1.1" xmlns="http://www.w3.org/2000/svg" xmlns:xlink="http://www.w3.org/1999/xlink">
    <!-- Generator: Sketch 60.1 (88133) - https://sketch.com -->
    <title>tim-logo</title>
    <desc>Created with Sketch.</desc>
    <g id="Page-1" stroke="none" stroke-width="1" fill="none" fill-rule="evenodd">
        <g id="tim-logo" fill-rule="nonzero">
            <path d="M12.1038577,244 L50.0078943,91.5399486 L0,91.5399486 L22.9336071,0 L261.506878,0 L243.351263,73.0403778 L375.538289,73.0403778 C395.605066,73.0403778 413.123627,81.014175 424.590602,95.6864263 C436.0593,110.676976 439.881625,130.771048 434.785191,151.184278 L411.530991,244 L12.1038577,244 Z" id="Path" fill="#000000"></path>
            <path d="M121.595544,227 L155.069309,92.1853455 L193.962705,92.1853455 L225.842461,73.5678157 L141.042027,73.5678157 L102.786664,227 L37.1142986,227 L70.5881067,92.1853455 L102.467862,73.5678157 L25,73.5678157 L38.3894629,19 L238.912907,19 L225.523659,73.5678157 L187.586668,227 L121.595544,227 Z M418.395772,147.716309 L398.949289,227 L347.304249,227 L369.93875,134.876797 L348.260654,147.716309 L328.81374,227 L276.531096,227 L299.165598,134.876797 L277.487502,147.716309 L258.041019,227 L206.076745,227 L239.550511,92.1853455 L329.451344,92.1853455 L326.263326,105.024857 L347.941852,92.1853455 L376.952391,92.1853455 C407.238138,92.506106 425.728215,117.222415 418.395772,147.716309 Z" id="Shape" fill="#FFFFFF"></path>
            <path d="M16.5157887,272.1832 L6,272.1832 L8.23060619,264.168005 L40.7338788,264.168005 L38.5032726,272.1832 L27.9875269,272.1832 L20.3396727,301.358802 L8.86793455,301.358802 L16.5157887,272.1832 Z M45.8323334,283.725201 C46.7883259,280.839592 48.3816468,278.915998 50.9309602,278.915998 C53.1616095,278.915998 53.7989379,280.198394 53.7989379,282.122421 C53.7989379,282.442804 53.7989379,283.084002 53.4802737,283.404818 L45.8323334,283.404818 L45.8323334,283.725201 Z M63.0401991,289.496418 C63.6775274,287.893206 63.9961916,286.289994 63.9961916,284.046016 C64.3148558,277.313218 60.4908856,272.504015 50.9309602,272.504015 C37.8659442,272.504015 33.0860677,283.084002 32.7674035,290.137616 C32.4487393,296.549599 35.9540022,302 45.8323334,302 C55.0735946,302 60.1722214,297.511612 62.0842065,292.381594 L51.2496244,292.381594 C50.2936319,293.984805 49.3376394,295.267202 47.1069901,295.267202 C44.5576767,295.267202 43.9204775,293.343607 44.2390125,290.778814 C44.2390125,290.137616 44.2390125,289.8168 44.5576767,289.496418 L63.0401991,289.496418 Z M85.346261,291.099197 C84.3902684,293.984805 82.7969475,295.267202 80.8849625,295.267202 C78.9729774,295.267202 78.335649,293.984805 78.335649,291.420012 C78.6543132,286.931192 80.8849625,279.236813 84.7089326,279.236813 C87.258246,279.236813 87.5769102,281.160408 86.9395819,283.725201 L97.774164,283.725201 C98.4114923,278.915998 95.8621789,272.504015 85.0275968,272.504015 C72.5996938,272.504015 67.1828334,282.442804 66.8641692,290.778814 C66.545505,297.511612 70.3690445,302 79.2916416,302 C89.8075595,302 94.268858,297.190797 96.1808431,291.099197 L85.346261,291.099197 Z M98.0928281,301.358802 L109.245644,301.358802 L113.706942,285.007597 C114.344271,282.122421 115.937592,280.198394 118.486905,280.198394 C120.717554,280.198394 121.036218,281.481223 120.39889,284.046016 L115.937592,301.358802 L127.090838,301.358802 L131.87037,283.404818 C133.782355,276.030821 131.233042,272.504015 124.860189,272.504015 C120.717554,272.504015 118.168241,274.106794 116.256256,276.030821 L119.761562,262.565225 L108.608315,262.565225 L98.0928281,301.358802 Z M156.407512,264.168005 L146.528922,301.358802 L158.000833,301.358802 L167.878991,264.168005 L156.407512,264.168005 Z M164.373686,301.358802 L175.526932,301.358802 L179.669566,285.648796 C180.625559,281.801606 182.21888,280.198394 184.768193,280.198394 C186.998842,280.198394 187.317506,281.481223 186.680178,284.046016 L182.21888,301.358802 L193.371695,301.358802 L197.832994,284.046016 C200.063643,276.030821 197.195665,272.504015 191.141046,272.504015 C186.680178,272.504015 183.8122,274.42761 182.21888,276.030821 C182.537544,275.389623 182.537544,273.786411 182.856208,273.145213 L171.702962,273.145213 C171.384297,275.068808 170.746969,276.992403 169.790977,281.160408 L164.373686,301.358802 Z M243.720205,301.358802 L254.87302,301.358802 L264.432946,264.168005 L248.181503,264.168005 C244.038869,272.504015 239.896235,280.839592 237.346921,287.252007 L237.028257,287.252007 C237.665585,281.801606 238.621578,270.900803 238.940242,264.168005 L222.369705,264.168005 L212.491546,301.358802 L222.688369,301.358802 L225.875011,289.8168 C227.468332,283.404818 229.380317,276.030821 230.017645,271.542001 L230.336309,271.542001 C229.698981,279.878011 229.061653,291.420012 228.424324,301.038419 L237.665585,301.038419 C242.764212,290.457999 247.862839,279.236813 251.686379,271.542001 L252.005043,271.542001 C250.730386,276.030821 248.500168,283.725201 246.906847,289.496418 L243.720205,301.358802 Z M274.6302,291.099197 C274.6302,287.572823 276.860849,279.557196 281.003053,279.557196 C283.233702,279.557196 283.87103,280.840025 283.87103,283.404818 C283.87103,286.610809 281.640381,295.588017 277.498177,295.588017 C275.267528,295.267202 274.311535,293.664422 274.6302,291.099197 Z M295.024276,284.687214 C295.342941,276.992403 290.562978,272.1832 281.640381,272.1832 C269.212909,272.1832 263.476953,281.801606 263.158289,289.8168 C262.839625,296.229216 266.344931,301.679617 276.22352,301.679617 C289.92565,302 294.705612,292.381594 295.024276,284.687214 Z M298.848247,280.198394 L302.990881,280.198394 L299.485575,292.702409 C298.210918,298.15281 299.166911,301.679617 306.496187,301.679617 C308.408172,301.679617 311.275719,301.679617 313.187704,301.038419 L314.781025,294.305621 C314.143697,294.305621 313.187704,294.305621 312.550376,294.305621 C310.319726,294.305621 310.001062,293.343607 310.638391,291.740395 L313.825032,279.878011 L318.604995,279.878011 L320.51698,272.824398 L315.737017,272.824398 L317.649003,265.450401 L306.814851,265.450401 L304.902866,272.824398 L300.760232,272.824398 L298.848247,280.198394 Z M325.934271,269.618406 L337.087517,269.618406 L338.999503,262.24441 L327.846256,262.24441 L325.934271,269.618406 Z M317.649003,301.358802 L328.802249,301.358802 L336.450189,273.145213 L325.296943,273.145213 L317.649003,301.358802 Z M348.240333,291.099197 C348.240333,287.572823 350.470982,279.557196 354.613617,279.557196 C356.844266,279.557196 357.481594,280.840025 357.481594,283.404818 C357.481594,286.610809 355.250945,295.588017 351.108311,295.588017 C349.196326,295.267202 348.240333,293.664422 348.240333,291.099197 Z M368.953505,284.687214 C369.271738,276.992403 364.492206,272.1832 355.569609,272.1832 C343.141706,272.1832 337.406182,281.801606 337.087517,289.8168 C336.768853,296.229216 340.273729,301.679617 350.152318,301.679617 C363.536214,302 368.634841,292.381594 368.953505,284.687214 Z M369.909497,301.358802 L381.062313,301.358802 L385.204947,285.648796 C386.16094,281.801606 387.754261,280.198394 390.303574,280.198394 C392.534223,280.198394 392.852888,281.481223 392.215559,284.046016 L387.754261,301.358802 L398.907507,301.358802 L403.368375,284.046016 C405.599024,276.030821 402.731046,272.504015 396.676858,272.504015 C392.215559,272.504015 389.347582,274.42761 387.754261,276.030821 C388.072925,275.389623 388.072925,273.786411 388.391589,273.145213 L377.238343,273.145213 C376.919679,275.068808 376.28235,276.992403 375.326358,281.160408 L369.909497,301.358802 Z M410.697651,301.358802 L412.290972,295.588017 L408.785666,295.588017 L407.192345,301.358802 L410.697651,301.358802 Z M418.664255,301.358802 L422.169561,301.358802 L425.993532,286.931192 C427.586852,280.839592 431.091728,275.389623 436.511172,275.389623 C440.97247,275.389623 441.928463,278.595615 440.653806,283.404818 L435.873844,301.358802 L439.37915,301.358802 L444.159112,283.404818 C446.385455,275.389623 443.20312,272.504015 438.104493,272.504015 C433.005866,272.504015 430.136166,275.389623 428.224181,278.274799 C428.542845,277.633601 429.498407,273.786411 429.498407,273.145213 L426.312196,273.145213 C425.674867,275.389623 425.037539,277.954416 424.400211,280.198394 L418.664255,301.358802 Z M451.165418,301.358802 L462,260 L458.494694,260 L447.660112,301.358802 L451.165418,301.358802 Z" id="Shape" fill="#000000"></path>
            <path d="M12.1038577,244 L50.0078943,91.5399486 L0,91.5399486 L22.9336071,0 L261.506878,0 L243.351263,73.0403778 L375.538289,73.0403778 C395.605066,73.0403778 413.123627,81.014175 424.590602,95.6864263 C436.0593,110.676976 439.881625,130.771048 434.785191,151.184278 L411.530991,244 L12.1038577,244 Z" id="Path" fill="#000000"></path>
            <path d="M121.595544,227 L155.069309,92.1853455 L193.962705,92.1853455 L225.842461,73.5678157 L141.042027,73.5678157 L102.786664,227 L37.1142986,227 L70.5881067,92.1853455 L102.467862,73.5678157 L25,73.5678157 L38.3894629,19 L238.912907,19 L225.523659,73.5678157 L187.586668,227 L121.595544,227 Z M418.395772,147.716309 L398.949289,227 L347.304249,227 L369.93875,134.876797 L348.260654,147.716309 L328.81374,227 L276.531096,227 L299.165598,134.876797 L277.487502,147.716309 L258.041019,227 L206.076745,227 L239.550511,92.1853455 L329.451344,92.1853455 L326.263326,105.024857 L347.941852,92.1853455 L376.952391,92.1853455 C407.238138,92.506106 425.728215,117.222415 418.395772,147.716309 Z" id="Shape" fill="#FFFFFF"></path>
            <path d="M16.5157887,272.1832 L6,272.1832 L8.23060619,264.168005 L40.7338788,264.168005 L38.5032726,272.1832 L27.9875269,272.1832 L20.3396727,301.358802 L8.86793455,301.358802 L16.5157887,272.1832 Z M45.8323334,283.725201 C46.7883259,280.839592 48.3816468,278.915998 50.9309602,278.915998 C53.1616095,278.915998 53.7989379,280.198394 53.7989379,282.122421 C53.7989379,282.442804 53.7989379,283.084002 53.4802737,283.404818 L45.8323334,283.404818 L45.8323334,283.725201 Z M63.0401991,289.496418 C63.6775274,287.893206 63.9961916,286.289994 63.9961916,284.046016 C64.3148558,277.313218 60.4908856,272.504015 50.9309602,272.504015 C37.8659442,272.504015 33.0860677,283.084002 32.7674035,290.137616 C32.4487393,296.549599 35.9540022,302 45.8323334,302 C55.0735946,302 60.1722214,297.511612 62.0842065,292.381594 L51.2496244,292.381594 C50.2936319,293.984805 49.3376394,295.267202 47.1069901,295.267202 C44.5576767,295.267202 43.9204775,293.343607 44.2390125,290.778814 C44.2390125,290.137616 44.2390125,289.8168 44.5576767,289.496418 L63.0401991,289.496418 Z M85.346261,291.099197 C84.3902684,293.984805 82.7969475,295.267202 80.8849625,295.267202 C78.9729774,295.267202 78.335649,293.984805 78.335649,291.420012 C78.6543132,286.931192 80.8849625,279.236813 84.7089326,279.236813 C87.258246,279.236813 87.5769102,281.160408 86.9395819,283.725201 L97.774164,283.725201 C98.4114923,278.915998 95.8621789,272.504015 85.0275968,272.504015 C72.5996938,272.504015 67.1828334,282.442804 66.8641692,290.778814 C66.545505,297.511612 70.3690445,302 79.2916416,302 C89.8075595,302 94.268858,297.190797 96.1808431,291.099197 L85.346261,291.099197 Z M98.0928281,301.358802 L109.245644,301.358802 L113.706942,285.007597 C114.344271,282.122421 115.937592,280.198394 118.486905,280.198394 C120.717554,280.198394 121.036218,281.481223 120.39889,284.046016 L115.937592,301.358802 L127.090838,301.358802 L131.87037,283.404818 C133.782355,276.030821 131.233042,272.504015 124.860189,272.504015 C120.717554,272.504015 118.168241,274.106794 116.256256,276.030821 L119.761562,262.565225 L108.608315,262.565225 L98.0928281,301.358802 Z M156.407512,264.168005 L146.528922,301.358802 L158.000833,301.358802 L167.878991,264.168005 L156.407512,264.168005 Z M164.373686,301.358802 L175.526932,301.358802 L179.669566,285.648796 C180.625559,281.801606 182.21888,280.198394 184.768193,280.198394 C186.998842,280.198394 187.317506,281.481223 186.680178,284.046016 L182.21888,301.358802 L193.371695,301.358802 L197.832994,284.046016 C200.063643,276.030821 197.195665,272.504015 191.141046,272.504015 C186.680178,272.504015 183.8122,274.42761 182.21888,276.030821 C182.537544,275.389623 182.537544,273.786411 182.856208,273.145213 L171.702962,273.145213 C171.384297,275.068808 170.746969,276.992403 169.790977,281.160408 L164.373686,301.358802 Z M243.720205,301.358802 L254.87302,301.358802 L264.432946,264.168005 L248.181503,264.168005 C244.038869,272.504015 239.896235,280.839592 237.346921,287.252007 L237.028257,287.252007 C237.665585,281.801606 238.621578,270.900803 238.940242,264.168005 L222.369705,264.168005 L212.491546,301.358802 L222.688369,301.358802 L225.875011,289.8168 C227.468332,283.404818 229.380317,276.030821 230.017645,271.542001 L230.336309,271.542001 C229.698981,279.878011 229.061653,291.420012 228.424324,301.038419 L237.665585,301.038419 C242.764212,290.457999 247.862839,279.236813 251.686379,271.542001 L252.005043,271.542001 C250.730386,276.030821 248.500168,283.725201 246.906847,289.496418 L243.720205,301.358802 Z M274.6302,291.099197 C274.6302,287.572823 276.860849,279.557196 281.003053,279.557196 C283.233702,279.557196 283.87103,280.840025 283.87103,283.404818 C283.87103,286.610809 281.640381,295.588017 277.498177,295.588017 C275.267528,295.267202 274.311535,293.664422 274.6302,291.099197 Z M295.024276,284.687214 C295.342941,276.992403 290.562978,272.1832 281.640381,272.1832 C269.212909,272.1832 263.476953,281.801606 263.158289,289.8168 C262.839625,296.229216 266.344931,301.679617 276.22352,301.679617 C289.92565,302 294.705612,292.381594 295.024276,284.687214 Z M298.848247,280.198394 L302.990881,280.198394 L299.485575,292.702409 C298.210918,298.15281 299.166911,301.679617 306.496187,301.679617 C308.408172,301.679617 311.275719,301.679617 313.187704,301.038419 L314.781025,294.305621 C314.143697,294.305621 313.187704,294.305621 312.550376,294.305621 C310.319726,294.305621 310.001062,293.343607 310.638391,291.740395 L313.825032,279.878011 L318.604995,279.878011 L320.51698,272.824398 L315.737017,272.824398 L317.649003,265.450401 L306.814851,265.450401 L304.902866,272.824398 L300.760232,272.824398 L298.848247,280.198394 Z M325.934271,269.618406 L337.087517,269.618406 L338.999503,262.24441 L327.846256,262.24441 L325.934271,269.618406 Z M317.649003,301.358802 L328.802249,301.358802 L336.450189,273.145213 L325.296943,273.145213 L317.649003,301.358802 Z M348.240333,291.099197 C348.240333,287.572823 350.470982,279.557196 354.613617,279.557196 C356.844266,279.557196 357.481594,280.840025 357.481594,283.404818 C357.481594,286.610809 355.250945,295.588017 351.108311,295.588017 C349.196326,295.267202 348.240333,293.664422 348.240333,291.099197 Z M368.953505,284.687214 C369.271738,276.992403 364.492206,272.1832 355.569609,272.1832 C343.141706,272.1832 337.406182,281.801606 337.087517,289.8168 C336.768853,296.229216 340.273729,301.679617 350.152318,301.679617 C363.536214,302 368.634841,292.381594 368.953505,284.687214 Z M369.909497,301.358802 L381.062313,301.358802 L385.204947,285.648796 C386.16094,281.801606 387.754261,280.198394 390.303574,280.198394 C392.534223,280.198394 392.852888,281.481223 392.215559,284.046016 L387.754261,301.358802 L398.907507,301.358802 L403.368375,284.046016 C405.599024,276.030821 402.731046,272.504015 396.676858,272.504015 C392.215559,272.504015 389.347582,274.42761 387.754261,276.030821 C388.072925,275.389623 388.072925,273.786411 388.391589,273.145213 L377.238343,273.145213 C376.919679,275.068808 376.28235,276.992403 375.326358,281.160408 L369.909497,301.358802 Z M410.697651,301.358802 L412.290972,295.588017 L408.785666,295.588017 L407.192345,301.358802 L410.697651,301.358802 Z M418.664255,301.358802 L422.169561,301.358802 L425.993532,286.931192 C427.586852,280.839592 431.091728,275.389623 436.511172,275.389623 C440.97247,275.389623 441.928463,278.595615 440.653806,283.404818 L435.873844,301.358802 L439.37915,301.358802 L444.159112,283.404818 C446.385455,275.389623 443.20312,272.504015 438.104493,272.504015 C433.005866,272.504015 430.136166,275.389623 428.224181,278.274799 C428.542845,277.633601 429.498407,273.786411 429.498407,273.145213 L426.312196,273.145213 C425.674867,275.389623 425.037539,277.954416 424.400211,280.198394 L418.664255,301.358802 Z M451.165418,301.358802 L462,260 L458.494694,260 L447.660112,301.358802 L451.165418,301.358802 Z" id="Shape" fill="#000000"></path>
        </g>
    </g>
</svg>